SplineFontDB: 3.0
FontName: Purisa-Oblique
FullName: Purisa Oblique
FamilyName: Purisa
Weight: Medium
Copyright: Purisa, Thai handwriting outline font.\n\nCopyright (C) 2003, 2004 Poonlap Veerathanabutr <poonlap@linux.thai.net>
UComments: "2003-11-27: Created.+AAoACgAA-Acknowlegement:+AAoA-Hanwriting by Ms.Purisa Cholasueksa. +AAoA-Co-operated by Mr.Teeratep Sosakul.+AAoACgAA-2004-02-14:+AAoA-Modified most characters. Make numbers bigger." 
Version: 002.011: 2009-07-06
ItalicAngle: 12
UnderlinePosition: -100
UnderlineWidth: 50
Ascent: 800
Descent: 200
LayerCount: 2
Layer: 0 0 "Back"  1
Layer: 1 0 "Fore"  0
NeedsXUIDChange: 1
FSType: 8
OS2Version: 0
OS2_WeightWidthSlopeOnly: 0
OS2_UseTypoMetrics: 0
CreationTime: 1153666222
ModificationTime: 1246868224
PfmFamily: 65
TTFWeight: 400
TTFWidth: 5
LineGap: 113
VLineGap: 0
OS2TypoAscent: 0
OS2TypoAOffset: 1
OS2TypoDescent: 0
OS2TypoDOffset: 1
OS2TypoLinegap: 0
OS2WinAscent: 0
OS2WinAOffset: 1
OS2WinDescent: 0
OS2WinDOffset: 1
HheadAscent: 0
HheadAOffset: 1
HheadDescent: 0
HheadDOffset: 1
OS2Vendor: 'PfEd'
Lookup: 4 8 1 "'liga' Standard Ligatures lookup 2"  {"'liga' Standard Ligatures lookup 2 subtable"  } ['liga' ('latn' <'dflt' > ) ]
Lookup: 6 0 0 "'ccmp' Thai General Composition"  {"'ccmp' Thai Below Vowel Tone Reordering"  "'ccmp' Thai General Composition"  } ['ccmp' ('DFLT' <'dflt' > 'thai' <'KUY ' 'PAL ' 'THA ' 'dflt' > ) ]
Lookup: 6 0 0 "'ccmp' Thai Conditional Descender Removal"  {"'ccmp' Thai Conditional Descender Removal"  } ['ccmp' ('DFLT' <'dflt' > 'thai' <'KUY ' 'PAL ' 'THA ' 'dflt' > ) ]
Lookup: 5 0 0 "Required Thai Descender Removal"  {"Required Thai Descender Removal"  } [' RQD' ('thai' <'PAL ' > ) ]
Lookup: 1 0 0 "Thai Descender Removal Single Substitution"  {"Thai Descender Removal Single Substitution" ("descless" ) } []
Lookup: 2 0 0 "Thai Sara Am Decomposition"  {"Thai Sara Am Decomposition"  } []
Lookup: 2 0 0 "Thai Tone Nikhahit Attachment"  {"Thai Tone Nikhahit Attachment"  } []

StartChar: uni0E34
Encoding: 301 3636 0
Width: 0
Flags: W
HStem: 566 21G<31.5 46.5> 584 47<-273.364 -0.257996> 726 40<-177.45 -54.8725>
VStem: 17 41<566.046 580.223>
AnchorPoint: "AboveMark" 69 780 basemark 0
AnchorPoint: "AboveBase" 57 560 mark 0
LayerCount: 2
Fore
SplineSet
-334 616 m 0x70
 -334 649 -226 766 -92 766 c 0
 -42 766 26 735 25 713 c 0
 25 691 58 657 58 582 c 0
 58 573 58 566 35 566 c 0xb0
 28 566 17 568 17 575 c 0
 17 580 -28 584 -99 584 c 0
 -298 585 -334 597 -334 616 c 0x70
1 619 m 0
 4 619 4 619 4 622 c 0
 4 638 -44 704 -65 714 c 0
 -82 722 -99 726 -115 726 c 0
 -145 726 -176 712 -217 682 c 2
 -275 639 l 1
 -242 633 l 2
 -230 630 -213 629 -199 629 c 0
 -178 629 -183 631 -158 631 c 0x70
 -105 631 -25 619 1 619 c 0
EndSplineSet
EndChar

StartChar: uni0E35
Encoding: 302 3637 1
Width: 0
Flags: W
HStem: 591 90<-5.08374 34.6102> 641 40<-36 23> 647 51<-268.972 -102.663> 714 17<-312 -242> 731 39<-261.234 -85.9144>
VStem: -380 111<662.5 707>
AnchorPoint: "AboveMark" 83 780 basemark 0
AnchorPoint: "AboveBase" 57 560 mark 0
LayerCount: 2
Fore
SplineSet
-380 672 m 0x3c
 -380 694 -321 731 -312 731 c 0
 -290 731 -307 748 -214 764 c 0
 -189 768 -166 770 -146 770 c 0
 -22 770 -8 681 23 681 c 0
 37 681 48 779 65 799 c 0
 72 808 86 814 99 814 c 2
 121 814 l 1
 96 725 l 1
 70 637 57 591 32 591 c 0x9c
 9 591 -36 641 -36 641 c 2x5c
 -37 641 -112 644 -204 647 c 0
 -345 651 -380 653 -380 672 c 0x3c
-73 702 m 0
 -72 707 -115 731 -162 731 c 0
 -206 731 -203 714 -242 714 c 0
 -264 714 -269 708 -269 706 c 0
 -269 701 -231 698 -173 698 c 0x3c
 -118 698 -73 700 -73 702 c 0
EndSplineSet
EndChar

StartChar: uni0E36
Encoding: 303 3638 2
Width: 0
Flags: W
HStem: 546 101<-136.5 -92> 571 46<-46 -1.3247> 590 57<-102.621 -65.9492> 596 29<-373.992 -195.26> 663 45<-34.1804 33.847> 708 40<-299.302 -171.803>
VStem: 11 43<627.322 693.868>
AnchorPoint: "AboveMark" 18 780 basemark 0
AnchorPoint: "AboveBase" 27 560 mark 0
LayerCount: 2
Fore
SplineSet
54 681 m 0x8e
 54 634 -12 571 -40 571 c 0x4e
 -52 571 -63 590 -82 590 c 0x2e
 -100 590 -104 546 -132 546 c 0x8e
 -141 546 -149 554 -149 570 c 0
 -149 574 -148 578 -148 583 c 0
 -148 593 -152 596 -167 596 c 0x1e
 -183 596 -200 593 -327 591 c 2
 -428 589 l 1
 -426 613 l 1
 -422 642 -407 648 -386 673 c 0
 -380 681 -350 701 -319 718 c 0
 -272 743 -256 748 -221 748 c 0
 -168 748 -138 728 -121 682 c 0
 -114 663 -105 647 -101 647 c 0
 -83 647 -28 708 14 708 c 0
 37 708 54 705 54 681 c 0x8e
-374 630 m 0
 -374 625 -363 625 -356 625 c 0x1e
 -339 625 -296 627 -251 632 c 0
 -194 639 -154 643 -154 659 c 0
 -154 666 -160 674 -170 687 c 1
 -184 703 -193 708 -216 708 c 0
 -284 708 -297 700 -339 664 c 0
 -341 662 -374 634 -374 630 c 0
-3 663 m 0
 -21 663 -35 652 -35 635 c 0
 -35 627 -31 617 -25 617 c 0x4e
 -14 617 11 652 11 659 c 0
 11 663 6 663 -3 663 c 0
EndSplineSet
EndChar

StartChar: uni0E37
Encoding: 304 3639 3
Width: 0
Flags: W
HStem: 614 30<-302.724 -156.794> 724 42<-308.806 -183.963>
VStem: -414 60<623.5 688.273> 24 83<702.111 814.704>
AnchorPoint: "AboveMark" 10 780 basemark 0
AnchorPoint: "AboveBase" 57 560 mark 0
LayerCount: 2
Fore
SplineSet
24 689 m 0
 24 795 57 851 79 851 c 0
 81 851 107 846 107 811 c 0
 107 767 81 646 42 646 c 0
 27 646 24 657 24 689 c 0
-414 640 m 0
 -414 683 -337 766 -229 766 c 0
 -187 766 -150 752 -124 727 c 2
 -105 709 l 1
 -87 772 l 2
 -76 810 -61 839 -52 843 c 0
 -42 848 -35 851 -30 851 c 0
 -26 851 -8 845 -8 822 c 0
 -8 795 -52 695 -63 646 c 1
 -72 596 -88 587 -107 587 c 0
 -140 587 -125 614 -154 614 c 0
 -173 614 -236 599 -306 599 c 0
 -361 599 -414 607 -414 640 c 0
-243 724 m 0
 -285 724 -354 683 -354 662 c 0
 -354 651 -336 644 -201 644 c 0
 -179 644 -156 643 -156 665 c 0
 -156 690 -201 724 -243 724 c 0
EndSplineSet
EndChar

StartChar: uni0E38
Encoding: 305 3640 4
Width: 0
Flags: W
HStem: -133 26<-310.997 -248.033> -68 30<-294.597 -245.154>
VStem: -347 36<-123 -80.7251> -245 33<-148.214 -68.2441>
DStem2: -263 -200 -244 -289 0.170917 0.985285<-65.4094 67.9524>
AnchorPoint: "BelowBase" -190 -38 mark 0
LayerCount: 2
Fore
SplineSet
-347 -115 m 0
 -347 -85 -287 -38 -254 -38 c 0
 -230 -38 -212 -56 -212 -89 c 0
 -212 -107 -217 -135 -227 -191 c 2
 -244 -289 l 1
 -258 -285 l 2
 -270 -282 -274 -279 -274 -265 c 0
 -274 -254 -271 -235 -263 -200 c 2
 -248 -132 l 1
 -295 -133 l 1
 -317 -133 l 2
 -334 -133 -347 -131 -347 -115 c 0
-268 -68 m 0
 -295 -68 -311 -101 -311 -103 c 0
 -311 -106 -307 -107 -299 -107 c 0
 -258 -107 -245 -104 -245 -78 c 0
 -245 -71 -249 -68 -268 -68 c 0
EndSplineSet
Substitution2: "Thai Sara U Mai Ek Reordering" uni0E48.low
Substitution2: "Thai Sara U Mai Tho Reordering" uni0E49.low
Substitution2: "Thai Sara U Mai Tri Reordering" uni0E4A.low
Substitution2: "Thai Sara U Mai Chattawa Reordering" uni0E4B.low
Substitution2: "Thai Sara U Thanthakhat Reordering" uni0E4C.low
Substitution2: "Thai Sara U Nikhahit Reordering" uni0E4D
EndChar

StartChar: uni0E39
Encoding: 306 3641 5
Width: 0
Flags: W
HStem: -125 18<-351.511 -305.716> -69 18<-340.143 -302.226>
VStem: -391 38<-106.79 -80.9239> -299 34<-103.973 -69.2613> -287 27<-183 -115.02>
AnchorPoint: "BelowBase" -190 -38 mark 0
LayerCount: 2
Fore
SplineSet
-291 -211 m 0xe8
 -291 -202 -287 -199 -287 -169 c 0xe8
 -287 -143 -291 -115 -296 -115 c 0
 -303 -115 -326 -125 -345 -125 c 0
 -364 -125 -391 -117 -391 -105 c 0
 -391 -92 -344 -51 -307 -51 c 0
 -288 -51 -265 -68 -265 -82 c 0xf0
 -265 -86 -266 -92 -261 -92 c 0
 -255 -92 -260 -104 -260 -152 c 2
 -260 -183 l 1
 -249 -165 l 1
 -226 -120 -215 -53 -194 -53 c 0
 -188 -53 -181 -57 -181 -70 c 0
 -181 -99 -245 -242 -271 -242 c 0
 -281 -242 -291 -227 -291 -211 c 0xe8
-316 -69 m 0
 -323 -69 -353 -78 -353 -93 c 0
 -353 -100 -345 -107 -332 -107 c 0
 -312 -107 -299 -95 -299 -87 c 0xf0
 -299 -80 -306 -69 -316 -69 c 0
EndSplineSet
Substitution2: "Thai Sara UU Mai Ek Reordering" uni0E48.low
Substitution2: "Thai Sara UU Mai Tho Reordering" uni0E49.low
Substitution2: "Thai Sara UU Mai Tri Reordering" uni0E4A.low
Substitution2: "Thai Sara UU Mai Chattawa Reordering" uni0E4B.low
Substitution2: "Thai Sara UU Thanthakhat Reordering" uni0E4C.low
Substitution2: "Thai Sara UU Nikhahit Reordering" uni0E4D
EndChar

StartChar: uni0E3A
Encoding: 307 3642 6
Width: 0
Flags: W
AnchorPoint: "BelowBase" -190 -38 mark 0
LayerCount: 2
Fore
SplineSet
-374 -164 m 0
 -374 -119 -318 -54 -256 -54 c 0
 -229 -54 -217 -70 -217 -92 c 0
 -217 -135 -263 -199 -331 -199 c 0
 -361 -199 -374 -185 -374 -164 c 0
EndSplineSet
Substitution2: "Thai Phinthu Maitaikhu Reordering" uni0E47
Substitution2: "Thai Phinthu Mai Ek Reordering" uni0E48.low
Substitution2: "Thai Phinthu Mai Tho Reordering" uni0E49.low
Substitution2: "Thai Phinthu Mai Tri Reordering" uni0E4A.low
Substitution2: "Thai Phinthu Mai Chattawa Reordering" uni0E4B.low
Substitution2: "Thai Phinthu Thanthakhat Reordering" uni0E4C.low
Substitution2: "Thai Phinthu Nikhahit Reordering" uni0E4D
EndChar

StartChar: uni0E48
Encoding: 317 3656 7
Width: 0
Flags: W
VStem: 85 32<938 970>
DStem2: 52 843 97 877 0.251491 0.96786<11.2606 131.217>
AnchorPoint: "AboveMark" 58 780 mark 0
LayerCount: 2
Fore
SplineSet
85 970 m 1
 117 970 l 1
 97 877 l 2
 93 863 102 844 52 843 c 1
 85 970 l 1
EndSplineSet
MultipleSubs2: "Thai Tone Nikhahit Attachment" uni0E4D uni0E48
Substitution2: "Thai Tone Low Variant" uni0E48.low
Substitution2: "Thai Sara U Mai Ek Reordering" uni0E38
Substitution2: "Thai Sara UU Mai Ek Reordering" uni0E39
Substitution2: "Thai Phinthu Mai Ek Reordering" uni0E3A
EndChar

StartChar: uni0E49
Encoding: 318 3657 8
Width: 0
Flags: W
HStem: 969 28<61.3765 83.2983>
VStem: 30 31<922.219 968.616> 86 29<922.742 966.849>
AnchorPoint: "AboveMark" 66 780 mark 0
LayerCount: 2
Fore
SplineSet
115 963 m 0
 115 926 92 903 91 898 c 1
 91 897 l 1
 94 897 198 992 201 996 c 0
 206 1002 214 1005 220 1005 c 0
 225 1005 229 1004 229 997 c 0
 229 970 146 918 144 906 c 0
 143 902 30 813 17 813 c 0
 7 813 -19 786 -33 786 c 0
 -37 786 -43 787 -43 794 c 0
 -43 808 -15 838 15 864 c 1
 42 889 l 1
 39 901 l 2
 35 916 30 922 30 933 c 0
 30 945 38 986 46 992 c 0
 49 995 61 997 73 997 c 0
 93 997 96 996 106 982 c 0
 112 973 115 970 115 963 c 0
67 969 m 0
 63 969 61 958 61 950 c 0
 61 937 65 922 70 922 c 0
 74 922 86 942 86 948 c 0
 86 956 71 969 67 969 c 0
EndSplineSet
MultipleSubs2: "Thai Tone Nikhahit Attachment" uni0E4D uni0E49
Substitution2: "Thai Tone Low Variant" uni0E49.low
Substitution2: "Thai Sara U Mai Tho Reordering" uni0E38
Substitution2: "Thai Sara UU Mai Tho Reordering" uni0E39
Substitution2: "Thai Phinthu Mai Tho Reordering" uni0E3A
EndChar

StartChar: uni0E4B
Encoding: 320 3659 9
Width: 0
Flags: W
HStem: 877 37<-13.0181 60.75> 897 29<118.103 179>
VStem: 95 32<927 996.776>
DStem2: 58 821 86 821 0.253028 0.967459<7.08478 80.0984>
AnchorPoint: "AboveMark" 63 780 mark 0
LayerCount: 2
Fore
SplineSet
95 958 m 2xa0
 99 994 101 997 116 997 c 1
 123 996 127 992 127 980 c 0
 127 973 126 962 123 948 c 2
 118 926 l 1
 184 924 l 1
 179 899 l 1
 146 897 l 1
 142 897 l 2x60
 133 897 127 898 122 898 c 0
 107 898 105 891 91 839 c 2
 86 821 l 1
 58 821 l 1
 63 841 l 2
 70 867 73 879 75 886 c 1
 81 898 l 1
 57 895 l 1
 30 893 5 877 -7 877 c 0
 -12 877 -14 880 -14 886 c 0
 -14 906 -6 907 9 914 c 0
 22 920 42 924 61 925 c 2
 91 927 l 1
 95 958 l 2xa0
EndSplineSet
MultipleSubs2: "Thai Tone Nikhahit Attachment" uni0E4D uni0E4B
Substitution2: "Thai Tone Low Variant" uni0E4B.low
Substitution2: "Thai Sara U Mai Chattawa Reordering" uni0E38
Substitution2: "Thai Sara UU Mai Chattawa Reordering" uni0E39
Substitution2: "Thai Phinthu Mai Chattawa Reordering" uni0E3A
EndChar

StartChar: uni0E4C
Encoding: 321 3660 10
Width: 0
Flags: W
HStem: 824 19<34 86.3307> 911 49<151.635 182.798> 941 33<70.1697 150.684>
VStem: -1 45<857.604 914.415> 88 25<843.996 881.5>
AnchorPoint: "AboveMark" 106 780 mark 0
LayerCount: 2
Fore
SplineSet
113 870 m 0xb8
 113 838 74 824 44 824 c 0
 24 824 -1 846 -1 871 c 0
 -1 909 76 974 112 974 c 0xb8
 131 974 155 969 162 963 c 0
 164 961 165 960 166 960 c 0
 175 960 211 1033 223 1045 c 0
 228 1050 234 1052 238 1052 c 0
 244 1052 249 1048 249 1041 c 0
 249 1020 179 911 169 911 c 0xd8
 157 911 147 941 115 941 c 0
 91 941 44 915 44 899 c 0
 44 879 113 893 113 870 c 0xb8
55 855 m 0
 55 853 59 843 70 843 c 0
 79 843 88 849 88 857 c 0
 88 863 83 866 76 866 c 0
 67 866 56 859 55 855 c 0
EndSplineSet
MultipleSubs2: "Thai Tone Nikhahit Attachment" uni0E4D uni0E4C
Substitution2: "Thai Tone Low Variant" uni0E4C.low
Substitution2: "Thai Sara U Thanthakhat Reordering" uni0E38
Substitution2: "Thai Sara UU Thanthakhat Reordering" uni0E39
Substitution2: "Thai Phinthu Thanthakhat Reordering" uni0E3A
EndChar

StartChar: exclam
Encoding: 1 33 12
Width: 519
Flags: W
HStem: 532 20G<348.5 356.5>
VStem: 212 127<38 86.125> 296 36<224.857 290.129>
LayerCount: 2
Fore
SplineSet
339 95 m 0xc0
 339 67 304 2 274 2 c 0
 260 2 242 17 233 17 c 0
 222 17 212 32 212 45 c 0
 212 64 250 111 269 119 c 0
 276 122 284 123 293 123 c 0
 330 123 339 109 339 95 c 0xc0
325 525 m 0
 325 551 348 552 349 552 c 0
 364 552 394 548 425 544 c 2
 459 540 l 1
 448 503 l 2
 431 447 382 376 332 251 c 0
 325 233 318 224 310 224 c 0
 300 224 296 232 296 250 c 0xa0
 296 280 307 337 316 429 c 1
 316 469 331 493 331 509 c 0
 331 517 325 516 325 525 c 0
EndSplineSet
EndChar

StartChar: quotedbl
Encoding: 2 34 13
Width: 572
Flags: W
VStem: 316 85<483.445 686.34> 433 78<513.728 687.802> 433 58<472.227 672.967>
LayerCount: 2
Fore
SplineSet
316 559 m 0x80
 316 629 327 709 369 709 c 0
 395 709 401 675 401 568 c 0
 401 516 385 470 354 470 c 0
 346 470 339 473 331 478 c 0
 321 485 316 519 316 559 c 0x80
433 515 m 0xc0
 433 534 444 735 484 735 c 0
 493 735 511 717 511 675 c 0xc0
 511 632 500 565 491 522 c 0xa0
 483 485 476 470 460 470 c 0
 433 470 433 503 433 515 c 0xc0
EndSplineSet
EndChar

StartChar: numbersign
Encoding: 3 35 14
Width: 655
Flags: W
HStem: 145 60<128.337 227.338> 366 71<208.079 326.844> 407 59<424.621 479.215> 422 72<588.005 618.668>
VStem: 193 77<31.9307 101.145>
DStem2: 290 286 328 217 0.340754 0.940153<-51.7227 98.7385>
LayerCount: 2
Fore
SplineSet
433 559 m 0xc8
 433 543 423 497 423 481 c 0
 423 470 427 466 437 466 c 0xa8
 555 466 536 582 582 582 c 0
 597 582 601 575 601 566 c 0
 601 551 588 517 588 505 c 0
 588 494 595 494 610 494 c 2
 615 494 l 2
 626 494 639 491 639 479 c 0
 639 454 598 422 581 422 c 0x98
 575 422 574 424 570 424 c 0
 558 424 556 409 514 305 c 2
 496 261 l 1
 563 267 l 2
 584 269 599 270 608 270 c 0
 623 270 625 267 624 260 c 0
 616 224 594 218 548 207 c 0
 461 185 456 182 444 131 c 0
 427 58 413 35 380 31 c 2
 350 28 l 1
 394 165 l 1
 359 165 l 2
 308 165 299 156 270 82 c 0
 247 21 228 -9 212 -9 c 0
 208 -9 193 -6 193 18 c 0
 193 30 195 43 207 78 c 2
 228 145 l 1
 171 145 l 2
 120 145 110 151 110 160 c 0
 110 178 148 201 198 205 c 1
 255 211 264 219 290 286 c 0
 298 309 310 339 317 353 c 2
 328 378 l 1
 254 370 l 2
 230 368 213 366 203 366 c 0
 187 366 183 369 183 377 c 0
 183 410 207 416 238 425 c 0
 265 432 298 437 311 437 c 0
 343 437 351 448 373 515 c 0
 387 559 395 572 422 572 c 0
 430 572 433 569 433 559 c 0xc8
408 235 m 0
 436 242 478 381 478 383 c 0
 479 387 480 391 480 394 c 0
 480 403 475 407 466 407 c 0
 459 407 448 405 435 402 c 0
 387 392 389 393 347 272 c 2
 328 217 l 1
 359 223 l 2
 376 227 398 232 408 235 c 0
EndSplineSet
EndChar

StartChar: dollar
Encoding: 4 36 15
Width: 628
Flags: W
HStem: 331 49<362 421> 527 51<478 501>
VStem: 178 156<101.5 247> 187 49<-145.48 -85.5118> 261 60<393.31 472.258> 464 58<198.669 315.779>
DStem2: 231 11 267 -57 0.331401 0.94349<-141.606 75.9356 623.157 795.689>
LayerCount: 2
Fore
SplineSet
178 237 m 0xe4
 178 257 184 281 206 281 c 0
 234 281 234 226 264 173 c 2
 278 149 l 1
 293 188 l 1
 315 242 345 296 345 323 c 0
 345 335 340 341 327 344 c 0
 292 354 261 389 261 421 c 0
 261 461 336 552 392 576 c 0
 430 592 435 597 459 657 c 0
 473 693 488 730 493 739 c 0
 498 750 512 756 528 756 c 0
 545 756 551 755 548 743 c 0
 545 726 481 578 501 578 c 0
 514 578 576 504 576 489 c 0
 576 486 573 474 560 474 c 0
 533 474 492 527 478 527 c 0
 476 527 461 486 452 458 c 2
 432 391 l 1
 461 375 l 2
 501 352 522 316 522 275 c 0
 522 200 443 94 364 72 c 0
 310 58 300 44 267 -57 c 0
 253 -101 238 -139 236 -141 c 0
 234 -142 211 -147 198 -147 c 0
 186 -147 183 -143 187 -125 c 0xdc
 196 -84 220 -16 231 11 c 2
 258 82 l 1
 229 113 l 2
 197 146 178 200 178 237 c 0xe4
362 380 m 0
 372 380 410 495 410 544 c 1
 367 500 l 2
 350 482 321 449 321 436 c 0
 321 417 348 380 362 380 c 0
339 95 m 0
 355 95 464 187 464 265 c 0
 464 314 421 331 421 331 c 1
 404 331 334 146 334 105 c 0xe4
 334 98 335 95 339 95 c 0
EndSplineSet
EndChar

StartChar: percent
Encoding: 5 37 16
Width: 734
Flags: W
HStem: 544 20G<724.5 741.5>
VStem: 239 107<376.262 453.996>
LayerCount: 2
Fore
SplineSet
609 144 m 0
 609 124 551 42 495 42 c 0
 472 42 457 60 457 74 c 0
 457 97 532 195 571 195 c 0
 593 195 609 162 609 144 c 0
239 385 m 0
 239 439 277 486 303 486 c 0
 314 486 346 471 346 434 c 0
 346 392 307 342 267 342 c 0
 248 342 239 361 239 385 c 0
90 -47 m 0
 87 -47 70 -44 70 -30 c 0
 70 -7 115 33 178 85 c 0
 288 175 449 323 537 415 c 0
 599 480 711 564 738 564 c 0
 745 564 748 560 748 552 c 0
 748 487 563 366 412 208 c 0
 381 175 130 -47 90 -47 c 0
EndSplineSet
EndChar

StartChar: ampersand
Encoding: 6 38 17
Width: 734
Flags: W
HStem: -45 70<190.792 256.081> 34 82<552.542 644.904> 551 62<364.124 441.649>
VStem: 126 64<25.2276 117.059> 254 70<395.565 509.004> 412 252<59 135.5> 413 66<482.099 579.5>
DStem2: 203 211 250 182 0.56921 0.822192<-130.811 84.4961>
LayerCount: 2
Fore
SplineSet
479 546 m 0xfa
 479 475 351 344 351 308 c 0
 351 279 420 199 450 199 c 0
 499 199 577 352 634 352 c 0
 648 352 661 338 661 326 c 0
 661 297 522 185 516 154 c 0
 515 150 517 148 523 148 c 0
 545 148 552 116 587 116 c 0
 622 116 664 88 664 65 c 0xfc
 664 53 653 34 623 34 c 0
 591 34 544 54 503 90 c 1
 471 117 l 1
 403 67 l 2
 363 37 234 -45 198 -45 c 0
 177 -45 126 -29 126 34 c 0
 126 105 191 195 203 211 c 2
 266 302 l 1
 260 357 l 2
 256 385 254 409 254 430 c 0
 254 518 290 551 354 586 c 0
 384 602 414 613 426 613 c 0
 429 613 443 608 458 608 c 0
 470 608 479 574 479 546 c 0xfa
331 460 m 0
 329 451 324 425 324 409 c 0
 324 401 325 395 329 395 c 0
 336 395 351 405 365 417 c 0
 411 459 413 535 413 538 c 0xfa
 413 547 411 551 406 551 c 0
 400 551 389 545 373 535 c 0
 348 521 341 508 331 460 c 0
250 182 m 2
 217 137 190 86 190 52 c 0
 190 36 196 25 208 25 c 0
 237 25 351 100 387 106 c 0
 407 110 412 116 412 123 c 0xfc
 412 148 341 179 313 222 c 1
 298 248 l 1
 250 182 l 2
EndSplineSet
EndChar

StartChar: quotesingle
Encoding: 7 39 18
Width: 613
Flags: W
VStem: 370 98<468.899 570.1>
LayerCount: 2
Fore
SplineSet
370 527 m 0
 370 550 376 563 376 586 c 0
 376 605 370 606 370 617 c 0
 370 630 378 663 395 684 c 0
 405 697 411 701 431 701 c 0
 457 701 539 690 547 685 c 0
 549 684 549 681 549 678 c 0
 549 662 531 619 509 599 c 0
 499 590 480 554 468 519 c 0
 448 463 440 453 419 453 c 0
 390 453 370 485 370 527 c 0
EndSplineSet
EndChar

StartChar: parenleft
Encoding: 8 40 19
Width: 651
Flags: W
VStem: 243 81<122.703 339.521>
LayerCount: 2
Fore
SplineSet
453 -104 m 0
 453 -133 424 -140 410 -140 c 0
 343 -140 243 79 243 245 c 0
 243 315 244 315 375 597 c 0
 420 694 455 745 514 796 c 0
 549 826 584 844 602 844 c 0
 610 844 614 841 614 833 c 0
 614 816 562 755 557 749 c 0
 482 659 324 366 324 229 c 0
 324 157 379 15 419 -33 c 0
 442 -61 453 -86 453 -104 c 0
EndSplineSet
EndChar

StartChar: parenright
Encoding: 9 41 20
Width: 636
Flags: W
HStem: 763 74<376.703 408.139>
VStem: 459 90<380.197 677.947>
LayerCount: 2
Fore
SplineSet
374 804 m 0
 374 830 390 837 403 837 c 0
 457 837 538 725 547 624 c 0
 548 611 549 597 549 581 c 0
 549 453 508 254 465 161 c 0
 390 0 323 -57 281 -128 c 0
 265 -156 250 -167 224 -167 c 0
 208 -167 183 -161 183 -152 c 0
 183 -141 223 -78 270 -14 c 0
 325 60 396 154 439 356 c 0
 453 423 459 480 459 529 c 0
 459 694 396 761 392 763 c 0
 381 767 374 786 374 804 c 0
EndSplineSet
EndChar

StartChar: asterisk
Encoding: 10 42 21
Width: 772
Flags: W
HStem: 263 56<211.822 288.957> 318 90<612.402 706>
VStem: 304 75<503.886 596.847> 340 138<163 251.494>
LayerCount: 2
Fore
SplineSet
379 569 m 0xa0
 379 562 377 558 377 551 c 0
 377 528 393 503 405 503 c 0
 411 503 415 513 420 535 c 0
 427 569 455 631 485 631 c 0
 501 631 505 615 505 593 c 0
 505 569 502 561 502 514 c 1
 501 497 502 487 506 487 c 0
 512 487 523 500 549 529 c 0
 605 592 661 631 689 631 c 0
 702 631 714 621 714 607 c 0
 714 597 708 577 680 558 c 1
 648 534 564 423 564 411 c 0
 564 407 584 405 611 405 c 0
 641 405 665 408 687 408 c 0
 711 408 726 406 726 383 c 0
 726 338 704 333 632 318 c 2
 582 308 l 1
 619 273 l 2
 637 255 647 246 647 235 c 0
 647 219 612 173 594 173 c 0
 564 173 497 254 475 254 c 0
 465 254 462 234 462 223 c 0
 462 198 478 186 478 172 c 0
 478 154 449 126 411 126 c 0
 399 126 393 129 381 129 c 0
 327 129 312 85 267 85 c 0
 249 85 237 95 237 113 c 0
 237 162 340 221 340 249 c 0x50
 340 260 322 263 287 263 c 0
 239 263 204 282 204 299 c 0
 204 307 211 315 227 319 c 0
 275 333 388 375 388 387 c 0
 388 407 304 496 304 556 c 0
 304 587 327 603 346 603 c 0
 364 603 379 589 379 569 c 0xa0
EndSplineSet
EndChar

StartChar: plus
Encoding: 11 43 22
Width: 715
Flags: W
VStem: 419 69<493.658 576.388>
DStem2: 272 383 302 309 0.982662 0.185408<-91.3387 86.5855> 316 20 472 395 0.166172 0.986097<395.709 548.978>
LayerCount: 2
Fore
SplineSet
675 419 m 0
 695 419 698 402 698 389 c 0
 698 334 651 353 490 323 c 2
 453 316 l 1
 382 20 l 1
 316 20 l 1
 372 320 l 1
 302 309 l 2
 252 302 217 298 194 298 c 0
 167 298 157 304 157 318 c 0
 157 321 158 325 159 330 c 0
 166 361 173 365 272 383 c 2
 378 403 l 1
 392 471 l 2
 400 508 412 548 419 560 c 0
 427 572 445 581 462 581 c 0
 481 581 488 578 488 550 c 0
 488 536 486 517 483 488 c 2
 472 395 l 1
 548 403 l 2
 624 410 663 419 675 419 c 0
EndSplineSet
EndChar

StartChar: comma
Encoding: 12 44 23
Width: 496
Flags: W
LayerCount: 2
Fore
SplineSet
118 -144 m 0
 118 -106 189 -5 225 45 c 0
 306 159 338 196 357 196 c 0
 375 196 384 190 384 176 c 0
 384 142 321 57 285 8 c 0
 170 -146 158 -160 136 -160 c 0
 124 -160 118 -155 118 -144 c 0
EndSplineSet
EndChar

StartChar: hyphen
Encoding: 13 45 24
Width: 931
Flags: W
HStem: 342 114<343.092 810.1>
LayerCount: 2
Fore
SplineSet
621 456 m 2
 644 456 l 2
 855 456 916 455 916 401 c 0
 916 354 810 349 532 342 c 2
 189 334 l 1
 205 385 l 2
 220 432 229 437 324 447 c 0
 374 452 502 456 621 456 c 2
EndSplineSet
EndChar

StartChar: period
Encoding: 14 46 25
Width: 545
Flags: W
HStem: -93 105<189.5 303.909> 56 101<264.789 317.287>
VStem: 139 118<-17 46.7012> 330 103<29.8063 113>
LayerCount: 2
Fore
SplineSet
433 96 m 0
 433 13 319 -93 226 -93 c 0
 153 -93 139 -34 139 -0 c 0
 139 7 139 12 140 16 c 0
 152 71 272 157 288 157 c 0
 320 157 306 189 341 189 c 0
 358 189 362 181 362 171 c 0
 362 163 372 157 387 157 c 0
 417 157 433 130 433 96 c 0
269 12 m 0
 295 12 330 44 330 52 c 0
 330 55 326 56 318 56 c 0
 281 56 257 35 257 21 c 0
 257 15 262 12 269 12 c 0
EndSplineSet
EndChar

StartChar: slash
Encoding: 15 47 26
Width: 772
Flags: W
DStem2: 291 150 200 -88 0.565383 0.824829<-228.132 322.756>
LayerCount: 2
Fore
SplineSet
787 866 m 0
 805 866 821 855 821 836 c 0
 821 806 785 778 720 661 c 1
 663 562 403 216 399 197 c 0
 398 191 364 140 323 84 c 2
 200 -88 l 2
 163 -140 143 -159 125 -159 c 0
 108 -159 100 -154 100 -142 c 0
 100 -101 177 -22 291 150 c 1
 668 700 l 2
 734 795 730 866 787 866 c 0
EndSplineSet
EndChar

StartChar: zero
Encoding: 16 48 27
Width: 564
Flags: W
HStem: -4 61<196.541 301.291> 550 77<459.475 539.823>
VStem: 111 70<73.0046 199.091> 547 53<393.669 543.516>
LayerCount: 2
Fore
SplineSet
111 136 m 0
 111 210 285 424 295 473 c 0
 300 497 464 627 517 627 c 0
 547 627 600 585 600 493 c 0
 600 355 480 193 446 148 c 0
 381 61 327 20 257 2 c 0
 241 -2 227 -4 214 -4 c 0
 166 -4 136 24 121 85 c 0
 115 108 111 123 111 136 c 0
541 447 m 0
 545 465 547 481 547 495 c 0
 547 529 534 550 498 550 c 0
 481 550 460 544 441 533 c 0
 348 480 181 211 181 125 c 0
 181 86 206 57 244 57 c 0
 273 57 295 68 344 107 c 0
 378 134 406 163 408 171 c 0
 414 199 509 298 541 447 c 0
EndSplineSet
EndChar

StartChar: one
Encoding: 17 49 28
Width: 352
Flags: W
HStem: 503 128<310.5 378.293>
VStem: 323 67<433.127 603.102>
LayerCount: 2
Fore
SplineSet
247 45 m 0
 247 130 323 430 323 495 c 0
 323 501 322 503 321 503 c 0
 300 503 204 370 165 370 c 0
 157 370 147 376 147 388 c 0
 147 414 175 428 218 472 c 2
 261 516 l 2
 289 545 345 631 374 631 c 0
 385 631 390 618 390 592 c 0
 390 528 303 46 287 19 c 0
 280 8 272 2 265 2 c 0
 250 2 247 34 247 45 c 0
EndSplineSet
EndChar

StartChar: two
Encoding: 18 50 29
Width: 772
Flags: W
HStem: 546 60<390.964 551.668>
VStem: 555 59<438.376 539.041>
LayerCount: 2
Fore
SplineSet
504 606 m 0
 554 606 614 591 614 533 c 0
 614 493 590 409 545 333 c 0
 504 264 366 100 319 63 c 0
 311 56 306 52 305 49 c 0
 305 48 306 48 309 48 c 0
 319 48 488 84 623 84 c 0
 686 84 699 78 699 64 c 0
 699 11 644 46 469 13 c 0
 344 -11 269 -10 248 -27 c 0
 241 -32 233 -34 225 -34 c 0
 206 -34 187 -23 187 -8 c 0
 187 14 279 98 310 121 c 0
 364 160 555 413 555 508 c 0
 555 538 532 546 483 546 c 0
 409 546 334 512 243 436 c 0
 199 399 160 370 157 370 c 0
 156 370 156 373 156 377 c 0
 156 383 157 393 159 404 c 0
 165 430 174 443 195 453 c 0
 211 460 226 472 228 480 c 0
 232 498 282 524 328 554 c 0
 350 568 422 606 504 606 c 0
EndSplineSet
EndChar

StartChar: three
Encoding: 19 51 30
Width: 568
Flags: W
HStem: -10 56<224.251 337.934> 303 52<271.463 325.341>
VStem: 160 64<48.1524 130.479> 495 72<212.203 341.526>
LayerCount: 2
Fore
SplineSet
205 508 m 0
 205 511 207 515 207 519 c 0
 207 526 204 531 198 531 c 0
 192 531 188 535 189 541 c 0
 194 565 524 615 547 620 c 1
 576 625 591 629 596 629 c 0
 608 629 620 608 620 592 c 0
 620 565 446 428 446 416 c 0
 446 413 461 410 478 410 c 0
 514 410 567 354 567 298 c 0
 567 261 540 176 487 114 c 0
 423 38 312 -10 238 -10 c 0
 177 -10 160 18 160 62 c 0
 160 91 171 134 190 134 c 0
 210 134 226 110 226 84 c 0
 226 72 224 70 224 61 c 0
 224 48 233 46 266 46 c 0
 320 46 396 83 442 132 c 0
 491 185 495 280 495 293 c 0
 495 332 479 348 442 348 c 0
 357 348 334 303 298 303 c 0
 281 303 271 313 271 328 c 0
 271 335 275 355 288 355 c 0
 296 355 318 369 336 385 c 0
 442 483 485 527 487 537 c 0
 487 539 487 539 482 539 c 0
 434 539 224 500 216 500 c 0
 208 500 205 503 205 508 c 0
EndSplineSet
EndChar

StartChar: four
Encoding: 20 52 31
Width: 564
Flags: W
HStem: -17 21G<343 355> 180 59<123.399 271.454> 266 61<471.064 570.422>
VStem: 328 57<-12.5078 194.346>
LayerCount: 2
Fore
SplineSet
328 45 m 0
 328 107 341 161 341 196 c 0
 341 210 338 214 332 214 c 0
 322 214 186 180 136 180 c 0
 114 180 104 186 104 197 c 0
 104 214 126 243 160 282 c 0
 286 425 440 583 455 584 c 1
 478 584 480 612 500 612 c 0
 513 612 520 601 520 591 c 0
 520 581 507 559 489 544 c 1
 462 519 458 511 438 417 c 0
 426 360 421 330 421 315 c 0
 421 298 427 298 434 298 c 0
 455 298 510 317 519 323 c 0
 523 326 528 327 534 327 c 0
 551 327 573 316 573 298 c 0
 573 285 559 268 534 266 c 0
 519 264 483 256 456 248 c 2
 408 233 l 1
 394 149 l 2
 387 110 385 84 385 65 c 0
 385 38 389 27 389 18 c 0
 389 0 360 -17 350 -17 c 0
 336 -17 328 4 328 45 c 0
275 253 m 0
 351 269 359 271 366 305 c 0
 370 324 374 356 377 385 c 2
 384 452 l 1
 331 401 l 2
 283 354 197 253 194 240 c 0
 194 239 194 239 195 239 c 0
 200 239 235 245 275 253 c 0
EndSplineSet
EndChar

StartChar: five
Encoding: 21 53 32
Width: 497
Flags: W
HStem: -12 58<139.665 291.938> 368 51<322.334 412.183>
VStem: 86 25<86.4819 135.019> 188 73<361.422 449.435> 416 57<208.275 366.701>
LayerCount: 2
Fore
SplineSet
86 95 m 0
 86 119 97 136 100 136 c 0
 103 136 106 129 111 113 c 0
 127 63 159 46 228 46 c 0
 290 46 323 70 367 147 c 0
 384 177 416 248 416 315 c 0
 416 348 407 368 389 368 c 0
 361 368 286 333 252 301 c 0
 231 282 220 273 211 273 c 0
 204 273 198 279 191 288 c 0
 189 291 188 297 188 307 c 0
 188 361 227 559 249 572 c 1
 272 584 454 581 518 595 c 0
 540 600 557 602 568 602 c 0
 585 602 589 596 589 590 c 0
 589 564 421 526 357 526 c 2
 341 526 l 2
 291 526 261 501 261 464 c 0
 261 457 262 451 262 443 c 0
 262 418 256 403 251 390 c 2
 238 359 l 1
 277 380 l 2
 322 405 371 419 405 419 c 0
 417 419 428 418 435 414 c 0
 459 403 473 363 473 314 c 0
 473 274 466 243 450 202 c 0
 390 53 308 -12 180 -12 c 0
 137 -12 131 -8 110 27 c 0
 94 53 86 75 86 95 c 0
EndSplineSet
EndChar

StartChar: six
Encoding: 22 54 33
Width: 443
Flags: W
HStem: -7 53<157.03 237.331> 262 50<255.332 356.92>
VStem: 87 62<50.3281 187.21> 284 69<545.192 602.191> 371 55<161.004 246.388>
LayerCount: 2
Fore
SplineSet
218 272 m 0
 236 272 275 312 314 312 c 0
 349 312 398 288 415 264 c 0
 422 253 426 237 426 221 c 0
 426 166 399 150 371 108 c 0
 353 80 265 14 232 2 c 0
 217 -3 189 -7 169 -7 c 0
 119 -7 87 41 87 106 c 0
 87 120 89 135 92 151 c 0
 108 228 284 566 284 566 c 2
 295 590 312 619 336 619 c 0
 347 619 356 612 353 600 c 0
 341 543 222 344 210 288 c 0
 207 276 211 272 218 272 c 0
371 216 m 0
 371 246 317 262 306 262 c 0
 279 261 227 237 190 207 c 0
 172 192 149 178 149 108 c 0
 149 57 173 46 181 46 c 0
 194 46 217 57 275 87 c 0
 301 100 371 170 371 216 c 0
EndSplineSet
EndChar

StartChar: seven
Encoding: 23 55 34
Width: 439
Flags: W
HStem: 555 69<332.734 488.633>
VStem: 188 49<361.048 488.469>
LayerCount: 2
Fore
SplineSet
209 360 m 0
 194 360 188 365 188 380 c 0
 188 396 195 425 205 473 c 2
 228 583 l 1
 397 614 l 2
 429 620 453 624 471 624 c 0
 496 624 508 615 508 593 c 0
 508 529 386 263 288 25 c 0
 276 -3 270 -8 250 -8 c 0
 236 -8 230 -7 230 2 c 0
 230 34 301 195 314 225 c 0
 351 308 428 519 435 550 c 0
 436 556 436 555 413 555 c 0
 397 555 375 555 350 553 c 2
 267 547 l 1
 260 496 l 2
 256 465 245 425 237 402 c 0
 226 369 221 360 209 360 c 0
EndSplineSet
EndChar

StartChar: eight
Encoding: 24 56 35
Width: 500
Flags: W
HStem: -22 57<238.553 321.944> 232 99<265.102 303.588> 567 45<345.389 455.827>
VStem: 136 65<76.744 175.677> 181 53<368.16 478.852> 222 122<239.445 320.292> 347 53<60.2524 176.463> 499 46<462.068 525.903>
LayerCount: 2
Fore
SplineSet
181 413 m 0xeb
 181 503 272 590 325 590 c 0
 362 590 337 612 416 612 c 0
 522 612 545 538 545 502 c 0
 545 427 344 334 344 286 c 0
 344 254 400 203 400 127 c 0
 400 32 313 -22 270 -22 c 0
 202 -22 136 105 136 130 c 0
 136 160 222 253 222 287 c 0xf7
 222 320 181 353 181 413 c 0xeb
499 489 m 0
 499 514 444 567 405 567 c 0
 385 567 391 565 321 535 c 0
 264 510 234 451 234 430 c 0xeb
 234 392 278 331 282 331 c 0
 294 331 415 433 464 455 c 0
 484 465 499 475 499 489 c 0
275 232 m 0
 256 232 201 177 201 134 c 0xf3
 201 87 250 35 280 35 c 0
 306 35 347 70 347 111 c 0
 347 136 334 165 308 204 c 0
 296 223 286 232 275 232 c 0
EndSplineSet
EndChar

StartChar: nine
Encoding: 25 57 36
Width: 462
Flags: W
HStem: 298 44<206.426 318.922> 559 57<365.207 450.661>
VStem: 151 53<344.972 438.974> 315 62<-14.7688 123.96> 451 63<481.493 557.736>
LayerCount: 2
Fore
SplineSet
315 5 m 0
 315 74 386 299 386 338 c 0
 386 346 384 350 379 350 c 0
 371 350 355 338 330 322 c 0
 300 302 283 298 239 298 c 0
 191 299 183 302 168 324 c 0
 157 341 151 359 151 377 c 0
 151 394 157 412 166 430 c 0
 208 513 273 563 380 600 c 0
 412 611 429 616 443 616 c 0
 451 616 514 612 514 554 c 0
 514 489 466 483 395 151 c 0
 379 74 376 50 376 38 c 0
 376 33 377 30 377 27 c 0
 377 10 361 -22 336 -22 c 0
 322 -22 315 -17 315 5 c 0
245 342 m 0
 292 342 420 396 446 519 c 0
 449 531 451 540 451 546 c 0
 451 558 442 559 415 559 c 0
 365 559 327 546 289 515 c 0
 240 474 204 415 204 377 c 0
 204 358 213 342 245 342 c 0
EndSplineSet
EndChar

StartChar: colon
Encoding: 26 58 37
Width: 401
Flags: W
VStem: 158 92<47.1373 110.043> 231 97<412.891 486.875>
LayerCount: 2
Fore
SplineSet
158 54 m 0x80
 158 113 212 135 224 135 c 0
 246 135 250 109 250 94 c 0
 250 69 238 68 221 33 c 0
 210 10 197 -2 185 -2 c 0
 166 -2 158 28 158 54 c 0x80
231 433 m 0x40
 231 462 267 519 291 519 c 0
 306 519 328 494 328 467 c 0
 328 465 326 413 308 413 c 0
 286 413 289 369 259 369 c 0
 245 369 241 376 235 404 c 0
 232 417 231 425 231 433 c 0x40
EndSplineSet
EndChar

StartChar: semicolon
Encoding: 27 59 38
Width: 367
Flags: W
VStem: 224 107<319.033 414.255>
LayerCount: 2
Fore
SplineSet
103 -81 m 0
 103 -60 216 115 229 126 c 0
 236 132 244 135 250 135 c 0
 264 135 264 121 263 117 c 0
 258 95 144 -89 130 -95 c 0
 127 -96 123 -97 120 -97 c 0
 111 -97 103 -91 103 -81 c 0
331 401 m 0
 331 370 311 295 281 295 c 0
 259 295 224 303 224 347 c 0
 224 354 225 361 227 370 c 0
 235 409 246 422 276 431 c 0
 293 436 302 438 309 438 c 0
 319 438 331 429 331 401 c 0
EndSplineSet
EndChar

StartChar: less
Encoding: 28 60 39
Width: 545
Flags: W
VStem: 143 83<267.322 349.353>
DStem2: 264 442 299 395 0.796905 0.604105<-104.121 354.484>
LayerCount: 2
Fore
SplineSet
385 -20 m 0
 379 -20 375 -16 372 -7 c 0
 370 1 344 26 315 50 c 0
 230 120 143 259 143 319 c 0
 143 330 140 349 264 442 c 2
 450 583 l 2
 506 626 538 646 555 646 c 0
 570 646 572 632 572 624 c 0
 572 596 527 578 428 496 c 1
 299 395 l 2
 276 377 226 334 226 319 c 0
 226 287 325 136 372 99 c 0
 402 75 434 38 434 21 c 0
 434 10 402 -20 385 -20 c 0
EndSplineSet
EndChar

StartChar: equal
Encoding: 29 61 40
Width: 515
Flags: W
HStem: 200 62<168.135 423.88> 338 68<193.219 418.286> 338 60<189.336 396.626>
LayerCount: 2
Fore
SplineSet
331 262 m 0x80
 428 262 451 258 451 244 c 0
 451 215 336 200 248 200 c 0
 170 200 154 202 154 215 c 0
 154 245 184 248 227 256 c 0
 245 260 288 262 331 262 c 0x80
218 338 m 0xc0
 194 338 189 341 189 365 c 0
 189 392 187 386 279 398 c 1xa0
 320 402 369 406 398 406 c 0
 437 406 449 403 449 391 c 0
 449 359 411 352 280 341 c 0
 251 339 231 338 218 338 c 0xc0
EndSplineSet
EndChar

StartChar: greater
Encoding: 30 62 41
Width: 594
Flags: W
VStem: 481 76<283.863 340.309>
LayerCount: 2
Fore
SplineSet
289 588 m 0
 296 588 336 554 356 532 c 0
 463 413 557 361 557 323 c 0
 557 300 505 249 403 143 c 0
 332 69 271 0 266 -9 c 0
 258 -23 234 -33 216 -33 c 0
 197 -33 189 -23 189 -15 c 0
 189 -1 238 51 251 55 c 0
 264 59 287 84 429 244 c 0
 452 270 481 308 481 313 c 0
 481 321 442 361 394 401 c 0
 291 488 245 537 245 562 c 0
 245 581 284 588 289 588 c 0
EndSplineSet
EndChar

StartChar: question
Encoding: 31 63 42
Width: 632
Flags: W
HStem: -19 21G<282 308> 546 31<357.275 406.802> 648 45<416.717 444.042> 794 48<424.187 527.06>
VStem: 267 100<21.4642 79.2015> 287 45<599.004 718.871> 412 72<648.502 684.987> 563 43<618.195 756.871>
LayerCount: 2
Fore
SplineSet
267 8 m 0xfb
 267 55 294 100 311 100 c 0
 322 100 369 63 367 55 c 1
 367 55 328 -19 288 -19 c 0
 276 -19 267 -12 267 8 c 0xfb
486 794 m 0
 440 794 332 721 332 679 c 0
 332 652 353 577 375 577 c 0
 407 577 442 630 444 639 c 0
 445 646 440 648 427 648 c 0
 415 648 411 654 412 661 c 0
 416 680 446 693 458 693 c 0
 470 693 484 681 484 656 c 0
 484 618 448 546 383 546 c 0
 338 546 287 602 287 664 c 0xf7
 287 755 427 842 494 842 c 0
 561 842 606 771 606 695 c 0
 606 615 555 546 458 448 c 2
 413 402 l 1
 399 327 l 2
 393 295 383 231 359 231 c 0
 347 231 341 239 341 259 c 0
 341 276 345 302 353 338 c 0
 369 413 379 444 443 493 c 1
 511 543 563 633 563 699 c 0
 563 759 507 794 486 794 c 0
EndSplineSet
EndChar

StartChar: at
Encoding: 32 64 43
Width: 704
Flags: W
HStem: -21 48<258.12 434.025> 173 40<273.5 350.137> 182 46<485.591 535.213> 255 9<386 426> 438 46<396.429 465.229> 593 37<442.658 575.16>
VStem: 125 57<89.9381 311.068> 240 50<224.908 324.249> 429 56<228.125 254.996> 487 33<360 411.543>
LayerCount: 2
Fore
SplineSet
609 251 m 0x9fc0
 609 241 638 249 638 227 c 0
 638 197 545 30 432 -13 c 0
 417 -18 374 -21 333 -21 c 0
 303 -21 273 -20 256 -16 c 0
 219 -9 146 47 145 69 c 0
 144 81 140 90 136 90 c 0
 129 90 125 113 125 145 c 0
 125 184 130 236 140 282 c 0
 164 393 192 447 268 523 c 0
 323 577 352 593 438 616 c 0
 471 625 516 630 553 630 c 0
 580 630 601 627 611 622 c 0
 640 605 688 543 688 487 c 0
 688 469 684 447 679 422 c 0
 653 296 609 265 609 251 c 0x9fc0
520 379 m 0
 520 341 485 310 485 254 c 0
 485 238 490 228 499 228 c 0
 512 228 564 270 567 283 c 0
 568 288 575 292 581 292 c 0
 597 292 635 392 635 439 c 0
 635 539 632 538 588 567 c 0
 562 584 541 593 516 593 c 0
 487 593 453 580 394 554 c 0
 324 522 304 505 253 430 c 0
 218 379 212 362 196 288 c 0
 187 244 182 216 182 189 c 0
 182 167 185 145 190 116 c 0
 195 87 245 27 370 27 c 0
 394 27 407 32 439 50 c 0
 479 72 496 88 533 142 c 0
 535 144 580 211 580 215 c 0
 580 216 579 215 579 215 c 2
 573 215 536 182 490 182 c 0xbfc0
 461 182 452 187 440 208 c 1
 434 222 429 236 429 243 c 0
 429 249 431 255 426 255 c 0
 408 255 362 173 290 173 c 0xdfc0
 257 173 240 203 240 243 c 0
 240 274 251 311 271 340 c 0
 302 387 413 484 435 484 c 0
 467 484 520 428 520 379 c 0
344 213 m 0xdfc0
 374 213 371 264 386 264 c 0
 392 264 399 276 402 292 c 0
 409 326 422 333 440 367 c 0
 445 376 456 383 466 383 c 0
 478 383 487 385 487 391 c 0
 487 404 440 438 422 438 c 0
 401 438 338 386 334 365 c 0
 328 337 306 347 292 281 c 0
 291 275 290 270 290 265 c 0
 290 221 338 213 344 213 c 0xdfc0
EndSplineSet
EndChar

StartChar: A
Encoding: 33 65 44
Width: 738
Flags: W
VStem: 594 66<103.129 322 381.356 636.875> 595 73<64.2168 277.087>
DStem2: 235 229 153 23 0.5818 0.813332<-217.866 5.80804 96.497 121.632> 390 360 420 303 0.994749 0.10234<0 196.699>
LayerCount: 2
Fore
SplineSet
668 101 m 0x40
 668 62 660 52 647 52 c 0
 640 52 630 56 618 63 c 0
 598 76 595 88 595 130 c 0
 595 146 596 166 596 192 c 0
 596 207 595 224 595 243 c 2x40
 592 322 l 1
 542 316 l 2
 514 312 460 306 420 303 c 2
 349 297 l 1
 308 242 l 2
 235 145 182 69 153 23 c 0
 129 -15 111 -31 92 -31 c 0
 83 -31 66 -27 66 -11 c 0
 66 19 122 54 128 84 c 0
 130 95 138 105 147 108 c 0
 170 116 199 195 235 229 c 0
 258 250 277 280 378 449 c 0
 442 555 579 752 599 764 c 0
 607 768 612 771 617 771 c 0
 622 771 627 768 635 762 c 0
 646 754 660 620 660 549 c 0
 660 508 656 522 656 481 c 0
 656 446 660 400 660 351 c 0x80
 660 309 658 308 658 280 c 0
 658 218 668 146 668 101 c 0x40
589 406 m 0
 592 419 594 473 594 526 c 0x80
 594 584 591 640 583 640 c 0
 572 640 464 487 408 391 c 2
 390 360 l 1
 470 366 l 2
 563 373 583 376 589 406 c 0
EndSplineSet
EndChar

StartChar: B
Encoding: 34 66 45
Width: 655
Flags: W
HStem: 12 55<334.113 446.77> 24 44<301.288 384.026> 412 12<360 512> 731 56<389.131 612.488>
VStem: 229 66<33.7763 234.747> 587 57<244.036 394.238> 619 58<656.423 723.156>
LayerCount: 2
Fore
SplineSet
644 360 m 0x7c
 644 176 473 12 385 12 c 0xbc
 364 12 357 24 333 24 c 0
 308 24 279 7 257 7 c 0
 237 7 229 25 229 58 c 0
 229 124 259 251 272 413 c 1
 277 458 285 537 292 587 c 2
 304 677 l 1
 265 677 l 2
 236 677 220 685 220 696 c 0
 220 711 247 736 389 771 c 0
 426 780 501 787 574 787 c 0
 636 787 646 783 662 761 c 0
 671 748 677 729 677 718 c 0x7a
 677 645 529 499 526 485 c 0
 525 480 530 479 539 479 c 0
 566 479 627 436 637 410 c 0
 642 397 644 380 644 360 c 0x7c
609 715 m 0
 601 726 574 731 539 731 c 0
 519 731 497 730 472 726 c 0
 381 711 377 714 368 672 c 2
 364 652 l 2
 352 595 342 497 342 458 c 0
 342 430 347 424 360 424 c 0
 389 424 531 556 579 628 c 0
 610 675 619 686 619 696 c 0x3a
 619 702 615 707 609 715 c 0
581 281 m 0
 585 299 587 316 587 332 c 0
 587 377 569 412 512 412 c 0
 456 412 398 380 350 364 c 0
 325 355 326 335 308 230 c 0
 300 180 295 145 295 121 c 0
 295 74 315 70 369 68 c 0x7c
 378 68 386 67 393 67 c 0xbc
 428 67 437 75 488 123 c 0
 537 169 563 194 581 281 c 0
EndSplineSet
EndChar

StartChar: C
Encoding: 35 67 46
Width: 727
Flags: W
HStem: 10 70<285.099 420.373> 749 61<547.753 671.467>
VStem: 165 69<136.816 307.576> 672 54<704.777 747.129>
LayerCount: 2
Fore
SplineSet
234 220 m 0
 234 139 284 80 346 80 c 0
 380 80 467 118 499 145 c 2
 561 196 l 2
 632 254 686 336 711 336 c 0
 716 336 718 331 718 323 c 0
 718 319 717 314 716 307 c 0
 708 269 503 10 329 10 c 0
 199 10 165 160 165 174 c 0
 165 241 232 515 264 579 c 0
 326 707 511 810 622 810 c 0
 678 810 726 771 726 727 c 0
 726 713 722 702 707 702 c 0
 693 702 677 712 672 727 c 1
 668 743 662 749 645 749 c 0
 576 749 447 693 383 636 c 0
 334 593 290 515 244 298 c 0
 237 264 234 240 234 220 c 0
EndSplineSet
EndChar

StartChar: D
Encoding: 36 68 47
Width: 855
Flags: W
HStem: 631 94<219.943 259.451> 711 81<446.775 680.319>
VStem: 828 71<470.956 627.901>
LayerCount: 2
Fore
SplineSet
249 725 m 0xa0
 257 725 272 736 284 749 c 0
 299 766 331 776 389 782 c 0
 453 788 495 792 529 792 c 0x60
 565 792 592 788 630 781 c 0
 817 747 899 695 899 583 c 0
 899 563 896 540 891 516 c 0
 828 221 573 36 415 0 c 0
 336 -18 370 -76 312 -76 c 0
 296 -76 283 -71 283 -65 c 2
 283 -64 l 1
 288 -44 244 -51 244 -16 c 0
 244 -7 248 21 271 29 c 0
 285 34 298 66 308 114 c 0
 328 210 320 261 351 518 c 2
 372 691 l 1
 335 688 l 2
 280 683 243 631 225 631 c 0
 217 631 201 651 201 667 c 0
 201 685 233 725 249 725 c 0xa0
439 668 m 0
 420 580 423 246 379 127 c 2
 360 76 l 1
 414 76 l 2
 476 76 547 115 643 202 c 0
 754 303 793 395 821 525 c 0
 826 547 828 563 828 575 c 0
 828 596 821 608 807 629 c 1
 783 662 758 674 673 691 c 0
 656 694 568 711 496 711 c 0
 462 711 448 709 439 668 c 0
EndSplineSet
EndChar

StartChar: E
Encoding: 37 69 48
Width: 579
Flags: W
HStem: -11 75<180.622 341.299> 733 60<444.717 633.805>
DStem2: 182 513 244 451 0.137166 0.990548<-445.305 -196.917 -120.617 110.001>
LayerCount: 2
Fore
SplineSet
194 -11 m 0
 118 -11 118 9 118 34 c 0
 118 106 157 300 182 513 c 0
 188 565 193 599 198 623 c 0
 212 689 247 707 255 707 c 0
 292 707 384 793 563 793 c 0
 614 793 647 784 647 767 c 0
 647 760 636 748 545 733 c 0
 436 716 326 679 287 648 c 0
 257 624 265 609 244 451 c 0
 239 417 237 396 237 383 c 0
 237 372 239 368 243 368 c 0
 245 368 248 369 251 371 c 0
 277 385 467 427 500 427 c 0
 520 427 525 417 525 408 c 0
 525 377 476 362 339 330 c 0
 234 306 223 301 217 275 c 2
 193 150 l 1
 178 64 l 1
 229 64 l 2
 289 64 403 93 472 126 c 0
 497 138 508 143 517 143 c 0
 529 143 540 126 540 113 c 0
 540 63 329 -11 194 -11 c 0
EndSplineSet
EndChar

StartChar: F
Encoding: 38 70 49
Width: 602
Flags: W
HStem: 356 78<334.933 470.549> 687 102<509.851 554.671>
DStem2: 240 544 318 586 0.208343 0.978056<-105.068 139.115>
LayerCount: 2
Fore
SplineSet
477 765 m 0
 551 765 528 789 629 789 c 0
 677 789 699 785 699 765 c 0
 699 725 647 728 440 687 c 2
 335 666 l 1
 318 586 l 2
 309 542 299 487 298 463 c 2
 296 419 l 1
 362 426 l 2
 406 431 447 434 480 434 c 0
 512 434 554 432 554 420 c 0
 554 407 505 379 376 356 c 2
 288 341 l 1
 263 182 l 2
 240 35 228 10 204 10 c 0
 199 10 192 11 185 14 c 1
 174 17 169 22 169 37 c 0
 169 49 173 67 179 96 c 0
 205 219 188 300 240 544 c 2
 276 713 l 1
 354 739 l 2
 397 753 452 765 477 765 c 0
EndSplineSet
EndChar

StartChar: G
Encoding: 39 71 50
Width: 700
Flags: W
HStem: -6 75<201.844 327.323> 344 107<406.919 489.158> 365 94<441.84 547.745> 693 68<600.438 682.647>
VStem: 123 70<77.4304 265.702> 551 112<277.924 362.885>
LayerCount: 2
Fore
SplineSet
747 710 m 0xbc
 747 695 715 646 696 646 c 0
 672 646 695 693 666 693 c 0
 623 693 457 647 291 422 c 0
 235 345 227 328 208 238 c 0
 198 193 193 158 193 133 c 0
 193 85 212 69 253 69 c 0
 319 69 380 97 436 155 c 0
 487 209 551 297 551 332 c 0
 551 351 536 365 521 365 c 0xbc
 498 365 503 344 451 344 c 0
 423 344 367 352 367 387 c 0
 367 434 435 428 453 451 c 0xdc
 457 456 472 459 490 459 c 0
 540 459 623 441 643 421 c 0
 657 407 663 374 663 329 c 0
 663 262 650 170 630 77 c 0
 622 40 612 -8 576 -8 c 0
 570 -8 549 -5 549 30 c 0
 549 50 554 81 565 132 c 2
 589 246 l 1
 546 193 l 2
 443 66 325 -6 236 -6 c 0
 211 -6 187 0 167 13 c 0
 143 28 123 42 123 146 c 0
 123 190 136 241 152 289 c 0
 188 396 212 435 307 541 c 0
 453 706 575 709 602 744 c 0
 612 756 633 761 657 761 c 0
 716 761 747 732 747 710 c 0xbc
EndSplineSet
EndChar

StartChar: H
Encoding: 40 72 51
Width: 666
Flags: W
VStem: 125 91<32.308 181.394> 637 84<563.41 679.334>
LayerCount: 2
Fore
SplineSet
152 -60 m 0
 141 -60 125 -49 125 -3 c 0
 125 101 235 753 266 801 c 0
 278 821 296 837 305 837 c 0
 310 837 312 826 312 809 c 0
 312 733 273 524 273 448 c 0
 273 431 275 420 280 420 c 0
 287 420 314 437 509 494 c 0
 548 506 588 521 596 528 c 0
 605 535 623 575 637 617 c 0
 667 713 681 738 704 738 c 0
 715 738 721 729 721 703 c 0
 721 661 706 575 672 407 c 0
 606 71 617 96 612 71 c 0
 605 39 574 37 570 37 c 0
 554 37 546 50 546 84 c 0
 546 167 599 379 599 448 c 0
 599 453 598 456 597 456 c 0
 577 456 489 409 340 356 c 2
 249 324 l 1
 216 143 l 2
 196 28 178 -60 152 -60 c 0
EndSplineSet
EndChar

StartChar: I
Encoding: 41 73 52
Width: 587
Flags: W
HStem: -18 73<145.44 270.266> 696 84<508 613.876>
DStem2: 359 288 473 522 0.180059 0.983656<15.3456 410.278>
LayerCount: 2
Fore
SplineSet
134 23 m 0
 134 54 159 55 180 55 c 0
 201 55 243 65 274 78 c 2
 328 101 l 1
 359 288 l 2
 376 392 400 524 413 584 c 2
 436 691 l 1
 405 683 l 2
 368 673 334 669 307 669 c 0
 275 669 254 675 254 688 c 0
 254 720 406 752 466 775 c 0
 476 779 503 780 532 780 c 0
 569 780 608 777 618 773 c 0
 626 770 632 758 632 747 c 0
 632 716 600 707 539 700 c 2
 508 696 l 1
 473 522 l 2
 463 472 411 206 411 135 c 0
 411 124 412 117 415 117 c 0
 419 117 433 132 456 132 c 0
 474 132 489 123 489 107 c 0
 489 66 401 37 310 5 c 0
 265 -11 241 -18 219 -18 c 0
 216 -18 134 -10 134 23 c 0
EndSplineSet
EndChar

StartChar: J
Encoding: 42 74 53
Width: 689
Flags: W
HStem: -53 78<283.798 340.948>
VStem: 152 85<132.998 292.76>
DStem2: 491 494 564 527 0.203216 0.979134<-179.244 121.07>
LayerCount: 2
Fore
SplineSet
249 287 m 0
 249 257 237 227 237 187 c 0
 237 160 243 137 255 107 c 0
 280 49 293 25 309 25 c 0
 317 25 326 30 336 40 c 0
 371 74 452 310 491 494 c 2
 502 547 l 2
 508 577 512 599 512 614 c 0
 512 635 504 644 483 644 c 0
 437 644 275 594 229 594 c 0
 215 594 210 597 207 604 c 0
 203 615 201 624 203 632 c 0
 210 663 273 680 510 734 c 1
 760 793 l 1
 766 793 798 772 798 756 c 0
 798 719 632 696 605 677 c 0
 599 673 585 628 573 571 c 2
 564 527 l 2
 536 394 465 159 430 83 c 1
 397 14 341 -53 314 -53 c 0
 281 -53 232 -24 232 -5 c 0
 232 -2 236 15 222 25 c 0
 206 37 152 171 152 243 c 0
 152 287 177 315 214 315 c 0
 240 315 249 308 249 287 c 0
EndSplineSet
EndChar

StartChar: K
Encoding: 43 75 54
Width: 779
Flags: W
HStem: 7 105<648.185 690.736> 675 76<663.712 736.569>
VStem: 251 74<643.861 817.486>
LayerCount: 2
Fore
SplineSet
295 831 m 0
 304 831 325 824 325 791 c 0
 325 720 289 593 284 507 c 2
 281 451 l 1
 401 556 l 2
 467 613 530 661 538 661 c 0
 562 661 602 713 626 713 c 0
 653 713 673 751 709 751 c 0
 728 751 743 739 743 719 c 0
 743 692 727 685 690 675 c 0
 619 656 290 379 290 345 c 0
 290 341 299 333 438 249 c 0
 626 135 631 112 655 112 c 0
 678 112 736 50 736 28 c 0
 736 22 730 7 721 7 c 0
 695 7 584 51 548 75 c 0
 471 127 268 243 255 243 c 0
 217 243 241 -66 172 -66 c 0
 144 -66 134 -52 134 -10 c 0
 134 93 209 544 251 740 c 0
 264 802 269 831 295 831 c 0
EndSplineSet
EndChar

StartChar: L
Encoding: 44 76 55
Width: 708
Flags: W
HStem: -10 77<181.5 373.291>
VStem: 141 77<20 219.664>
LayerCount: 2
Fore
SplineSet
307 745 m 0
 307 643 218 185 218 103 c 0
 218 68 228 67 248 67 c 0
 308 67 640 153 650 153 c 0
 674 153 680 130 680 121 c 0
 680 116 679 111 656 94 c 0
 610 62 331 -10 202 -10 c 0
 161 -10 141 -8 141 48 c 0
 141 143 245 697 257 752 c 0
 260 764 261 788 279 788 c 0
 296 788 307 759 307 745 c 0
EndSplineSet
EndChar

StartChar: M
Encoding: 45 77 56
Width: 727
Flags: W
HStem: 320 83<342.5 414.484> 664 139<688 761.843>
VStem: 79 129<-18 66> 592 81<-5.88281 175.717> 692 89<589.89 769.748>
LayerCount: 2
Fore
SplineSet
673 38 m 0
 673 17 666 -12 636 -12 c 0
 617 -12 592 3 592 29 c 0
 592 92 692 594 692 657 c 0
 692 661 692 664 691 664 c 0
 685 664 663 635 638 597 c 0
 589 522 580 510 506 416 c 0
 467 366 391 320 348 320 c 0
 337 320 314 358 296 407 c 2
 263 494 l 1
 208 236 l 2
 153 -18 134 -71 97 -71 c 0
 86 -71 79 -63 79 -34 c 0
 79 66 227 765 251 789 c 0
 261 800 279 808 292 808 c 0
 309 808 317 779 324 687 c 0
 334 540 367 403 390 403 c 0
 413 403 522 539 660 741 c 0
 686 779 722 803 748 803 c 0
 769 803 781 785 781 747 c 0
 781 630 672 212 672 71 c 0
 672 54 673 47 673 38 c 0
EndSplineSet
EndChar

StartChar: N
Encoding: 46 78 57
Width: 829
Flags: W
HStem: -21 91<614.802 681.443>
VStem: 104 112<107.895 198.179>
LayerCount: 2
Fore
SplineSet
237 314 m 0
 218 225 223 211 216 177 c 0
 202 110 164 33 142 33 c 0
 117 34 104 36 104 70 c 0
 104 154 253 741 264 761 c 0
 273 778 292 786 310 786 c 0
 321 786 332 782 342 775 c 0
 357 764 437 601 437 583 c 0
 437 559 481 489 544 275 c 0
 561 216 607 70 637 70 c 0
 648 70 663 76 733 329 c 0
 829 675 839 714 894 714 c 0
 909 714 917 707 917 688 c 0
 917 636 885 579 781 222 c 0
 724 24 706 -21 655 -21 c 0
 565 -21 517 51 476 195 c 0
 428 363 422 338 420 391 c 0
 419 443 345 582 333 622 c 0
 332 624 332 624 331 624 c 0
 318 624 264 443 237 314 c 0
EndSplineSet
EndChar

StartChar: O
Encoding: 47 79 58
Width: 655
Flags: W
HStem: -26 68<255.83 392.814> 650 97<549.293 627.286>
VStem: 119 76<126.832 349.145> 658 62<441.808 607.037>
LayerCount: 2
Fore
SplineSet
720 578 m 0
 720 334 496 14 431 14 c 0
 422 14 412 7 407 -2 c 0
 400 -14 331 -26 273 -26 c 0
 236 -26 222 -19 195 7 c 0
 150 50 119 145 119 236 c 0
 119 393 237 562 339 624 c 0
 377 647 417 666 428 666 c 0
 456 666 492 720 525 720 c 0
 565 720 552 747 599 747 c 0
 676 747 720 684 720 578 c 0
563 265 m 0
 600 371 658 464 658 508 c 0
 658 556 629 636 620 642 c 0
 612 648 601 650 584 650 c 0
 557 650 517 643 465 627 c 0
 359 596 275 507 225 374 c 0
 205 322 195 297 195 260 c 0
 195 242 197 222 201 193 c 0
 216 92 253 42 316 42 c 0
 333 42 352 46 374 54 c 0
 425 72 540 200 563 265 c 0
EndSplineSet
EndChar

StartChar: P
Encoding: 48 80 59
Width: 651
Flags: W
HStem: 333 76<311.009 436.369> 732 80<403.779 628.934>
VStem: 676 70<612.433 749>
LayerCount: 2
Fore
SplineSet
746 709 m 0
 746 647 695 527 675 527 c 0
 667 527 660 519 658 508 c 0
 651 477 522 378 474 368 c 1
 403 349 437 333 355 333 c 2
 296 333 l 1
 268 153 l 2
 249 28 233 -31 218 -48 c 0
 205 -62 193 -68 185 -68 c 0
 173 -68 166 -57 166 -33 c 0
 166 21 227 451 250 558 c 2
 272 665 l 1
 238 644 l 2
 223 635 209 630 200 630 c 0
 194 630 185 637 185 649 c 0
 185 668 208 696 262 742 c 0
 312 785 331 798 355 798 c 0
 369 798 372 795 398 795 c 0
 461 795 496 812 557 812 c 0
 564 812 569 812 574 811 c 0
 677 797 746 789 746 709 c 0
311 434 m 0
 311 411 312 409 335 409 c 0
 377 409 468 431 518 456 c 0
 547 471 573 494 578 510 c 0
 596 562 676 600 676 655 c 0
 676 685 651 708 600 720 c 0
 567 728 550 732 530 732 c 0
 509 732 484 727 434 717 c 0
 360 703 350 694 334 617 c 0
 321 558 311 473 311 434 c 0
EndSplineSet
EndChar

StartChar: Q
Encoding: 49 81 60
Width: 761
Flags: W
HStem: -55 78<222.146 378.154> -18 21G<712.5 727> 661 98<508 717>
VStem: 99 76<79.2555 309.047> 707 62<493.085 641>
DStem2: 609 177 551 106 0.763685 -0.645589<1.54311 156.094>
LayerCount: 2
Fore
SplineSet
738 -0 m 0xb8
 738 -9 734 -18 720 -18 c 0x78
 705 -18 665 5 648 24 c 0
 641 31 617 51 593 71 c 2
 551 106 l 1
 524 74 l 2
 455 -9 360 -55 277 -55 c 0
 230 -55 186 -40 154 -8 c 0
 123 23 99 118 99 198 c 0
 99 304 170 460 232 547 c 0
 329 685 459 743 689 759 c 1
 745 759 769 665 769 617 c 0
 769 520 713 379 661 279 c 2
 609 177 l 1
 638 151 l 2
 696 98 738 32 738 -0 c 0xb8
556 237 m 0
 574 237 707 496 707 555 c 0
 707 580 696 597 678 620 c 0
 654 652 643 661 524 661 c 0
 492 661 465 659 458 657 c 0
 410 641 277 526 270 494 c 0
 267 482 258 465 249 457 c 0
 235 445 175 264 175 192 c 0
 175 176 177 159 180 138 c 0
 195 52 225 23 297 23 c 0xb8
 386 23 498 102 498 140 c 0
 498 158 460 209 404 260 c 0
 388 274 381 282 381 289 c 0
 381 298 407 324 421 324 c 0
 449 324 535 237 556 237 c 0
EndSplineSet
EndChar

StartChar: R
Encoding: 50 82 61
Width: 636
Flags: W
HStem: 57 105<529.508 572.146> 666 75<344 521.649>
VStem: 178 62<-19.7304 71.1818> 260 52<391.562 561.822> 617 61<576.328 649.547>
LayerCount: 2
Fore
SplineSet
188 615 m 0
 188 646 305 741 317 741 c 0
 368 741 596 712 627 701 c 0
 661 690 678 666 678 633 c 0
 678 530 531 430 527 413 c 0
 525 404 410 338 345 308 c 0
 339 305 304 288 304 283 c 0
 304 277 438 240 495 194 c 0
 517 176 539 162 544 162 c 0
 562 161 604 105 604 84 c 1
 604 84 602 57 581 57 c 0
 542 57 462 132 345 182 c 2
 273 213 l 1
 240 33 l 2
 233 0 230 -24 201 -24 c 0
 186 -24 178 -11 178 17 c 0
 178 68 200 128 200 188 c 0
 200 265 156 237 156 275 c 0
 156 290 169 306 193 316 c 2
 229 331 l 1
 246 445 l 2
 256 510 260 552 260 577 c 0
 260 598 257 607 250 607 c 0
 240 607 235 593 213 593 c 0
 199 593 188 601 188 615 c 0
617 620 m 0
 617 634 493 666 416 666 c 2
 344 666 l 1
 339 612 l 2
 335 564 312 396 312 368 c 0
 312 365 313 364 313 364 c 1
 332 364 452 423 490 452 c 0
 540 489 617 600 617 620 c 0
EndSplineSet
EndChar

StartChar: S
Encoding: 51 83 62
Width: 579
Flags: W
HStem: 681 54<411.42 584.204>
VStem: 118 53<74.237 152.02> 165 78<443.355 538.203> 487 68<154.257 256.528>
LayerCount: 2
Fore
SplineSet
118 102 m 0xd0
 118 165 149 215 199 215 c 0
 210 215 216 207 216 196 c 0
 216 154 171 152 171 116 c 0xd0
 171 111 171 107 173 101 c 0
 180 71 188 69 269 69 c 0
 338 69 365 76 403 99 c 0
 463 136 472 147 483 200 c 0
 485 210 487 217 487 224 c 0
 487 245 473 254 429 277 c 0
 394 295 357 309 347 309 c 0
 291 309 165 437 165 490 c 0
 165 536 265 665 389 718 c 0
 411 728 462 735 521 735 c 0
 577 735 596 729 622 703 c 0
 639 686 652 661 652 646 c 0
 652 636 647 618 639 618 c 0
 613 618 598 681 508 681 c 0
 369 681 243 544 243 481 c 0xb0
 243 433 353 388 423 364 c 0
 510 335 555 291 555 233 c 0
 555 201 543 173 533 154 c 0
 480 50 417 19 231 7 c 2
 140 1 l 1
 125 57 l 2
 120 73 118 87 118 102 c 0xd0
EndSplineSet
EndChar

StartChar: T
Encoding: 52 84 63
Width: 832
Flags: W
HStem: 689 78<723.023 946.351>
VStem: 490 63<-41.8624 177.936> 551 73<369.051 639.516>
LayerCount: 2
Fore
SplineSet
551 578 m 0xa0
 551 636 543 640 520 640 c 0
 496 640 412 620 353 620 c 0
 295 620 262 604 233 604 c 0
 203 604 180 615 180 632 c 0
 180 676 269 662 723 746 c 0
 800 760 842 767 871 767 c 0
 908 767 957 750 957 728 c 0
 957 705 908 689 854 689 c 0
 818 689 752 681 708 671 c 2
 627 653 l 1
 624 569 l 2xa0
 619 434 560 106 553 24 c 1
 549 -10 550 -46 514 -46 c 0
 498 -46 490 -30 490 12 c 0xc0
 490 132 551 408 551 578 c 0xa0
EndSplineSet
EndChar

StartChar: U
Encoding: 53 85 64
Width: 677
Flags: W
HStem: -11 70<266.32 382.467>
VStem: 176 80<68.0412 397.775> 236 69<542.661 726.825> 662 90<584.897 734.906> 674 78<491.788 727.766>
LayerCount: 2
Fore
SplineSet
662 722 m 0x90
 662 761 701 762 703 762 c 0
 748 762 732 649 750 620 c 0
 751 619 752 615 752 610 c 0
 752 593 746 557 738 519 c 0
 642 80 378 -11 316 -11 c 0
 277 -11 219 13 195 42 c 0
 181 59 176 101 176 157 c 0xd0
 176 316 219 584 236 663 c 0
 247 714 255 728 268 737 c 0
 278 744 286 748 292 748 c 0
 301 748 305 739 305 718 c 0xa0
 305 679 256 367 256 149 c 0
 256 118 258 97 261 90 c 0
 270 69 286 59 310 59 c 0
 334 59 366 70 407 93 c 0
 497 143 551 210 611 341 c 0
 642 407 674 486 674 582 c 0xc8
 674 644 662 693 662 722 c 0x90
EndSplineSet
EndChar

StartChar: V
Encoding: 54 86 65
Width: 742
Flags: W
HStem: 5 124<366 424.449>
VStem: 244 70<550.222 669.432>
LayerCount: 2
Fore
SplineSet
212 709 m 0
 212 745 250 770 265 770 c 0
 295 770 290 705 309 705 c 0
 319 705 314 682 314 676 c 0
 314 641 339 559 363 382 c 0
 383 228 403 129 414 129 c 0
 425 129 552 334 600 430 c 0
 663 557 785 757 814 757 c 0
 821 757 847 753 847 729 c 0
 847 687 743 538 648 362 c 0
 620 312 557 213 507 138 c 0
 434 30 411 5 388 5 c 0
 344 5 335 27 311 183 c 2
 266 464 l 2
 254 536 244 600 244 612 c 0
 244 645 212 669 212 709 c 0
EndSplineSet
EndChar

StartChar: W
Encoding: 55 87 66
Width: 878
Flags: W
HStem: -42 197<216 290> 35 158<653.54 708.41>
VStem: 203 69<155.046 558.348 606.71 654.396>
LayerCount: 2
Fore
SplineSet
272 422 m 0xa0
 272 360 271 324 271 299 c 0
 271 218 276 155 282 155 c 0xa0
 298 155 439 433 475 480 c 0
 490 501 509 511 527 511 c 0
 587 511 652 407 670 258 c 0
 673 233 681 193 690 193 c 0
 704 193 757 302 768 354 c 0
 775 389 940 794 953 794 c 0
 979 794 993 789 993 766 c 0
 993 731 955 643 934 591 c 2
 826 331 l 1
 737 114 734 134 724 85 c 0
 717 52 698 35 679 35 c 0x60
 629 35 637 125 617 125 c 0
 612 125 606 144 606 167 c 0
 606 230 569 360 542 392 c 2
 518 421 l 1
 473 346 l 2
 260 -9 277 -42 228 -42 c 0
 204 -42 198 -32 198 19 c 2
 198 93 l 2
 198 231 203 317 203 393 c 0
 203 450 200 468 200 487 c 0
 200 537 207 545 207 559 c 0
 207 578 194 574 194 606 c 0
 194 621 197 645 205 682 c 0
 212 714 219 724 231 724 c 0
 261 724 272 651 272 422 c 0xa0
EndSplineSet
EndChar

StartChar: X
Encoding: 56 88 67
Width: 761
Flags: W
DStem2: 538 374 481 297 0.601023 -0.799232<27.2826 312.66>
LayerCount: 2
Fore
SplineSet
163 -9 m 0
 163 34 422 329 422 367 c 0
 422 438 198 669 198 734 c 0
 198 747 212 760 223 760 c 0
 246 760 284 720 372 612 c 0
 440 529 497 461 498 461 c 0
 499 461 526 493 558 532 c 0
 625 614 746 721 772 721 c 0
 787 721 795 716 795 706 c 0
 795 685 763 647 711 602 c 0
 691 585 645 527 608 473 c 2
 538 374 l 1
 572 326 l 2
 634 239 739 145 739 93 c 0
 739 62 695 54 689 54 c 0
 666 54 644 81 575 172 c 2
 481 297 l 1
 438 246 l 2
 365 158 310 72 297 65 c 1
 274 46 238 -30 186 -30 c 0
 167 -30 163 -16 163 -9 c 0
EndSplineSet
EndChar

StartChar: Y
Encoding: 57 89 68
Width: 730
Flags: W
LayerCount: 2
Fore
SplineSet
223 715 m 0
 223 733 240 747 251 747 c 0
 273 747 310 704 428 553 c 0
 481 485 533 430 543 430 c 0
 582 430 621 506 738 657 c 0
 774 704 769 784 802 784 c 0
 806 784 845 769 845 747 c 0
 845 677 671 442 603 376 c 0
 547 322 560 329 430 122 c 2
 308 -72 l 2
 295 -93 279 -104 265 -104 c 0
 251 -104 236 -90 236 -72 c 0
 236 -49 268 4 407 210 c 2
 492 336 l 1
 363 504 l 2
 259 639 223 687 223 715 c 0
EndSplineSet
EndChar

StartChar: Z
Encoding: 58 90 69
Width: 932
Flags: W
HStem: -3 71<294.309 580.762> 33 74<571.627 806.04> 68 70<801.059 912.922> 559 21G<200 214.5> 641 71<472.692 727.114>
VStem: 232 113<23.5 114> 728 78<588.629 674>
LayerCount: 2
Fore
SplineSet
926 120 m 0x3e
 926 87 890 68 858 68 c 0x3e
 801 68 805 33 705 33 c 1x5e
 582 30 535 -3 378 -3 c 0
 260 -3 232 12 232 35 c 0
 232 60 265 82 270 105 c 0
 273 120 394 264 408 269 c 0
 414 272 419 279 421 288 c 0
 424 301 519 390 604 460 c 0
 637 487 728 594 728 625 c 0
 728 639 708 641 621 641 c 0
 462 641 462 616 322 593 c 0
 278 585 237 574 232 567 c 0
 227 561 219 559 210 559 c 0
 190 559 166 572 166 586 c 0
 166 625 476 712 691 712 c 0
 774 712 806 694 806 654 c 0
 806 589 705 473 671 444 c 0
 536 332 345 128 345 100 c 0
 345 80 390 68 447 68 c 0x9e
 561 68 575 101 715 107 c 1x5e
 832 110 776 119 869 135 c 0
 883 137 894 138 902 138 c 0
 915 138 926 135 926 120 c 0x3e
EndSplineSet
EndChar

StartChar: bracketleft
Encoding: 59 91 70
Width: 485
Flags: W
HStem: -65 60<226.605 365.887> 618 84<310 440>
VStem: 164 62<-31.5 149.493>
LayerCount: 2
Fore
SplineSet
297 594 m 0
 297 492 226 73 226 28 c 0
 226 1 234 -5 255 -5 c 0
 272 -5 307 0 342 0 c 0
 362 0 376 -1 376 -17 c 0
 376 -33 367 -42 365 -44 c 0
 353 -56 274 -65 221 -65 c 0
 195 -65 176 -63 172 -58 c 0
 167 -53 164 -41 164 -22 c 0
 164 61 210 268 237 503 c 0
 253 647 256 660 324 679 c 0
 381 695 418 702 440 702 c 0
 453 702 479 698 479 682 c 0
 479 652 448 648 414 644 c 0
 325 633 352 618 310 618 c 0
 297 618 291 615 295 611 c 0
 297 610 297 604 297 594 c 0
EndSplineSet
EndChar

StartChar: backslash
Encoding: 60 92 71
Width: 693
Flags: W
VStem: 190 64<595 668.487>
LayerCount: 2
Fore
SplineSet
190 644 m 0
 190 653 190 671 217 671 c 0
 235 671 254 661 254 646 c 1
 250 612 396 425 447 289 c 0
 456 263 469 236 475 229 c 0
 492 207 545 109 556 71 c 0
 570 25 588 4 588 -10 c 0
 588 -24 565 -37 552 -37 c 0
 534 -37 517 -18 505 19 c 0
 481 87 405 217 377 281 c 0
 323 406 224 524 221 554 c 0
 220 564 215 571 211 571 c 0
 202 571 190 617 190 644 c 0
EndSplineSet
EndChar

StartChar: bracketright
Encoding: 61 93 72
Width: 538
Flags: W
HStem: -32 49<191.088 300.333> 609 63<310.81 397.444> 627 45<310.658 430.171>
VStem: 432 55<428.139 639.5>
DStem2: 335 32 382 -9 0.222155 0.975011<0 326.377>
LayerCount: 2
Fore
SplineSet
432 591 m 0xb0
 432 620 417 627 399 627 c 0xb0
 366 627 320 609 301 609 c 0xd0
 285 609 282 623 283 626 c 0
 285 636 324 662 347 667 c 0
 363 670 391 672 417 672 c 0
 448 672 476 670 481 666 c 0
 485 663 487 650 487 629 c 0
 487 547 456 341 411 127 c 2
 382 -9 l 1
 357 -20 l 1
 338 -27 286 -32 243 -32 c 0
 183 -32 172 -27 172 -20 c 0
 172 -6 210 2 270 17 c 1
 335 32 l 1
 360 143 l 2
 363 157 367 173 371 190 c 0
 400 326 432 538 432 591 c 0xb0
EndSplineSet
EndChar

StartChar: asciicircum
Encoding: 62 94 73
Width: 447
Flags: W
HStem: 718 77<345.138 385.93>
LayerCount: 2
Fore
SplineSet
374 795 m 0
 393 795 497 660 497 620 c 0
 497 611 490 591 478 591 c 0
 443 591 388 718 360 718 c 0
 345 718 327 694 286 644 c 0
 242 589 230 579 212 579 c 0
 199 579 195 580 195 585 c 0
 195 592 215 629 227 640 c 0
 256 667 352 795 374 795 c 0
EndSplineSet
EndChar

StartChar: underscore
Encoding: 63 95 74
Width: 598
Flags: W
HStem: -22 36<44.4903 267.352>
LayerCount: 2
Fore
SplineSet
88 -22 m 0
 63 -22 44 -17 44 -0 c 0
 44 8 51 13 71 14 c 0
 89 14 402 43 412 51 c 0
 413 53 432 54 457 54 c 0
 535 54 547 50 547 41 c 0
 547 39 547 37 546 34 c 0
 539 3 534 24 286 -4 c 0
 184 -16 123 -22 88 -22 c 0
EndSplineSet
EndChar

StartChar: grave
Encoding: 64 96 75
Width: 420
Flags: W
HStem: 545 21G<347.5 366>
LayerCount: 2
Fore
SplineSet
379 568 m 0
 379 560 371 545 361 545 c 0
 334 545 255 655 255 672 c 0
 255 682 279 697 285 697 c 0
 290 697 379 599 379 568 c 0
EndSplineSet
EndChar

StartChar: a
Encoding: 65 97 76
Width: 556
Flags: W
HStem: -1 47<169.875 301.066> 240 52<286.829 431.956> 498 51<374.451 502.358>
VStem: 115 48<55.6649 150.235> 442 59<8.49258 119.031> 512 55<294.697 492.102>
LayerCount: 2
Fore
SplineSet
482 238 m 0
 489 238 512 367 512 422 c 0
 512 480 495 498 468 498 c 0
 362 498 250 421 204 421 c 0
 196 421 194 424 195 431 c 0
 205 479 263 485 375 528 c 0
 414 542 446 549 471 549 c 0
 517 549 543 526 558 477 c 0
 563 459 567 448 567 430 c 0
 567 402 558 358 536 247 c 0
 502 76 501 41 501 41 c 2
 497 20 466 -5 460 -5 c 0
 446 -5 442 18 442 44 c 0
 442 71 446 100 446 114 c 0
 446 119 445 122 444 122 c 0
 442 122 438 118 433 111 c 0
 399 70 285 -1 227 -1 c 0
 194 -1 143 14 126 29 c 0
 119 36 115 54 115 75 c 0
 115 171 168 214 251 255 c 0
 298 278 346 292 381 292 c 0
 436 292 436 259 451 259 c 0
 459 259 478 238 482 238 c 0
163 85 m 0
 163 59 201 46 221 46 c 0
 271 46 366 94 369 106 c 0
 373 123 447 167 447 191 c 0
 447 204 433 240 350 240 c 0
 228 240 163 142 163 85 c 0
EndSplineSet
EndChar

StartChar: b
Encoding: 66 98 77
Width: 655
Flags: W
HStem: -23 55<241.468 331.144> 478 64<499.325 612.805>
VStem: 153 80<37.462 182.448> 253 64<640.257 837.166> 621 59<319.439 470.02>
LayerCount: 2
Fore
SplineSet
589 542 m 0
 616 542 680 516 680 424 c 0
 680 320 602 182 496 95 c 0
 428 39 303 -23 259 -23 c 0
 215 -23 153 16 153 43 c 0
 153 79 214 377 222 517 c 0
 226 599 241 733 253 789 c 0
 260 820 266 830 278 840 c 0
 290 850 299 855 305 855 c 0
 314 855 317 845 317 826 c 0
 317 776 294 669 287 547 c 0
 284 501 280 440 276 409 c 2
 269 354 l 1
 364 431 l 2
 436 490 472 513 515 526 c 0
 549 536 572 542 589 542 c 0
533 197 m 0
 581 252 621 347 621 416 c 0
 621 449 610 478 573 478 c 0
 560 478 544 476 522 472 c 0
 493 467 400 398 333 331 c 0
 279 276 233 163 233 94 c 0
 233 48 254 32 271 32 c 0
 293 32 409 54 533 197 c 0
EndSplineSet
EndChar

StartChar: c
Encoding: 67 99 78
Width: 569
Flags: W
HStem: -4 58<200.002 339.922> 490 55<327.603 504.125>
VStem: 93 55<112.12 281.359> 539 52<367.389 451.088>
LayerCount: 2
Fore
SplineSet
591 416 m 0
 591 387 573 363 557 363 c 0
 547 363 539 372 539 389 c 2
 539 396 l 2
 539 410 530 434 519 450 c 0
 505 470 495 490 391 490 c 0
 338 490 316 474 266 419 c 0
 201 349 148 274 148 177 c 0
 148 134 164 118 181 97 c 0
 212 60 222 54 259 54 c 0
 385 54 516 232 565 232 c 0
 573 232 577 226 574 213 c 0
 569 188 397 -4 258 -4 c 0
 226 -4 197 5 165 23 c 0
 116 50 93 88 93 156 c 0
 93 191 104 266 108 284 c 0
 116 320 126 336 154 373 c 0
 207 445 308 524 363 538 c 0
 381 542 407 545 430 545 c 0
 529 545 591 471 591 416 c 0
EndSplineSet
EndChar

StartChar: d
Encoding: 68 100 79
Width: 715
Flags: W
HStem: -10 67<220.333 368.65> 472 69<384.804 472.674>
VStem: 106 71<94.0673 249.956> 565 74<-50.7971 132.879>
LayerCount: 2
Fore
SplineSet
270 -10 m 0
 214 -10 106 20 106 139 c 0
 106 307 260 481 391 526 c 0
 419 536 434 541 448 541 c 0
 481 541 575 485 600 441 c 0
 612 420 625 405 633 405 c 0
 634 405 634 406 635 406 c 0
 654 417 748 908 774 952 c 0
 787 973 803 983 820 983 c 2
 847 983 l 1
 752 572 l 2
 632 53 653 53 639 -10 c 0
 629 -58 597 -62 593 -62 c 0
 571 -62 565 -42 565 -14 c 0
 565 29 578 90 578 135 c 0
 578 144 577 151 575 151 c 0
 569 151 552 139 534 122 c 0
 443 36 350 -10 270 -10 c 0
499 433 m 0
 471 454 437 472 425 472 c 0
 398 472 243 347 217 304 c 0
 199 274 177 187 177 138 c 0
 177 129 178 122 180 117 c 0
 187 97 237 57 292 57 c 0
 342 57 397 87 485 157 c 0
 590 240 590 259 590 272 c 0
 590 320 543 398 499 433 c 0
EndSplineSet
EndChar

StartChar: e
Encoding: 69 101 80
Width: 617
Flags: W
HStem: -10 55<229.028 381.124> 275 50<191.004 263> 502 47<326.563 484.278>
VStem: 101 55<125.614 274.197> 539 53<378.298 444.619>
LayerCount: 2
Fore
SplineSet
614 215 m 0
 616 215 617 214 617 210 c 0
 617 185 546 111 508 83 c 0
 427 23 345 -10 278 -10 c 0
 191 -10 101 58 101 198 c 0
 101 259 116 315 136 352 c 0
 174 423 304 549 387 549 c 0
 399 549 413 548 434 546 c 0
 496 541 511 537 539 511 c 0
 570 483 592 434 592 400 c 0
 592 344 540 325 452 306 c 0
 400 295 314 283 263 280 c 2
 168 275 l 1
 160 235 l 2
 157 222 156 210 156 198 c 0
 156 162 169 131 199 95 c 0
 226 62 258 45 297 45 c 0
 422 45 577 215 614 215 c 0
505 459 m 0
 472 496 461 502 427 502 c 0
 361 502 335 493 293 454 c 0
 238 404 191 358 191 334 c 0
 191 328 196 325 213 325 c 0
 265 325 359 337 479 363 c 0
 529 374 539 399 539 409 c 0
 539 420 528 433 505 459 c 0
EndSplineSet
EndChar

StartChar: f
Encoding: 70 102 81
Width: 624
Flags: W
HStem: 429 71<186.671 279.083> 524 20G<524.5 556.5> 954 45<529.11 661.304>
VStem: 261 63<0.828125 220.97> 701 56<852.212 921.544>
LayerCount: 2
Fore
SplineSet
261 57 m 0
 261 165 323 393 323 447 c 0
 323 450 323 450 319 450 c 0
 291 450 245 429 202 429 c 0
 177 429 163 437 163 451 c 0
 163 471 181 480 254 500 c 2
 340 524 l 1
 361 611 l 2
 372 658 397 751 418 816 c 0
 454 927 459 935 498 967 c 0
 528 991 539 999 572 999 c 0
 589 999 611 997 643 994 c 0
 698 988 710 982 735 952 c 0
 750 933 757 917 757 901 c 0
 757 866 714 827 704 827 c 0
 699 827 696 832 696 841 c 0
 696 853 701 866 701 882 c 0
 701 911 683 926 632 944 c 0
 613 950 597 954 583 954 c 0
 552 954 528 938 505 904 c 0
 478 865 409 587 409 550 c 0
 409 534 415 530 431 530 c 0
 459 530 502 544 547 544 c 0
 566 544 575 537 575 530 c 0
 575 521 555 507 480 486 c 2
 389 461 l 1
 352 302 l 2
 348 285 319 178 319 108 c 0
 319 81 324 69 324 52 c 0
 324 26 316 -3 286 -3 c 0
 269 -3 261 17 261 57 c 0
EndSplineSet
EndChar

StartChar: g
Encoding: 71 103 82
Width: 704
Flags: W
HStem: -248 59<413.188 521.55> 55 56<212.415 343.818> 544 52<465.614 649.365>
VStem: 120 63<142.345 301.805> 202 82<-122.817 -63.2274> 652 77<451.418 534.586>
LayerCount: 2
Fore
SplineSet
472 -189 m 0
 529 -189 531 -143 532 -138 c 0
 566 22 554 73 562 131 c 0
 569 181 573 210 573 223 c 0
 573 230 572 233 570 233 c 0
 567 233 560 226 551 215 c 0
 506 165 399 91 346 72 c 0
 319 62 276 55 248 55 c 0
 206 55 191 62 158 97 c 0
 128 129 120 149 120 192 c 0
 120 241 126 274 135 291 c 0
 152 327 222 421 264 464 c 0
 300 502 405 562 468 581 c 0
 501 591 540 596 577 596 c 0
 658 596 729 573 729 511 c 0
 729 454 680 409 665 341 c 0
 656 297 646 215 618 10 c 2
 589 -197 l 1
 548 -225 l 2
 523 -242 509 -248 486 -248 c 0
 378 -248 202 -155 202 -108 c 0
 202 -78 271 -2 298 -2 c 0
 347 -2 284 -53 284 -87 c 0
 284 -125 345 -149 370 -149 c 0
 404 -149 423 -189 472 -189 c 0
188 265 m 0
 185 251 183 237 183 223 c 0
 183 164 210 111 261 111 c 0
 343 111 467 195 548 305 c 0
 594 367 652 484 652 521 c 0
 652 526 650 530 648 532 c 0
 635 540 608 544 578 544 c 0
 551 544 521 541 497 534 c 0
 368 499 204 340 188 265 c 0
EndSplineSet
EndChar

StartChar: h
Encoding: 72 104 83
Width: 538
Flags: W
HStem: 517 20G<464.5 501>
VStem: 489 68<315.118 484.906>
LayerCount: 2
Fore
SplineSet
125 -22 m 0
 121 -22 102 -19 102 13 c 0
 102 29 106 52 113 86 c 0
 151 262 198 756 234 807 c 0
 245 821 254 828 261 828 c 0
 272 828 277 820 277 797 c 0
 277 752 258 648 228 425 c 2
 212 307 l 1
 239 346 l 1
 279 406 447 537 482 537 c 0
 520 537 557 484 557 448 c 0
 557 427 538 321 514 206 c 0
 470 0 469 -7 447 -7 c 0
 438 -7 432 -5 432 14 c 0
 432 75 489 307 489 418 c 0
 489 425 489 431 488 436 c 2
 482 486 l 1
 413 432 l 2
 338 373 262 291 234 233 c 0
 194 151 162 -22 125 -22 c 0
EndSplineSet
EndChar

StartChar: i
Encoding: 73 105 84
Width: 277
Flags: W
HStem: 763 84<289.151 349.955>
VStem: 203 76<379.522 560.062> 278 78<768.573 835.912>
LayerCount: 2
Fore
SplineSet
235 570 m 0xc0
 246 578 255 582 262 582 c 0
 273 582 279 571 279 541 c 0
 279 462 209 43 189 23 c 0
 179 13 167 8 156 8 c 0
 137 8 129 20 129 30 c 0
 129 58 182 397 203 495 c 0
 214 549 222 561 235 570 c 0xc0
278 798 m 0xa0
 278 823 309 847 320 847 c 0
 326 847 356 833 356 807 c 0
 356 784 337 763 316 763 c 0
 298 763 278 777 278 798 c 0xa0
EndSplineSet
EndChar

StartChar: j
Encoding: 74 106 85
Width: 466
Flags: W
HStem: -243 62<98.8971 252.087> 544 20G<387 402.5> 748 78<393.464 442.176>
VStem: 35 63<-186.5 -81.2581> 348 67<285.528 528.29> 385 64<750.815 817.053>
LayerCount: 2
Fore
SplineSet
106 -72 m 0xf8
 106 -103 98 -120 98 -151 c 0
 98 -156 98 -160 99 -162 c 0
 104 -172 160 -181 202 -181 c 0
 220 -181 235 -179 241 -175 c 0
 289 -146 348 211 348 256 c 2
 348 295 l 2
 348 396 358 494 368 540 c 0
 373 561 380 564 394 564 c 0
 411 564 415 563 415 517 c 0
 415 202 385 92 359 -9 c 0
 306 -221 287 -243 160 -243 c 0
 98 -243 55 -230 55 -211 c 0
 55 -185 35 -201 35 -172 c 0
 35 -123 66 -41 92 -41 c 0
 100 -41 106 -51 106 -72 c 0xf8
385 782 m 0xf4
 385 808 417 826 428 826 c 0
 432 826 449 820 449 798 c 0
 449 777 434 748 420 748 c 0
 398 749 385 765 385 782 c 0xf4
EndSplineSet
EndChar

StartChar: k
Encoding: 75 107 86
Width: 519
Flags: W
HStem: 534 20G<501 513>
VStem: 171 96<532.867 652.814>
LayerCount: 2
Fore
SplineSet
243 793 m 0
 252 793 267 787 267 759 c 0
 267 701 238 482 230 394 c 2
 225 336 l 1
 364 450 l 2
 460 529 493 554 509 554 c 0
 517 554 527 542 527 529 c 0
 527 505 508 513 456 456 c 0
 359 349 222 287 214 248 c 0
 212 239 216 231 227 225 c 2
 323 175 l 2
 408 131 469 80 469 54 c 0
 469 49 464 30 444 30 c 0
 411 30 379 79 358 79 c 0
 351 79 347 83 347 88 c 0
 347 96 320 108 237 143 c 2
 189 163 l 1
 178 80 l 2
 168 10 163 -14 140 -14 c 0
 119 -14 109 -5 109 30 c 0
 109 104 168 373 171 467 c 0
 173 529 194 676 209 745 c 0
 212 758 216 793 243 793 c 0
EndSplineSet
EndChar

StartChar: l
Encoding: 76 108 87
Width: 299
Flags: W
HStem: 959 20G<326.5 340.5>
LayerCount: 2
Fore
SplineSet
267 799 m 0
 301 959 317 979 336 979 c 0
 345 979 350 973 350 968 c 0
 350 915 220 41 219 36 c 0
 215 19 207 14 188 14 c 0
 172 14 164 19 164 50 c 0
 164 109 192 262 243 658 c 0
 248 701 257 751 267 799 c 0
EndSplineSet
EndChar

StartChar: m
Encoding: 77 109 88
Width: 844
Flags: W
HStem: 491 59<411.127 462.36 713.933 780> 541 20G<274 283>
VStem: 251 39<406.278 555.012> 448 41<-18.9219 85.7224> 493 42<282.152 449.934> 692 97<-11 42> 765 53<305.189 486.212>
LayerCount: 2
Fore
SplineSet
493 343 m 0xba
 493 419 461 491 439 491 c 0xba
 420 491 391 446 317 325 c 0
 301 299 286 261 281 239 c 0
 266 169 267 241 221 53 c 0
 199 -40 194 -74 170 -74 c 0
 162 -74 157 -67 157 -48 c 0
 157 -17 169 48 194 166 c 0
 237 368 233 419 251 503 c 0
 258 535 269 561 279 561 c 0x7a
 287 561 290 539 290 510 c 0
 290 476 287 432 287 405 c 0
 287 389 288 379 291 379 c 0
 297 379 319 429 331 439 c 0
 335 443 353 465 369 488 c 0
 409 545 415 550 453 550 c 0
 476 550 492 538 512 507 c 0
 530 479 535 462 535 419 c 0
 535 406 535 390 534 371 c 2
 530 277 l 1
 560 337 l 2
 618 453 711 550 764 550 c 0
 796 550 818 510 818 453 c 0xba
 818 416 804 341 789 268 c 0
 729 -14 724 -9 706 -12 c 0
 703 -13 701 -13 699 -13 c 0
 695 -13 692 -11 692 -2 c 0xbc
 692 42 765 314 765 433 c 0
 765 469 758 487 744 487 c 0
 727 487 697 458 657 401 c 0
 590 306 526 161 489 22 c 0
 480 -11 473 -21 460 -21 c 0
 452 -21 448 -19 448 -4 c 0
 448 39 493 239 493 343 c 0xba
EndSplineSet
EndChar

StartChar: n
Encoding: 78 110 89
Width: 619
Flags: W
HStem: 494 72<503.861 563>
VStem: 171 63<-7.34863 114.481> 484 70<19.5375 100.325> 561 54<303.822 490.818>
LayerCount: 2
Fore
SplineSet
561 437 m 0
 561 478 540 494 532 494 c 0
 503 494 403 374 339 272 c 0
 279 176 262 145 234 57 c 0
 216 1 199 -45 196 -45 c 0
 193 -45 184 -38 177 -28 c 0
 173 -23 171 -14 171 -1 c 0
 171 48 197 160 220 384 c 0
 234 522 240 575 268 575 c 0
 277 575 281 571 281 547 c 0
 281 496 249 213 252 207 c 1
 254 206 274 241 298 288 c 0
 344 378 358 398 420 465 c 0
 483 533 525 566 554 566 c 0
 572 566 586 554 596 531 c 0
 608 505 615 486 615 455 c 0
 615 388 554 99 554 99 c 1
 533 -1 523 -7 495 -8 c 0
 488 -8 484 -6 484 4 c 0
 484 32 561 289 561 437 c 0
EndSplineSet
EndChar

StartChar: o
Encoding: 79 111 90
Width: 651
Flags: W
HStem: -19 57<236.844 393.49> 501 68<404.866 599.658>
VStem: 96 76<100.745 275.756> 626 58<349.987 476.281>
LayerCount: 2
Fore
SplineSet
541 569 m 0
 660 569 684 522 684 455 c 0
 684 321 565 91 436 22 c 0
 386 -5 334 -19 286 -19 c 0
 222 -19 166 6 136 52 c 0
 108 95 96 124 96 162 c 0
 96 182 100 205 106 235 c 0
 124 320 167 385 248 449 c 0
 375 549 434 569 541 569 c 0
626 439 m 0
 626 471 580 501 539 501 c 0
 522 501 512 496 449 490 c 0
 402 486 379 474 330 435 c 0
 236 361 172 283 172 181 c 0
 172 95 229 38 322 38 c 0
 434 38 582 220 623 415 c 0
 625 425 626 433 626 439 c 0
EndSplineSet
EndChar

StartChar: p
Encoding: 80 112 91
Width: 655
Flags: W
HStem: -246 21G<177 211> 45 67<282.659 388.829> 509 72<375.826 598.79>
VStem: 158 81<-239.674 49.3752> 203 49<179.785 350.812> 615 74<388.853 501.258>
LayerCount: 2
Fore
SplineSet
158 -138 m 0xf4
 158 69 203 307 203 378 c 0xec
 203 410 195 414 180 414 c 0
 161 414 152 421 152 430 c 0
 152 455 218 478 225 512 c 0
 228 525 250 581 284 581 c 0
 311 581 300 550 325 550 c 0
 357 550 434 581 519 581 c 0
 549 581 577 577 608 570 c 0
 662 557 689 526 689 477 c 0
 689 427 661 351 577 228 c 0
 497 110 402 45 313 45 c 0
 304 45 294 45 284 47 c 2
 239 54 l 1
 239 0 l 2
 239 -241 230 -246 192 -246 c 0
 162 -246 158 -235 158 -138 c 0xf4
330 112 m 0
 417 112 615 329 615 444 c 0
 615 477 601 499 593 502 c 0
 582 507 561 509 535 509 c 0
 483 509 412 500 365 486 c 2
 294 464 l 1
 282 400 l 2
 274 354 252 214 252 168 c 0
 252 145 256 138 266 137 c 1
 296 137 302 112 330 112 c 0
EndSplineSet
EndChar

StartChar: q
Encoding: 81 113 92
Width: 662
Flags: W
HStem: -248 63<386.5 448.85> 62 54<148.963 230.287> 523 51<378.109 490.459>
VStem: 83 58<120.926 279.776> 348 60<-184.744 68.2218> 491 52<453.145 544.5> 510 56<-74.8431 64.2292>
LayerCount: 2
Fore
SplineSet
83 165 m 0xfa
 83 355 271 574 471 574 c 0
 500 574 543 564 543 525 c 0xfc
 543 462 438 241 438 174 c 0
 438 166 440 161 445 161 c 0
 452 161 481 180 510 203 c 0
 568 250 634 285 660 285 c 0
 666 285 669 281 669 276 c 0
 669 261 506 130 493 130 c 1
 493 129 515 121 527 106 c 0
 555 69 566 56 566 34 c 0
 566 15 556 -23 547 -63 c 0
 533 -127 528 -124 505 -165 c 0
 458 -247 428 -248 404 -248 c 0
 369 -248 348 -245 348 -144 c 0
 348 -105 351 -52 358 22 c 2
 372 178 l 1
 296 124 l 2
 234 80 197 62 163 62 c 0
 102 62 83 111 83 165 c 0xfa
471 523 m 0
 301 511 141 358 141 181 c 0
 141 139 154 116 180 116 c 0
 229 116 360 240 388 282 c 0
 427 340 461 446 481 474 c 0
 486 482 491 495 491 504 c 0
 491 519 479 523 471 523 c 0
510 26 m 0xfa
 510 36 487 81 455 81 c 0
 427 81 408 51 408 -64 c 0
 408 -130 418 -185 430 -185 c 0
 442 -185 473 -115 489 -97 c 0
 496 -90 494 -96 500 -40 c 0
 505 4 510 17 510 26 c 0xfa
EndSplineSet
EndChar

StartChar: r
Encoding: 82 114 93
Width: 526
Flags: W
HStem: 431 55<470.956 551.286> 521 20G<242.5 250.5>
VStem: 130 107<61.106 158.743>
LayerCount: 2
Fore
SplineSet
258 525 m 0
 258 523 237 397 237 295 c 0
 237 279 238 269 240 269 c 0
 245 269 267 295 289 324 c 0
 355 412 462 486 517 486 c 0
 541 486 554 467 554 459 c 0
 554 448 527 437 511 431 c 0
 421 398 285 245 241 126 c 0
 192 -8 176 -38 154 -38 c 0
 135 -38 130 -28 130 -7 c 0
 130 47 189 468 212 509 c 0
 223 530 238 541 247 541 c 0
 254 541 258 535 258 525 c 0
EndSplineSet
EndChar

StartChar: s
Encoding: 83 115 94
Width: 492
Flags: W
HStem: -56 46<180.482 298.454> 490 46<334.442 469.409>
VStem: 95 48<24.1543 82.337> 141 57<310.914 382.434> 384 47<80.6689 174.53>
LayerCount: 2
Fore
SplineSet
246 -10 m 0xe8
 311 -10 384 101 384 129 c 0
 384 144 377 174 340 188 c 0
 294 205 243 235 231 235 c 0
 223 235 141 281 141 335 c 0
 141 382 245 501 354 527 c 0
 389 536 434 536 443 536 c 0
 474 536 481 531 500 503 c 0
 512 485 521 464 521 456 c 0
 521 453 518 443 505 443 c 0
 466 443 482 490 418 490 c 0
 373 490 310 464 257 418 c 0
 211 378 198 364 198 349 c 0xd8
 198 331 218 297 294 269 c 0
 395 232 431 205 431 157 c 0
 431 128 414 74 395 45 c 0
 377 17 307 -56 255 -56 c 0
 220 -56 153 -43 126 -28 c 0
 108 -18 95 14 95 41 c 0
 95 69 110 83 121 83 c 0
 130 83 138 74 143 55 c 0
 152 22 204 -10 246 -10 c 0xe8
EndSplineSet
EndChar

StartChar: t
Encoding: 84 116 95
Width: 519
Flags: W
HStem: 551 21G<183.5 208>
VStem: 414 51<760.347 938.287>
LayerCount: 2
Fore
SplineSet
359 642 m 0
 396 665 394 860 414 909 c 0
 423 931 439 944 451 944 c 0
 462 944 465 937 465 929 c 0
 465 891 432 666 435 662 c 1
 435 662 436 661 438 661 c 0
 460 661 507 678 551 678 c 0
 570 678 596 674 596 659 c 0
 596 638 551 625 476 607 c 2
 423 595 l 1
 394 426 l 2
 326 29 356 -30 307 -30 c 0
 291 -30 282 -10 282 23 c 0
 282 40 285 61 290 85 c 0
 308 169 309 226 339 448 c 0
 349 523 355 553 355 565 c 0
 355 572 353 573 351 573 c 0
 320 573 223 551 193 551 c 0
 174 551 168 556 168 567 c 0
 168 619 317 617 359 642 c 0
EndSplineSet
EndChar

StartChar: u
Encoding: 85 117 96
Width: 606
Flags: W
HStem: -40 54<173.488 247.588> 519 20G<197 220.5 618 627>
VStem: 114 57<14.8188 263.577>
LayerCount: 2
Fore
SplineSet
114 60 m 0
 114 195 175 539 219 539 c 0
 222 539 242 537 242 507 c 0
 242 483 228 455 217 402 c 0
 195 302 171 122 171 62 c 0
 171 33 176 14 197 14 c 0
 213 14 239 28 276 55 c 0
 367 123 482 286 541 430 c 0
 564 488 590 539 598 543 c 0
 606 548 615 550 621 550 c 0
 633 550 640 542 640 530 c 0
 640 504 572 342 554 257 c 0
 547 222 544 188 544 155 c 0
 544 100 551 51 551 18 c 0
 551 9 550 0 549 -6 c 0
 544 -28 514 -31 513 -31 c 0
 471 -31 491 173 467 173 c 0
 458 173 444 154 416 121 c 0
 338 29 243 -40 193 -40 c 0
 137 -40 114 -21 114 60 c 0
EndSplineSet
EndChar

StartChar: v
Encoding: 86 118 97
Width: 590
Flags: W
HStem: -40 89<253 316.436> 527 20G<204 210 620.5 637>
VStem: 572 80<480.691 529.383>
LayerCount: 2
Fore
SplineSet
197 508 m 0
 197 541 199 547 209 547 c 0
 211 547 215 547 219 546 c 0
 283 535 286 49 302 49 c 0
 316 49 406 176 450 259 c 0
 512 376 565 453 572 487 c 0
 578 515 607 556 634 556 c 0
 640 556 652 555 652 539 c 0
 652 505 584 384 445 145 c 0
 392 53 309 -40 281 -40 c 0
 225 -40 228 138 211 317 c 0
 203 403 197 468 197 508 c 0
EndSplineSet
EndChar

StartChar: w
Encoding: 87 119 98
Width: 696
Flags: W
HStem: -27 102<183.5 231> 254 66<374.242 416.174> 533 20G<183.5 195 742 751>
VStem: 166 53<387.416 510.248> 167 44<176.573 491.445>
LayerCount: 2
Fore
SplineSet
167 209 m 0xe8
 167 346 161 350 161 390 c 0
 161 439 166 427 166 451 c 0
 166 476 156 495 156 511 c 0
 156 529 178 553 189 553 c 0
 201 553 219 533 219 493 c 0xf0
 219 460 211 416 211 386 c 0
 211 377 212 369 214 363 c 0
 225 334 219 75 230 75 c 0
 232 75 294 180 321 233 c 0
 350 289 377 320 399 320 c 0
 423 320 483 243 494 198 c 0
 499 176 510 150 517 138 c 2
 530 118 l 1
 546 147 l 2
 573 196 688 505 728 544 c 0
 733 549 739 551 745 551 c 0
 757 551 767 541 767 529 c 0
 767 512 741 492 677 323 c 0
 639 225 551 42 534 29 c 0
 529 25 517 23 507 25 c 0
 492 27 476 68 433 202 c 0
 429 216 404 254 395 254 c 0
 379 254 360 201 249 22 c 0
 230 -9 212 -27 197 -27 c 0
 170 -27 167 57 167 155 c 0
 167 173 167 191 167 209 c 0xe8
EndSplineSet
EndChar

StartChar: x
Encoding: 88 120 99
Width: 583
Flags: W
HStem: 506 20G<200.5 214>
VStem: 166 64<457.672 514.919>
LayerCount: 2
Fore
SplineSet
166 474 m 0
 166 495 192 526 209 526 c 0
 219 526 227 517 230 499 c 0
 234 474 354 302 369 302 c 0
 372 302 400 334 434 374 c 2
 528 488 l 2
 548 512 563 524 575 524 c 0
 586 524 597 509 597 497 c 0
 597 473 546 447 523 402 c 1
 508 369 408 265 408 253 c 0
 408 238 544 101 546 75 c 1
 548 64 544 34 518 34 c 0
 505 34 489 43 477 61 c 0
 450 99 365 189 355 189 c 0
 350 189 308 146 262 92 c 0
 202 23 172 -5 153 -5 c 0
 145 -5 133 5 133 14 c 0
 133 33 211 119 222 132 c 2
 317 241 l 1
 283 288 l 2
 250 335 166 426 166 474 c 0
EndSplineSet
EndChar

StartChar: y
Encoding: 89 121 100
Width: 526
Flags: W
HStem: -249 63<259.638 306.232> 75 60<149.001 231.061> 515 20G<469.5 501>
VStem: 113 59<135.582 290.74> 184 52<-162.133 -62.6291> 348 53<121 172.783>
DStem2: 401 121 402 62 0.909688 0.415292<0 79.9189>
LayerCount: 2
Fore
SplineSet
230 488 m 0
 230 443 172 251 172 172 c 0
 172 148 178 135 191 135 c 0
 216 135 307 215 343 270 c 0
 427 395 444 535 495 535 c 0
 507 535 518 526 518 511 c 0
 518 467 448 391 410 211 c 0
 405 189 400 169 400 150 c 2
 401 121 l 1
 436 137 l 2
 453 144 467 148 477 148 c 0
 492 148 499 142 499 133 c 0
 499 123 489 102 448 83 c 2
 402 62 l 1
 383 -50 l 2
 367 -147 337 -230 331 -237 c 0
 324 -245 315 -249 303 -249 c 0
 288 -249 269 -243 244 -231 c 0
 215 -217 203 -203 194 -169 c 0
 187 -145 184 -123 184 -103 c 0
 184 -38 205 -35 246 21 c 0
 268 51 291 49 311 67 c 0
 335 88 342 83 344 94 c 0
 344 95 348 123 348 145 c 0
 348 160 346 173 340 173 c 0
 323 173 247 75 175 75 c 0
 125 75 113 133 113 158 c 0
 113 184 120 223 138 308 c 0
 171 457 189 504 217 504 c 0
 226 504 230 501 230 488 c 0
294 -13 m 2
 255 -59 236 -99 236 -115 c 0
 236 -142 273 -186 289 -186 c 0
 298 -186 306 -176 319 -116 c 0
 326 -82 322 -63 325 -30 c 2
 331 30 l 1
 294 -13 l 2
EndSplineSet
EndChar

StartChar: z
Encoding: 90 122 101
Width: 553
Flags: W
HStem: -5 60<173.013 339.185> 32 56<311.79 509.566> 231 44<230.456 312.986> 481 51<351.279 483.208>
VStem: 153 89<9 59> 484 54<405.392 488.5>
LayerCount: 2
Fore
SplineSet
172 394 m 0xbc
 159 394 140 400 140 410 c 0
 140 455 412 528 419 529 c 0
 428 531 439 532 449 532 c 0
 485 532 523 521 533 506 c 0
 537 501 538 493 538 484 c 0
 538 455 524 404 481 341 c 2
 450 295 l 1
 486 290 l 2
 500 289 528 285 528 277 c 0
 528 264 482 248 448 244 c 0
 411 239 395 231 356 197 c 0
 314 161 246 76 242 59 c 0
 241 56 242 55 246 55 c 0xbc
 269 55 393 88 480 88 c 0
 512 88 529 83 529 73 c 0
 529 57 506 48 420 32 c 0x7c
 293 8 220 -5 183 -5 c 0
 163 -5 153 0 153 9 c 0
 153 36 259 167 279 186 c 0
 295 201 313 221 313 224 c 0
 313 227 294 231 273 231 c 0
 239 231 227 237 227 245 c 0
 227 263 268 275 315 275 c 0
 363 275 371 278 392 300 c 1
 440 355 484 436 484 470 c 0
 484 480 477 481 457 481 c 0
 392 480 234 434 203 408 c 0
 192 399 183 394 172 394 c 0xbc
EndSplineSet
EndChar

StartChar: braceleft
Encoding: 91 123 102
Width: 315
Flags: W
HStem: -40 32<152.866 210.537> 592 32<293.136 314.953>
DStem2: 141 128 171 130 0.205653 0.978625<-111.12 120.487 160.906 477.095>
LayerCount: 2
Fore
SplineSet
208 402 m 1
 236 527 222 545 251 595 c 1
 269 628 l 1
 291 624 l 1
 315 622 315 611 315 606 c 0
 315 598 311 592 303 592 c 0
 292 592 296 604 293 604 c 0
 289 604 269 581 261 545 c 0
 255 517 253 474 238 402 c 0
 214 288 199 300 194 275 c 0
 193 271 197 252 171 130 c 0
 158 70 150 19 151 12 c 0
 154 0 170 -8 185 -8 c 0
 199 -8 201 -1 211 -1 c 0
 216 -1 218 -5 217 -11 c 0
 211 -38 193 -40 181 -40 c 2
 177 -40 l 2
 137 -40 122 -6 122 3 c 0
 122 16 130 69 141 128 c 2
 165 247 l 1
 150 249 l 2
 139 251 136 256 137 262 c 0
 144 293 179 264 208 402 c 1
EndSplineSet
EndChar

StartChar: bar
Encoding: 92 124 103
Width: 364
Flags: W
LayerCount: 2
Fore
SplineSet
336 727 m 0
 348 730 355 732 358 732 c 0
 360 732 360 732 360 731 c 0
 362 717 204 -41 193 -71 c 0
 184 -96 170 -112 160 -112 c 0
 156 -112 151 -109 151 -105 c 0
 151 -66 279 563 280 580 c 0
 281 587 292 621 303 658 c 0
 318 709 326 725 336 727 c 0
EndSplineSet
EndChar

StartChar: braceright
Encoding: 93 125 104
Width: 337
Flags: W
HStem: -50 29<122.676 160.67>
VStem: 215 39<359.353 483.505> 271 39<555.441 663.492>
LayerCount: 2
Fore
SplineSet
215 387 m 0
 215 442 271 597 271 626 c 0
 271 648 257 647 257 660 c 0
 257 670 265 673 272 673 c 0
 276 673 310 669 310 634 c 0
 310 591 254 466 254 400 c 0
 254 371 262 356 294 356 c 0
 311 356 320 352 320 344 c 0
 320 314 279 345 239 159 c 0
 222 80 209 -50 141 -50 c 0
 120 -50 114 -45 114 -37 c 0
 114 -28 121 -10 131 -10 c 0
 137 -10 141 -21 148 -21 c 0
 179 -21 217 247 247 298 c 2
 261 322 l 1
 245 331 l 2
 240 334 215 353 215 387 c 0
EndSplineSet
EndChar

StartChar: asciitilde
Encoding: 94 126 105
Width: 613
Flags: W
HStem: 702 35<341.713 429.822>
LayerCount: 2
Fore
SplineSet
250 638 m 0
 250 664 345 737 393 737 c 0
 451 737 496 682 524 669 c 2
 544 659 l 1
 575 683 l 2
 623 720 631 754 653 754 c 0
 665 754 668 749 668 745 c 0
 668 719 584 628 536 628 c 0
 490 628 431 702 383 702 c 0
 356 702 332 673 320 673 c 0
 310 673 278 628 258 628 c 0
 252 628 250 633 250 638 c 0
EndSplineSet
EndChar

StartChar: uni0E01
Encoding: 250 3585 107
Width: 662
Flags: W
HStem: 495 48<422.934 569.273>
VStem: 230 61<159.146 364> 599 58<253.945 463.114>
LayerCount: 2
Fore
SplineSet
549 22 m 0
 549 25 550 28 550 30 c 1
 539 35 l 2
 537 35 537 38 537 43 c 0
 537 57 543 92 556 153 c 2
 596 340 l 2
 598 349 599 361 599 373 c 0
 599 425 580 495 527 495 c 0
 445 495 292 427 285 393 c 0
 282 380 291 383 291 345 c 0
 291 291 276 189 260 110 c 0
 244 36 235 -2 204 -2 c 0
 192 -2 185 9 185 25 c 0
 185 59 209 75 220 126 c 0
 220 127 230 223 230 285 c 0
 230 314 227 336 221 336 c 0
 211 336 185 299 161 299 c 0
 156 299 129 302 129 317 c 0
 129 335 166 345 170 365 c 0
 175 390 381 543 498 543 c 0
 600 543 630 520 649 462 c 0
 654 446 657 434 657 415 c 0
 657 374 608 49 582 27 c 0
 572 18 563 14 557 14 c 0
 552 14 549 16 549 22 c 0
EndSplineSet
EndChar

StartChar: uni0E02
Encoding: 251 3586 108
Width: 655
Flags: W
HStem: -4 98<445 483.389> 338 48<196 295.091> 483 52<286.732 381.5> 538 20G<645 673.5>
VStem: 150 68<369 426.563> 392 65<94.0899 378.765>
LayerCount: 2
Fore
SplineSet
403 379 m 0
 403 392 382 383 382 404 c 2
 382 414 l 2
 382 416 382 418 380 418 c 0
 365 418 303 338 213 338 c 0
 179 338 150 353 150 385 c 0
 150 417 169 432 226 474 c 0
 281 515 324 535 357 535 c 0
 406 535 433 490 447 398 c 0
 452 366 457 323 457 304 c 0
 458 206 467 94 474 94 c 0
 484 94 524 152 536 183 c 0
 541 197 562 285 584 378 c 0
 620 534 623 558 667 558 c 0
 680 558 682 554 682 547 c 0
 682 500 631 285 603 215 c 0
 588 178 489 -4 455 -4 c 0
 435 -4 411 19 404 47 c 0
 396 80 392 165 392 240 c 0
 392 293 394 342 398 362 c 0
 399 368 403 374 403 379 c 0
231 386 m 0
 246 386 343 398 343 458 c 0
 343 469 341 483 329 483 c 0
 280 483 218 408 218 393 c 0
 218 388 222 386 231 386 c 0
EndSplineSet
EndChar

StartChar: uni0E03
Encoding: 252 3587 109
Width: 670
Flags: W
HStem: 3 105<482 530.5> 379 35<257.212 315.781> 386 56<389.537 422.831> 476 76<488.474 535.5> 499 55<274.014 322.393>
VStem: 215 41<416.311 483.994> 468 55<57.0524 331.075> 507 50<307.535 513.771>
LayerCount: 2
Fore
SplineSet
215 453 m 0xc5
 215 483 283 554 320 554 c 0xcd
 345 554 380 510 388 471 c 0
 391 455 396 442 399 442 c 0
 415 446 493 552 524 552 c 0
 547 552 557 529 557 478 c 0xb5
 557 375 523 211 523 133 c 0
 523 117 525 108 529 108 c 0
 532 108 534 118 540 144 c 2
 554 213 l 2
 564 259 567 260 573 260 c 0
 581 260 593 328 614 424 c 0
 624 473 631 515 661 515 c 0
 673 515 680 503 680 484 c 0
 680 478 679 472 678 465 c 2
 678 465 575 100 565 76 c 0
 553 50 508 3 493 3 c 0
 471 3 468 26 468 174 c 0xb6
 468 218 507 418 507 466 c 0
 507 473 507 476 505 476 c 0
 501 476 481 458 458 433 c 0
 424 397 409 386 390 386 c 0xb5
 357 386 357 403 347 403 c 0
 333 403 324 379 296 379 c 0
 288 379 279 380 268 383 c 0
 237 389 229 397 220 425 c 0
 217 437 215 446 215 453 c 0xc5
296 414 m 0
 313 414 324 445 324 464 c 0
 324 486 312 499 301 499 c 0
 274 499 256 452 256 438 c 0
 256 422 270 414 296 414 c 0
EndSplineSet
EndChar

StartChar: uni0E04
Encoding: 253 3588 110
Width: 612
Flags: W
HStem: 478 48<394.131 478.489>
VStem: 138 72<13.0527 141.718> 364 58<273.804 340.582> 453 62<17.9562 173.254> 506 51<226.851 448.344>
LayerCount: 2
Fore
SplineSet
453 35 m 0xf0
 453 85 506 321 506 354 c 0
 506 411 480 478 451 478 c 0
 432 478 378 450 344 426 c 2
 304 398 l 1
 335 385 l 2
 352 377 371 371 378 371 c 0
 394 371 379 346 400 346 c 0
 406 346 422 334 422 311 c 0
 422 269 364 215 275 206 c 0
 258 204 242 200 237 196 c 0
 233 193 221 151 210 103 c 0
 183 -16 183 -16 162 -16 c 0
 145 -16 138 -12 138 11 c 0
 138 21 139 36 142 55 c 0
 153 129 141 136 155 142 c 0
 160 145 164 153 164 165 c 0
 164 174 161 183 155 183 c 0
 151 183 150 189 150 198 c 0
 150 243 174 384 369 499 c 0
 400 517 429 526 456 526 c 0
 496 526 557 507 557 395 c 0xe8
 557 283 513 106 515 59 c 0
 515 45 509 16 483 16 c 0
 477 16 453 20 453 35 c 0xf0
285 256 m 0
 333 256 364 286 364 307 c 0
 364 330 335 349 321 349 c 0
 298 349 264 331 264 294 c 1
 263 284 262 277 262 272 c 0
 262 258 268 256 285 256 c 0
EndSplineSet
EndChar

StartChar: uni0E05
Encoding: 254 3589 111
Width: 670
Flags: W
HStem: 214 53<248.007 372.417> 349 28<263.2 339.997> 453 61<586.466 645> 481 52<317.062 413.7>
VStem: 118 68<-18.5231 66.6> 374 34<275.431 321.512> 428 64<250.24 338.672> 620 58<299.303 452.731>
LayerCount: 2
Fore
SplineSet
120 88 m 0xdf
 120 120 113 117 113 139 c 0
 113 160 117 199 126 241 c 0
 135 284 148 310 181 366 c 0
 237 463 260 490 310 515 c 0
 334 528 351 533 371 533 c 0xdf
 503 533 483 414 493 414 c 0
 504 414 570 500 596 508 c 0
 609 512 619 514 628 514 c 0
 662 514 677 487 678 427 c 1
 678 360 609 28 591 15 c 1
 591 15 580 10 570 10 c 0
 559 10 548 15 548 33 c 0
 548 54 557 98 578 196 c 0
 622 402 617 414 620 445 c 0
 621 451 619 453 616 453 c 0xef
 595 453 501 339 492 296 c 0
 484 260 470 242 449 242 c 0
 434 242 428 249 428 270 c 0
 428 287 437 340 437 357 c 0
 437 375 431 378 425 422 c 0
 419 462 404 481 377 481 c 0
 299 481 245 374 245 374 c 1
 273 374 287 377 315 377 c 0
 377 377 408 354 408 309 c 0
 408 301 407 293 405 283 c 0
 396 243 393 239 354 225 c 0
 334 218 303 214 278 214 c 2
 266 214 l 1
 221 217 l 1
 186 29 l 1
 177 -13 172 -21 149 -21 c 0
 123 -21 118 0 118 27 c 0
 118 46 120 68 120 88 c 0xdf
311 349 m 0
 289 349 248 313 248 288 c 0
 248 278 257 267 312 267 c 0
 349 267 374 278 374 294 c 0
 374 318 324 349 311 349 c 0
EndSplineSet
EndChar

StartChar: uni0E06
Encoding: 255 3590 112
Width: 829
Flags: W
HStem: 14 72<439.966 472.982> 353 43<221 285.429> 469 90<468.27 521> 498 50<257.46 308.953>
VStem: 182 55<396.073 480.84> 379 50<94.6337 188.881> 500 66<334.409 467.224> 696 68<54.4409 165.344>
LayerCount: 2
Fore
SplineSet
182 428 m 0xef
 182 496 292 548 303 548 c 0xdf
 312 548 337 530 357 509 c 2
 395 469 l 1
 443 515 l 2
 474 545 497 559 515 559 c 0
 527 559 537 553 545 541 c 0
 556 525 566 454 566 402 c 0
 566 365 562 364 562 355 c 0
 562 320 642 344 696 268 c 0
 705 257 714 248 718 248 c 0
 724 248 760 461 764 481 c 0
 773 525 783 555 819 555 c 0
 831 555 838 552 838 527 c 0
 838 499 829 442 809 328 c 0
 787 202 764 72 764 71 c 0
 758 45 745 39 737 39 c 0
 723 39 712 59 696 111 c 0
 669 198 616 270 580 270 c 0
 564 270 558 267 555 254 c 0
 553 243 548 146 538 99 c 0
 522 23 470 14 454 14 c 0
 423 14 430 44 418 44 c 0
 413 44 413 41 407 41 c 0
 392 41 379 74 379 122 c 0
 379 220 408 238 443 270 c 0
 506 329 493 327 499 423 c 0
 499 429 500 434 500 439 c 0
 500 459 496 469 488 469 c 0
 482 469 473 462 460 449 c 0
 437 425 399 407 376 407 c 0
 357 407 362 418 347 418 c 0
 332 418 313 404 309 386 c 0
 306 373 251 353 227 353 c 0
 215 353 212 362 212 369 c 0
 212 375 217 393 201 393 c 0
 189 393 182 409 182 428 c 0xef
278 498 m 0
 245 498 237 418 237 413 c 0
 237 400 242 396 250 396 c 0
 266 396 289 414 293 432 c 0
 294 436 293 436 294 443 c 0
 298 459 309 467 309 475 c 0
 309 486 293 498 278 498 c 0
479 217 m 0
 473 217 429 174 429 141 c 0
 429 110 458 86 462 86 c 0
 473 86 486 168 486 191 c 0
 486 212 481 217 479 217 c 0
EndSplineSet
EndChar

StartChar: uni0E07
Encoding: 256 3591 113
Width: 420
Flags: W
HStem: 5 95<284.865 339> 345 47<190.5 273.647> 488 59<275.172 354.573>
VStem: 142 69<376.5 429.22> 355 75<342.729 486.499> 373 57<270 433>
LayerCount: 2
Fore
SplineSet
142 388 m 0xf4
 142 420 257 547 345 547 c 0
 413 547 430 504 430 433 c 0xf8
 430 380 420 305 399 209 c 0
 358 16 351 5 327 5 c 0
 296 5 290 29 234 69 c 0
 178 109 157 131 157 148 c 0
 157 160 167 175 184 175 c 0
 225 175 289 100 313 100 c 0
 314 100 316 101 316 102 c 0
 335 167 374 384 373 405 c 2
 371 433 l 1
 340 403 l 2
 313 378 269 345 209 345 c 0
 172 345 142 365 142 388 c 0xf4
325 488 m 0
 270 488 211 418 211 396 c 0
 211 393 212 392 215 392 c 0
 231 392 298 422 300 432 c 0
 303 446 355 452 355 465 c 0
 355 471 348 488 325 488 c 0
EndSplineSet
EndChar

StartChar: uni0E08
Encoding: 257 3592 114
Width: 451
Flags: W
HStem: 180 48<182.047 296.352> 314 42<226.013 312.465> 483 70<352.311 425.5>
VStem: 119 62<230.993 272.702> 388 67<338.812 511.5>
LayerCount: 2
Fore
SplineSet
388 455 m 0
 388 466 388 483 368 483 c 0
 324 483 247 397 195 397 c 0
 181 397 177 405 178 410 c 0
 184 440 279 487 341 525 c 0
 372 544 393 553 410 553 c 0
 441 553 455 534 455 489 c 0
 455 454 447 403 432 333 c 0
 372 52 340 2 309 2 c 0
 304 2 301 6 301 18 c 0
 301 53 320 141 320 194 c 0
 320 203 320 209 318 211 c 0
 304 228 316 198 290 198 c 0
 264 198 256 180 220 180 c 0
 175 180 119 208 119 237 c 0
 119 256 144 288 156 288 c 0
 160 288 168 280 172 299 c 0
 178 328 243 356 288 356 c 0
 327 356 355 314 374 314 c 0
 382 314 388 437 388 455 c 0
267 314 m 0
 235 314 181 253 181 243 c 0
 181 231 216 228 228 228 c 0
 294 228 321 273 321 282 c 0
 321 293 285 314 267 314 c 0
EndSplineSet
EndChar

StartChar: uni0E09
Encoding: 258 3593 115
Width: 636
Flags: W
HStem: -8 82<249.5 311.412> 51 54<507 540.15> 243 48<130.5 226.995> 360 46<195.045 258.875> 495 60<457.732 521.806>
VStem: 92 63<272 323.869> 235 65<17.8285 202.101> 261 62<211.343 359.211> 479 41<105.004 134.282> 533 65<335.126 501.545> 564 57<131.21 224.5>
LayerCount: 2
Fore
SplineSet
349 430 m 0xbec0
 328 430 341 410 317 410 c 0
 310 410 292 414 292 428 c 0
 292 435 297 447 316 462 c 0
 343 482 428 529 439 529 c 0
 456 529 496 555 516 555 c 0
 526 555 536 550 554 541 c 0
 584 526 598 507 598 468 c 0xbec0
 598 414 569 319 569 287 c 0
 569 273 574 270 585 265 c 0
 608 255 621 238 621 211 c 0
 621 170 580 51 513 51 c 0x7ca0
 501 51 496 55 498 63 c 0
 503 81 479 81 479 97 c 0
 479 109 492 135 479 135 c 0
 444 135 313 -8 259 -8 c 0
 240 -8 235 8 235 39 c 0xbea0
 235 120 276 284 271 284 c 1
 216 260 l 2
 190 248 167 243 148 243 c 0
 113 243 92 260 92 284 c 0
 92 333 191 406 247 406 c 0
 281 406 323 378 323 323 c 0xbd80
 323 283 300 144 300 89 c 0
 300 78 301 74 303 74 c 0
 306 74 352 111 402 155 c 2
 495 235 l 1
 516 340 l 2
 526 391 533 438 533 465 c 0
 533 493 523 508 522 501 c 1
 518 490 505 495 502 495 c 0
 474 495 367 430 349 430 c 0xbec0
247 306 m 0
 255 306 261 318 261 329 c 0x3d80
 261 347 244 360 235 360 c 0
 215 360 155 309 155 299 c 0
 155 295 158 291 169 291 c 0
 194 291 214 309 236 309 c 0
 243 309 242 306 247 306 c 0
555 206 m 0
 534 206 520 151 520 120 c 0
 520 111 522 105 525 105 c 0
 538 105 564 189 564 198 c 0x7ca0
 564 204 561 206 555 206 c 0
EndSplineSet
EndChar

StartChar: uni0E0A
Encoding: 259 3594 116
Width: 575
Flags: W
HStem: 335 52<154.005 262.22> 377 42<270.328 315.733> 460 40<400.181 430.47> 490 55<260.889 345>
VStem: 111 69<358 417.519> 447 68<326.598 459.803>
LayerCount: 2
Fore
SplineSet
181 335 m 0x8c
 128 335 111 348 111 368 c 0
 111 415 173 458 219 496 c 0
 249 522 302 545 328 545 c 0x9c
 362 545 379 500 395 500 c 0
 424 500 516 599 619 652 c 0
 657 672 675 680 683 680 c 0
 690 680 693 673 693 669 c 0
 693 652 633 591 608 582 c 0
 596 578 564 554 537 530 c 2
 487 485 l 1
 504 457 l 2
 511 446 515 438 515 424 c 0
 515 416 513 405 510 391 c 0
 470 202 374 18 315 3 c 0
 306 1 297 0 290 0 c 0
 271 0 262 10 262 41 c 0
 262 114 316 301 316 366 c 0
 316 373 315 377 313 377 c 0x6c
 290 377 265 335 181 335 c 0x8c
291 419 m 0x4c
 318 419 323 433 323 450 c 0
 323 466 319 490 307 490 c 0
 298 490 282 483 252 468 c 0
 221 453 180 434 180 403 c 0
 180 393 194 387 210 387 c 0x9c
 255 387 257 419 291 419 c 0x4c
447 413 m 0
 447 433 436 460 429 460 c 0x2c
 397 460 388 419 371 338 c 0
 355 262 333 149 333 108 c 0
 333 98 334 93 337 93 c 0
 348 93 404 185 438 346 c 0
 444 373 447 396 447 413 c 0
EndSplineSet
EndChar

StartChar: uni0E0B
Encoding: 260 3595 117
Width: 666
Flags: W
HStem: -17 76<404.5 460.999> 346 53<162.624 191.103> 386 52<485.063 515.698> 510 49<191.973 248.318>
VStem: 116 46<399.47 485.342> 382 57<60.1931 272.771> 551 59<249.645 377.882>
DStem2: 330 468 369 429 0.737154 0.675725<0.221182 81.946> 504 169 519 84 0.371391 0.928477<-123.823 141.39>
LayerCount: 2
Fore
SplineSet
487 438 m 0xbe
 493 438 697 604 749 604 c 0
 763 604 766 594 766 587 c 0
 766 546 575 453 575 425 c 0
 575 414 593 396 593 384 c 0
 593 359 610 368 610 337 c 0
 610 300 567 189 558 169 c 2
 519 84 l 2
 493 27 447 -17 416 -17 c 0
 393 -17 382 13 382 79 c 0
 382 143 392 241 413 380 c 2
 429 484 l 1
 369 429 l 2
 335 397 312 381 297 381 c 0
 286 381 280 391 278 410 c 2
 276 433 l 1
 254 407 l 1
 216 365 190 346 167 346 c 0xde
 126 346 116 386 116 422 c 0
 116 482 136 493 163 515 c 0
 214 559 238 559 247 559 c 0
 275 559 307 543 307 528 c 0
 307 524 306 510 317 490 c 2
 330 468 l 1
 380 516 l 2
 414 548 438 564 456 564 c 0
 482 564 486 530 486 497 c 0
 486 478 485 460 485 449 c 0
 485 442 485 438 487 438 c 0xbe
169 399 m 0
 189 399 225 490 239 490 c 0
 250 490 258 510 237 510 c 0
 221 510 196 500 184 486 c 0
 175 477 162 431 162 413 c 0
 162 404 165 399 169 399 c 0
439 73 m 0
 439 65 440 59 445 59 c 0
 456 59 477 99 504 169 c 2
 546 274 l 1
 549 278 551 292 551 303 c 0
 551 316 549 330 545 344 c 0
 535 377 527 386 507 386 c 0xbe
 484 386 482 382 472 337 c 0
 458 270 439 114 439 73 c 0
EndSplineSet
EndChar

StartChar: uni0E0C
Encoding: 261 3596 118
Width: 817
Flags: W
HStem: -29 68<490.012 518.085> -18 21G<695.5 711> 14 90<235.192 315.82> 490 57<370.101 545.373>
VStem: 177 53<104.539 371.777> 437 53<39.9325 111.42> 569 64<217 464.813>
LayerCount: 2
Fore
SplineSet
230 239 m 0x9e
 230 130 233 104 245 104 c 0
 247 104 265 112 310 118 c 0
 318 119 325 120 331 120 c 0
 343 120 350 115 350 101 c 0
 350 78 336 57 324 44 c 0
 301 19 289 14 252 14 c 0
 190 14 152 -22 134 -22 c 0
 124 -22 119 -8 119 -1 c 0
 119 16 174 52 177 67 c 1
 177 67 175 70 175 108 c 0
 175 152 177 195 177 254 c 0
 177 345 171 361 154 374 c 0
 144 382 136 394 136 401 c 0
 136 418 319 515 373 532 c 0
 385 536 425 547 499 547 c 0
 548 547 564 542 592 517 c 0
 622 491 633 462 633 395 c 0
 633 341 627 300 627 260 c 0
 627 208 642 218 686 182 c 2
 710 162 l 1
 732 261 l 2
 744 316 765 395 778 436 c 0
 800 507 804 514 836 514 c 0
 853 514 861 508 861 492 c 0
 861 456 826 400 773 174 c 0
 735 14 723 -18 699 -18 c 0x7e
 692 -18 687 -13 687 -2 c 0
 687 6 690 10 690 26 c 0
 690 67 666 122 641 137 c 2
 616 151 l 1
 589 80 l 2
 562 9 528 -29 494 -29 c 0
 486 -29 437 -24 437 44 c 0
 437 51 441 120 457 120 c 0
 464 120 470 126 471 133 c 0
 472 140 494 162 519 181 c 2
 565 217 l 1
 568 289 l 2
 569 310 569 329 569 346 c 0
 569 455 551 490 486 490 c 0
 405 490 280 440 242 410 c 1
 236 404 230 351 230 239 c 0x9e
541 140 m 0
 530 140 490 91 490 58 c 0
 490 48 493 39 499 39 c 0x9e
 517 39 544 117 544 136 c 0
 544 139 543 140 541 140 c 0
EndSplineSet
EndChar

StartChar: uni0E0D
Encoding: 262 3597 119
Width: 821
Flags: W
HStem: -244 72<570.915 640.68> -20 71<509.5 585.989> -9 53<251.639 309.038> 79 62<261.105 359.1> 455 58<372.926 487.613> 534 20G<791 804.5>
VStem: 173 58<125.192 352.025> 314 65<59.2242 127.299> 484 61<51.2612 236.303> 504 66<-171.201 -100.008> 513 67<175.927 427.357>
LayerCount: 2
Fore
SplineSet
504 -143 m 0x9f40
 504 -103 547 -46 576 -46 c 0
 589 -46 615 -71 615 -79 c 0
 615 -89 570 -99 570 -144 c 0
 570 -166 586 -172 594 -172 c 0
 633 -172 707 -85 735 -85 c 0
 743 -85 745 -95 744 -102 c 0
 740 -120 704 -161 689 -187 c 0
 676 -210 613 -244 584 -244 c 0
 557 -244 504 -192 504 -143 c 0x9f40
580 388 m 0xbf20
 580 289 545 108 545 58 c 0
 545 53 546 51 547 51 c 0
 553 51 588 69 626 93 c 0
 691 133 701 142 708 174 c 0
 732 288 733 462 742 503 c 0
 752 548 787 554 795 554 c 0
 814 554 820 541 820 516 c 0
 820 468 797 377 784 247 c 0
 770 102 737 85 646 34 c 0
 588 1 548 -20 523 -20 c 0
 496 -20 484 4 484 62 c 0xdf80
 484 158 513 318 513 368 c 0
 513 395 507 409 492 428 c 0
 478 446 466 455 447 455 c 0
 410 455 248 386 241 358 c 1
 241 358 231 188 231 174 c 0
 231 136 237 122 255 122 c 0
 277 122 303 141 341 141 c 0
 372 141 379 129 379 115 c 0
 379 60 298 -9 267 -9 c 0
 236 -9 192 -31 167 -31 c 0
 141 -31 117 -12 117 2 c 0
 117 28 161 16 167 43 c 0
 168 45 173 129 173 209 c 0
 173 272 170 332 157 344 c 0
 149 352 147 362 149 372 c 0
 152 387 168 404 195 418 c 0
 328 488 389 513 466 513 c 0
 548 513 580 488 580 388 c 0xbf20
258 44 m 0xbf
 271 44 314 57 314 75 c 0
 314 77 312 79 310 79 c 0
 296 79 251 55 251 47 c 0
 251 45 254 44 258 44 c 0xbf
EndSplineSet
Substitution2: "Thai Descender Removal Single Substitution" uni0E0D.descless
EndChar

StartChar: uni0E0E
Encoding: 263 3598 120
Width: 598
Flags: W
HStem: -246 21G<432 470> -209 55<167.634 287.708> -137 66<339.006 386.43> -71 50<196.37 313.09> -15 38<103 186.214> 138 37<162.763 230.053> 518 20G<508.5 554.5>
VStem: 75 48<23.2168 93.2027> 106 61<-152.525 -99.8683> 204 111<318.5 366> 525 64<240.608 485.774>
AnchorPoint: "BelowBase" 363 -251 basechar 0
LayerCount: 2
Fore
SplineSet
537 538 m 0xfee0
 572 538 589 502 589 439 c 0
 589 388 579 310 558 185 c 0
 539 70 503 -159 495 -197 c 0
 488 -230 483 -246 457 -246 c 0
 407 -246 413 -137 376 -137 c 0
 353 -137 299 -209 210 -209 c 0
 180 -209 106 -196 106 -148 c 0xfee0
 106 -111 152 -70 168 -56 c 0
 200 -28 211 -21 234 -21 c 0
 345 -21 337 -71 368 -71 c 0
 387 -71 362 -59 427 -16 c 2
 470 12 l 1
 491 142 l 1
 512 258 525 386 525 448 c 0
 525 472 523 486 519 486 c 2
 518 486 l 1
 407 422 l 2
 362 396 315 370 315 362 c 0
 315 351 381 370 381 305 c 0
 381 227 313 143 296 100 c 0
 266 22 149 -15 117 -15 c 0
 89 -15 112 6 88 6 c 0
 79 6 75 24 75 42 c 0xff60
 75 99 97 73 106 115 c 0
 114 154 151 146 192 170 c 0
 199 173 212 175 226 175 c 0
 232 175 239 175 245 174 c 2
 279 168 l 1
 306 231 l 2
 316 255 333 296 328 301 c 0
 325 305 297 309 267 309 c 0
 226 309 204 315 204 322 c 0
 204 333 222 329 278 388 c 0
 319 431 480 538 537 538 c 0xfee0
231 82 m 0
 232 84 232 90 232 98 c 0
 232 115 229 138 216 138 c 0
 208 138 195 133 173 124 c 0
 140 111 135 104 127 68 c 0
 125 58 123 50 123 43 c 0xff60
 123 29 129 23 140 23 c 0
 150 23 222 40 231 82 c 0
465 -41 m 0
 450 -41 437 -72 437 -99 c 0
 437 -117 443 -127 445 -127 c 0
 453 -127 468 -41 465 -41 c 0
248 -71 m 0
 197 -71 167 -126 167 -138 c 0xfee0
 167 -149 181 -154 211 -154 c 0
 274 -154 272 -139 311 -119 c 1
 320 -113 326 -108 326 -105 c 0
 326 -96 281 -71 248 -71 c 0
EndSplineSet
EndChar

StartChar: uni0E0F
Encoding: 264 3599 121
Width: 606
Flags: W
HStem: -194 65<-60.6952 60.5091> -90 101<161.347 217.763> -41 66<66.2972 184.5> 51 63<162.5 209.744> 95 19<190 240> 213 44<202.81 287.791> 512 69<471.595 561.121>
VStem: -87 96<-166.5 -120.191> 120 56<114.472 186.253> 239 74<381.216 413.244> 381 61<320.725 407.23> 567 61<308.648 511.135>
AnchorPoint: "BelowBase" 371 -251 basechar 0
LayerCount: 2
Fore
SplineSet
120 123 m 0x97f0
 120 202 214 257 266 257 c 0
 289 257 296 242 309 242 c 0
 322 242 333 262 361 324 c 0
 371 346 381 369 381 380 c 0
 381 402 351 414 336 414 c 0
 324 414 315 410 313 400 c 0
 310 384 277 374 255 374 c 0
 241 374 237 380 239 389 c 0
 246 421 335 496 440 545 c 0
 483 566 524 581 543 581 c 0
 574 581 628 555 628 483 c 0
 628 406 593 188 555 12 c 0
 501 -240 488 -243 463 -243 c 0
 443 -243 422 -227 422 -205 c 0
 422 -190 405 -177 400 -169 c 0
 387 -152 369 -85 359 -85 c 0
 344 -85 289 -240 259 -240 c 0
 232 -240 233 -125 218 -101 c 0
 213 -94 204 -90 194 -90 c 0xd7f0
 177 -90 157 -99 148 -114 c 0
 120 -156 22 -194 -37 -194 c 0
 -80 -194 -87 -172 -87 -161 c 0
 -87 -125 44 -1 86 14 c 0
 107 21 135 25 159 25 c 0xa7f0
 210 25 201 11 213 11 c 0
 236 11 282 56 314 56 c 0
 321 56 326 51 325 44 c 0
 321 21 267 -21 267 -47 c 0
 267 -61 277 -84 286 -84 c 0
 307 -84 317 -14 364 -14 c 0
 427 -14 438 -130 456 -130 c 0
 465 -130 468 -100 497 54 c 0
 553 347 567 424 567 458 c 0
 567 470 565 476 563 485 c 0
 558 505 554 512 540 512 c 0
 504 512 415 478 415 466 c 0
 415 455 442 442 442 399 c 0
 442 334 368 220 349 198 c 0
 338 185 327 166 325 158 c 0
 322 143 257 95 240 95 c 0xcff0
 225 95 199 51 172 51 c 0
 153 51 120 79 120 123 c 0x97f0
267 159 m 1
 267 196 288 185 288 202 c 0
 288 207 284 213 268 213 c 0
 241 213 197 196 193 178 c 0
 191 167 176 142 176 127 c 0
 176 119 179 114 190 114 c 0
 214 114 263 140 267 159 c 1
115 -91 m 0
 119 -69 154 -67 154 -52 c 0
 154 -45 139 -41 120 -41 c 0xa7f0
 91 -41 76 -49 43 -82 c 0
 37 -88 9 -116 9 -121 c 0
 9 -127 21 -129 32 -129 c 0
 62 -129 112 -107 115 -91 c 0
EndSplineSet
EndChar

StartChar: uni0E10
Encoding: 265 3600 122
Width: 606
Flags: W
HStem: -237 51<292.938 314.952> -232 63<18.5386 70.7375> -173 68<203.083 256.5> -134 48<51.5372 83.3132> -19 21G<382.5 401> 182 42<254.426 354.601> 306 44<295.987 380.939> 441 79<550.519 600.709> 500 54<451.832 532.584>
VStem: -15 65<-212.371 -135.688> 201 53<211.5 270.156> 297 153<405 493> 308 82<-184.456 -78.7197> 422 60<331.521 427.079>
LayerCount: 2
Fore
SplineSet
368 -60 m 0xae68
 385 -60 390 -68 390 -110 c 0
 390 -147 366 -198 339 -225 c 0
 331 -233 321 -237 310 -237 c 0
 261 -237 241 -173 226 -173 c 0xae68
 214 -173 180 -234 150 -234 c 0
 138 -234 129 -222 119 -199 c 2
 107 -172 l 1
 84 -198 l 2
 64 -220 37 -232 17 -232 c 0
 -7 -232 -15 -214 -15 -194 c 0
 -15 -159 9 -109 37 -93 c 0
 44 -89 69 -86 92 -86 c 0x5e68
 164 -86 190 -41 231 -41 c 0
 237 -41 240 -43 239 -49 c 0
 236 -65 175 -110 169 -138 c 0
 168 -145 167 -149 169 -149 c 0
 177 -149 216 -105 251 -105 c 0
 262 -105 261 -110 261 -115 c 0
 261 -129 305 -186 317 -186 c 0
 331 -186 308 -158 308 -144 c 0
 308 -136 310 -128 318 -105 c 0
 330 -74 335 -60 368 -60 c 0xae68
50 -164 m 0
 50 -167 51 -169 56 -169 c 0
 80 -169 106 -134 79 -134 c 0x5e60
 61 -134 50 -152 50 -164 c 0
297 413 m 0x0ef0
 297 457 414 554 500 554 c 0x0ef0
 555 554 573 520 581 520 c 0
 599 520 624 605 651 605 c 0
 658 605 666 601 666 586 c 0
 666 561 616 441 582 441 c 0x0f70
 551 441 541 500 472 500 c 0
 455 500 450 496 450 490 c 0x0ef0
 450 477 482 494 482 372 c 0x0ee4
 482 264 461 154 450 101 c 0x0ef0
 425 -15 412 -19 390 -19 c 0
 375 -19 368 -16 368 7 c 0
 368 43 387 143 387 188 c 0
 387 206 384 214 377 214 c 0
 353 214 359 182 279 182 c 0
 228 182 201 198 201 225 c 0
 201 267 286 350 357 350 c 0
 391 350 407 329 421 329 c 0
 422 329 422 330 422 330 c 1
 422 383 l 2x0eec
 422 414 418 429 404 429 c 0
 381 429 332 387 316 387 c 0
 310 387 297 397 297 413 c 0x0ef0
349 306 m 0
 329 306 254 267 254 241 c 0
 254 233 263 224 289 224 c 0
 330 224 389 246 389 269 c 0
 389 283 360 306 349 306 c 0
EndSplineSet
Substitution2: "Thai Descender Removal Single Substitution" uni0E10.descless
EndChar

StartChar: uni0E11
Encoding: 266 3601 123
Width: 772
Flags: W
HStem: 329 45<142.5 192.508> 471 38<212.333 261.5> 472 80<682.754 733.5>
VStem: 129 53<352.105 437.149> 436 64<287.57 492.002> 721 60<277.825 471.206>
LayerCount: 2
Fore
SplineSet
129 380 m 0xbc
 129 491 234 509 250 509 c 0xdc
 273 509 292 497 308 473 c 2
 332 436 l 1
 373 474 l 2
 414 512 444 531 465 531 c 0
 489 531 500 507 500 456 c 0
 500 430 497 396 491 355 c 2
 477 254 l 1
 516 322 l 2
 596 462 687 552 730 552 c 0
 737 552 744 549 754 543 c 0
 772 532 781 506 781 460 c 0
 781 366 726 92 726 92 c 1
 710 17 700 -2 683 -2 c 0
 678 -2 672 0 665 2 c 0
 658 4 655 8 655 21 c 0
 655 73 721 323 721 436 c 0
 721 465 716 472 710 472 c 0
 695 472 662 434 597 341 c 0
 538 258 514 211 448 58 c 0
 426 7 401 -25 384 -25 c 0
 370 -25 372 -10 372 -9 c 0
 372 54 436 396 436 447 c 0
 436 453 435 454 432 454 c 0
 405 454 319 314 311 314 c 0
 293 314 280 326 280 344 c 0
 280 351 282 356 282 363 c 0
 282 374 276 379 265 379 c 0
 228 379 179 329 152 329 c 0
 133 329 129 356 129 380 c 0xbc
186 374 m 0
 197 374 247 417 247 447 c 0
 247 459 242 471 233 471 c 0
 213 471 182 391 182 380 c 0
 182 377 183 374 186 374 c 0
EndSplineSet
EndChar

StartChar: uni0E12
Encoding: 267 3602 124
Width: 730
Flags: W
HStem: -32 57<155.903 194.434> 180 34<205.641 260.166> 274 50<230.761 282.599> 415 76<258.769 301.901> 454 95<499.966 540>
VStem: 93 44<41.0215 145.219> 396 56<42.2885 138.31> 513 58<235.553 399.095> 517 62<291.15 453.678> 706 71<437.5 484.641>
LayerCount: 2
Fore
SplineSet
93 110 m 0xeec0
 93 306 251 491 294 491 c 0xf6c0
 350 491 360 376 375 376 c 0
 385 376 426 458 486 515 c 0
 505 534 527 549 532 549 c 0
 548 549 579 527 579 402 c 0xeec0
 579 340 571 279 571 267 c 0
 571 250 575 237 582 237 c 0
 589 237 608 216 622 192 c 2
 648 147 l 1
 678 313 l 1
 706 479 l 1
 735 487 739 488 742 488 c 0
 763 488 777 469 777 444 c 0
 777 423 773 441 713 192 c 0
 661 -23 658 -31 637 -31 c 0
 574 -31 612 167 563 170 c 0
 551 170 523 -38 463 -38 c 0
 446 -38 452 -9 430 -9 c 0
 410 -9 418 36 402 56 c 0
 398 62 396 69 396 77 c 0
 396 146 498 219 510 274 c 0
 512 284 513 296 513 312 c 0xef40
 515 370 517 404 517 425 c 0
 517 449 515 454 510 454 c 0
 497 454 373 275 350 251 c 0
 317 215 290 75 222 3 c 0
 199 -20 179 -32 162 -32 c 0
 129 -32 93 21 93 110 c 0xeec0
291 320 m 0
 305 320 315 332 315 350 c 0
 315 377 294 415 281 415 c 0
 269 415 205 326 205 309 c 0
 205 307 206 306 208 306 c 0
 217 306 245 324 268 324 c 0
 280 324 281 320 291 320 c 0
215 214 m 0
 239 214 275 228 275 249 c 0
 275 259 265 274 259 274 c 0
 247 274 205 224 204 220 c 0
 203 216 208 214 215 214 c 0
261 161 m 0
 263 172 261 180 257 180 c 0
 237 176 146 148 142 144 c 0
 140 141 137 138 137 125 c 0
 137 91 158 25 174 25 c 0
 185 25 254 134 261 161 c 0
495 166 m 0
 476 166 452 95 452 55 c 0
 452 45 454 42 455 42 c 0
 467 42 498 146 498 159 c 0
 498 163 497 166 495 166 c 0
EndSplineSet
EndChar

StartChar: uni0E13
Encoding: 268 3603 125
Width: 779
Flags: W
HStem: -26 37<199.733 230.903> 28 93<477.085 535> 69 52<215.602 282.5> 479 63<378.094 476.163>
VStem: 128 71<11.5051 134.769> 134 47<54.4541 193.64> 253 59<29.1482 95> 466 66<56.6103 267.007> 496 56<167.102 463.413> 658 109<80.6942 142>
LayerCount: 2
Fore
SplineSet
128 58 m 0xba40
 128 140 170 284 170 324 c 0
 170 333 168 336 164 336 c 0
 159 336 155 334 149 334 c 0
 139 334 134 341 134 351 c 0
 134 358 137 370 148 384 c 0
 184 435 393 542 462 542 c 0
 534 542 552 455 552 361 c 0xb6c0
 552 261 532 153 532 127 c 0
 532 123 532 121 533 121 c 0
 537 121 616 177 652 206 c 0
 694 241 714 479 752 504 c 0
 758 508 766 509 773 509 c 0
 789 509 795 502 795 488 c 0
 795 451 747 307 747 266 c 0
 747 234 767 229 767 174 c 0
 767 98 714 6 687 6 c 0
 671 6 662 31 658 79 c 2
 653 142 l 1
 578 84 l 2
 533 49 503 28 486 28 c 0
 471 28 466 47 466 77 c 0xd340
 466 148 496 281 496 368 c 0
 496 388 494 406 490 420 c 0
 476 472 468 479 446 479 c 0
 422 479 384 466 332 440 c 2
 253 400 l 1
 217 253 l 2
 216 247 181 111 181 99 c 0xd6c0
 181 96 182 95 185 95 c 0
 203 95 234 121 270 121 c 0
 295 121 312 107 312 83 c 0
 312 40 261 -26 208 -26 c 0
 153 -26 128 -6 128 58 c 0xba40
208 11 m 0
 221 11 253 52 253 64 c 0
 253 68 252 69 249 69 c 0
 238 69 199 37 199 23 c 0xba40
 199 17 204 11 208 11 c 0
EndSplineSet
EndChar

StartChar: uni0E14
Encoding: 269 3604 126
Width: 511
Flags: W
HStem: -30 46<117.793 175.311> 118 51<147.002 218.999> 226 42<205.795 244.997> 491 56<371.867 457.139>
VStem: 65 44<18.6652 116.276> 245 63<128.202 225.876> 401 67<18.7529 163.574> 468 56<286.847 481.193>
LayerCount: 2
Fore
SplineSet
120 -30 m 0
 76 -30 65 29 65 66 c 0
 65 101 77 143 123 241 c 0
 165 331 310 499 376 530 c 0
 400 542 421 547 441 547 c 0
 462 547 481 541 494 527 c 0
 513 508 524 488 524 440 c 0
 524 383 508 285 468 99 c 0
 452 23 445 10 433 4 c 0
 425 0 418 -3 413 -3 c 0
 405 -3 401 4 401 22 c 0
 401 93 468 359 468 430 c 0
 468 465 446 491 422 491 c 0
 388 491 339 450 274 370 c 0
 229 314 208 288 205 276 c 0
 204 270 207 268 216 268 c 0
 230 268 238 271 252 271 c 0
 290 271 308 248 308 211 c 0
 308 161 277 102 236 44 c 0
 205 0 189 -13 157 -23 c 0
 142 -28 130 -30 120 -30 c 0
231 226 m 0
 184 226 147 193 147 177 c 0
 147 172 150 169 158 169 c 0
 180 169 237 192 239 201 c 0
 241 209 245 216 245 220 c 0
 245 224 241 226 231 226 c 0
136 16 m 0
 165 16 247 100 247 130 c 0
 247 137 244 146 238 146 c 0
 221 146 195 118 146 118 c 0
 122 118 109 115 109 81 c 0
 109 51 123 16 136 16 c 0
EndSplineSet
EndChar

StartChar: uni0E15
Encoding: 270 3605 127
Width: 549
Flags: W
HStem: -1 54<134.633 204.134> 275 41<227.368 286.996> 454 63<266.751 325> 524 20G<549 559.5>
VStem: 83 49<54.7701 177.714> 287 63<240.145 282.788> 525 65<279.544 508.34>
LayerCount: 2
Fore
SplineSet
552 544 m 0
 567 544 590 535 590 477 c 0
 590 339 522 23 498 13 c 0
 496 12 494 12 492 12 c 0
 473 12 465 23 465 50 c 0
 465 115 525 353 525 423 c 0
 525 432 524 437 521 437 c 0
 515 437 505 429 493 416 c 0
 449 364 372 296 357 296 c 0
 354 296 352 299 349 299 c 0
 346 299 345 298 345 291 c 0
 345 282 350 277 350 264 c 0
 350 233 303 116 277 88 c 0
 222 28 182 -1 156 -1 c 0
 129 -1 95 31 95 55 c 0
 95 91 83 65 83 92 c 0
 83 105 86 128 94 164 c 0
 137 366 229 517 310 517 c 0
 340 517 350 502 368 445 c 0
 381 403 386 387 393 387 c 0
 396 387 400 392 406 400 c 0
 430 434 511 522 532 537 c 0
 539 542 546 544 552 544 c 0
292 454 m 0
 268 454 190 319 190 282 c 0
 190 275 193 273 195 273 c 0
 201 273 213 281 223 292 c 0
 241 311 256 316 290 316 c 2
 334 316 l 1
 319 385 l 2
 310 423 298 454 292 454 c 0
218 229 m 0
 227 229 237 239 265 239 c 0
 280 239 287 250 287 260 c 0
 287 268 282 275 272 275 c 0
 252 275 218 263 212 236 c 0
 211 232 213 229 218 229 c 0
164 53 m 0
 206 53 293 163 293 198 c 0
 293 201 292 203 288 203 c 0
 268 203 213 169 185 169 c 0
 169 169 157 182 143 182 c 0
 137 182 129 179 129 167 c 0
 129 156 136 143 136 122 c 0
 136 106 132 103 132 90 c 0
 132 68 144 53 164 53 c 0
EndSplineSet
EndChar

StartChar: uni0E16
Encoding: 271 3606 128
Width: 538
Flags: W
HStem: -47 20<194.94 217.274> 485 56<386.516 471.839>
VStem: 129 65<-26.9485 83.7259> 489 56<202.282 470.845>
LayerCount: 2
Fore
SplineSet
143 343 m 0
 143 401 358 541 465 541 c 0
 514 541 545 507 545 398 c 0
 545 325 531 219 499 67 c 0
 490 24 486 4 459 4 c 0
 445 4 437 15 437 34 c 0
 437 54 442 59 447 84 c 0
 465 168 489 351 489 405 c 0
 489 426 470 485 450 485 c 0
 425 485 338 443 311 429 c 0
 266 406 252 396 249 382 c 0
 248 376 253 368 219 210 c 2
 188 65 l 1
 238 90 l 2
 272 107 294 115 309 115 c 0
 321 115 326 110 326 98 c 0
 326 54 267 -47 209 -47 c 0
 194 -47 168 -40 153 -31 c 0
 139 -23 129 -21 129 10 c 0
 129 51 156 174 171 226 c 2
 200 329 l 1
 170 329 l 2
 150 329 143 333 143 343 c 0
241 34 m 0
 229 34 194 22 194 -11 c 0
 194 -20 198 -27 206 -27 c 0
 214 -27 247 19 247 31 c 0
 247 33 244 34 241 34 c 0
EndSplineSet
EndChar

StartChar: uni0E17
Encoding: 272 3607 129
Width: 617
Flags: W
HStem: 281 62<143 198.126> 311 43<186.17 244.555> 422 37<191.697 266> 469 66<543.593 594>
VStem: 99 60<306 374.663> 199 81<32.6215 132.022> 245 35<200.993 299.303> 251 53<286.335 417.697> 587 59<348.606 502.5>
LayerCount: 2
Fore
SplineSet
99 322 m 0xba80
 99 374 191 459 242 459 c 0
 290 459 304 419 304 369 c 0xb980
 304 304 280 223 280 200 c 0xba80
 280 196 281 193 283 193 c 0
 287 193 317 231 328 240 c 0
 333 243 345 264 356 288 c 0
 381 340 519 535 591 535 c 0
 597 535 646 531 646 474 c 0
 646 397 540 15 535 8 c 1
 532 2 522 -2 512 -2 c 0
 497 -2 492 4 492 15 c 0
 492 62 570 317 577 347 c 0
 585 383 587 412 587 433 c 0
 587 456 584 469 579 469 c 0
 564 469 478 398 475 383 c 0
 472 371 402 285 356 209 c 0
 313 138 307 159 280 82 c 0
 261 27 239 -3 217 -3 c 0
 204 -3 199 15 199 40 c 0xbc80
 199 134 245 232 245 283 c 0
 245 303 237 311 223 311 c 0x7a80
 185 311 202 281 154 281 c 0
 132 281 99 290 99 322 c 0xba80
230 354 m 1x7980
 248 356 251 371 251 378 c 0
 251 400 227 422 222 422 c 0
 216 422 191 416 186 391 c 0
 184 381 178 372 173 372 c 0
 165 372 159 359 159 350 c 0
 159 345 162 343 168 343 c 0xb980
 179 343 210 354 230 354 c 1x7980
EndSplineSet
EndChar

StartChar: uni0E18
Encoding: 273 3608 130
Width: 492
Flags: W
HStem: -20 110<230 291.5> 483 61<392.223 445.923>
VStem: 209 60<37.1707 286.682> 227 63<159.3 344.375> 361 60<272.761 442.46>
LayerCount: 2
Fore
SplineSet
361 376 m 0xe8
 361 441 351 443 332 443 c 0
 288 443 268 407 200 407 c 0
 185 407 171 411 171 424 c 0
 171 445 211 491 277 522 c 0
 307 536 364 544 407 544 c 0
 467 544 465 531 470 531 c 0
 483 531 504 592 526 628 c 0
 530 633 539 635 548 635 c 0
 558 635 572 633 572 621 c 0
 572 606 552 576 532 522 c 0
 524 501 507 474 494 461 c 2
 471 438 l 1
 446 461 l 2
 432 473 413 483 404 483 c 0
 397 483 392 482 392 478 c 0
 392 468 421 450 421 386 c 0
 421 369 419 349 414 324 c 0
 397 242 298 -20 242 -20 c 0
 218 -20 209 31 209 94 c 0xe8
 209 151 216 219 227 270 c 0
 243 347 251 361 280 361 c 0
 286 361 290 359 290 350 c 0xd8
 290 322 269 289 269 153 c 0
 269 117 272 90 277 90 c 0
 285 90 341 234 352 285 c 0
 357 310 361 348 361 376 c 0xe8
EndSplineSet
EndChar

StartChar: uni0E19
Encoding: 274 3609 131
Width: 681
Flags: W
HStem: -21 114<274.666 345.5> 46 73<530.43 594.541> 380 62<172.415 269.059> 498 65<246.29 307.793> 532 20G<640.5 655.5>
VStem: 143 82<404 450.483> 262 72<9.97446 221.747> 308 71<462.773 515.5> 528 26<120.585 159.389> 616 63<187.837 313> 618 53<483.347 551.561>
LayerCount: 2
Fore
SplineSet
262 27 m 0xa6c0
 262 134 311 368 311 398 c 0
 311 411 308 417 300 417 c 0
 280 417 257 380 199 380 c 0
 163 380 143 397 143 411 c 0
 143 422 182 501 239 537 c 0
 267 554 285 563 302 563 c 0
 317 563 331 557 351 545 c 0
 372 533 379 526 379 505 c 0xb580
 379 486 334 185 334 111 c 0
 334 99 336 93 338 93 c 0
 353 93 406 179 491 255 c 2
 546 304 l 1
 576 416 l 2
 593 478 613 534 618 541 c 0
 622 548 635 552 646 552 c 0
 665 552 671 546 671 534 c 0xaea0
 671 508 638 406 638 375 c 0
 638 340 679 335 679 291 c 0
 679 232 631 98 601 69 c 0
 593 61 562 46 544 46 c 0x6cc0
 525 46 515 58 515 85 c 0
 515 115 528 156 528 186 c 0
 528 194 527 200 525 200 c 0
 500 200 326 -21 285 -21 c 0
 269 -21 262 -6 262 27 c 0xa6c0
229 442 m 0
 239 442 308 461 308 489 c 0
 308 496 300 498 279 498 c 0
 255 498 242 494 240 483 c 0
 235 459 225 452 225 444 c 0
 225 442 226 442 229 442 c 0
606 187 m 2
 613 220 616 244 616 257 c 0
 616 266 614 270 612 270 c 0
 599 270 571 162 556 134 c 0
 554 131 554 130 554 127 c 0
 554 121 559 119 570 119 c 0x64c0
 587 119 592 124 602 169 c 2
 606 187 l 2
EndSplineSet
EndChar

StartChar: uni0E1A
Encoding: 275 3610 132
Width: 624
Flags: W
HStem: -16 67<319.5 420.316> 343 51<190 241.948> 491 55<256.301 345.5> 537 20G<636.5 651.5>
VStem: 134 62<368 439.249> 286 69<52.4817 287.327> 318 72<367.525 490.085> 598 67<342.885 546.505>
LayerCount: 2
Fore
SplineSet
327 -16 m 0xdd
 312 -16 286 -15 286 88 c 0xdd
 286 137 293 201 307 284 c 2
 332 428 l 1
 295 390 l 2
 264 359 230 343 196 343 c 0
 184 343 171 345 159 349 c 0
 148 352 134 356 134 380 c 0
 134 465 268 546 328 546 c 0
 363 546 343 524 374 524 c 0
 386 524 390 515 390 483 c 0xeb
 390 361 355 283 355 97 c 0
 355 57 356 51 368 51 c 0
 389 51 440 80 483 118 c 0
 515 146 549 185 580 333 c 0
 591 384 598 434 598 462 c 0
 598 492 583 490 588 508 c 0
 593 530 629 557 644 557 c 0
 659 557 665 536 665 503 c 0
 665 458 654 393 640 328 c 0
 617 221 590 165 528 92 c 0
 507 67 440 -16 327 -16 c 0xdd
290 491 m 0xeb
 254 491 196 422 196 400 c 0
 196 396 197 394 201 394 c 0
 207 394 267 429 275 438 c 1
 290 450 318 453 318 463 c 0
 318 470 309 491 290 491 c 0xeb
EndSplineSet
EndChar

StartChar: uni0E1B
Encoding: 276 3611 133
Width: 594
Flags: W
HStem: -12 71<311.2 379.392> 408 58<218 305.194> 513 44<254.527 313>
VStem: 182 57<466.683 502.264> 255 56<59.7745 202.573> 306 66<403.518 512.665>
AnchorPoint: "AboveBase" 567 560 basechar 0
LayerCount: 2
Fore
SplineSet
372 486 m 0xf4
 372 412 311 157 311 84 c 0
 311 64 329 59 337 59 c 0
 358 59 456 129 484 163 c 0
 545 239 611 669 643 821 c 0
 654 875 659 910 687 910 c 0
 697 910 707 901 707 885 c 0
 707 853 635 509 634 506 c 0
 570 207 561 170 476 87 c 0
 409 22 356 -12 318 -12 c 0
 281 -12 255 24 255 84 c 0xf8
 255 150 315 320 315 406 c 0
 315 418 314 425 309 425 c 0
 308 425 268 408 235 408 c 0
 201 408 182 448 182 468 c 0
 182 487 201 505 249 532 c 0
 280 550 296 557 309 557 c 0
 317 557 324 555 332 551 c 0
 360 537 372 526 372 486 c 0xf4
287 513 m 0
 284 513 239 500 239 482 c 0
 239 473 249 466 267 466 c 0
 291 466 306 482 306 492 c 0xf4
 306 503 293 513 287 513 c 0
EndSplineSet
EndChar

StartChar: uni0E1C
Encoding: 277 3612 134
Width: 575
Flags: W
HStem: 208 67<346.607 402.113> 341 66<255.262 379.227> 473 41<283.365 371.431> 509 20G<608 615>
VStem: 156 59<33.921 322.74> 381 55<413.786 460.532> 444 53<16.5879 92.1337>
LayerCount: 2
Fore
SplineSet
346 252 m 0xee
 349 266 372 275 383 275 c 0
 418 275 468 230 475 189 c 0
 476 183 477 180 479 180 c 0
 495 180 553 504 585 521 c 1
 592 526 604 529 612 529 c 0xde
 618 529 623 523 623 505 c 0
 623 408 505 60 497 21 c 0
 496 14 491 12 484 12 c 0
 469 12 447 24 444 39 c 0
 421 161 402 208 373 208 c 0
 360 208 346 204 284 103 c 0
 217 -5 200 -16 187 -16 c 0
 164 -16 156 24 156 81 c 0
 156 140 171 319 180 364 c 0
 194 430 221 467 269 491 c 0
 300 506 335 514 364 514 c 0
 403 514 436 502 436 456 c 0
 436 441 431 402 411 380 c 0
 391 358 333 341 291 341 c 0
 272 341 260 346 249 346 c 0
 230 346 228 329 224 249 c 1
 216 142 l 2
 215 135 215 129 215 124 c 0
 215 115 216 111 219 111 c 0
 227 111 261 142 267 171 c 0
 276 211 341 229 346 252 c 0xee
320 473 m 0xee
 294 473 261 431 261 420 c 0
 261 412 271 407 295 407 c 0
 345 407 381 413 381 436 c 0
 381 458 334 473 320 473 c 0xee
EndSplineSet
EndChar

StartChar: uni0E1D
Encoding: 278 3613 135
Width: 549
Flags: W
HStem: 215 78<304.76 343.547> 321 71<236.003 312.224> 515 20G<300.167 370.231>
VStem: 108 59<38 233.226> 329 67<399.833 469.352> 616 52<816.435 881.862>
AnchorPoint: "AboveBase" 522 560 basechar 0
LayerCount: 2
Fore
SplineSet
205 321 m 0
 197 321 167 243 167 132 c 0
 167 109 169 93 174 93 c 0
 185 93 239 174 258 217 c 0
 269 244 323 293 343 293 c 0
 359 293 388 257 406 208 c 1
 428 156 l 1
 444 194 l 1
 464 245 510 494 514 515 c 0
 552 695 616 879 616 879 c 2
 616 881 628 882 642 882 c 0
 659 882 668 877 668 859 c 0
 668 812 631 766 547 379 c 1
 485 101 456 6 413 6 c 0
 381 6 357 215 327 215 c 0
 299 215 237 51 185 5 c 0
 170 -9 162 -14 154 -14 c 0
 148 -14 141 -11 131 -5 c 0
 112 7 108 22 108 54 c 0
 108 170 121 215 121 215 c 1
 138 297 175 411 201 448 c 0
 222 479 243 494 290 511 c 1
 351 535 l 1
 376 509 l 2
 390 495 396 484 396 467 c 0
 396 459 395 451 393 440 c 0
 378 375 345 345 273 332 c 0
 240 326 209 321 205 321 c 0
326 432 m 0
 327 438 329 445 329 450 c 0
 329 463 321 471 286 471 c 0
 258 471 246 456 237 413 c 0
 236 409 236 406 236 403 c 0
 236 395 240 392 255 392 c 0
 321 392 321 409 326 432 c 0
EndSplineSet
EndChar

StartChar: uni0E1E
Encoding: 279 3614 136
Width: 647
Flags: W
HStem: 249 66<428.919 488.424> 274 46<140.493 212.394> 430 67<208.582 280.577> 509 20G<644.5 661.5>
VStem: 95 45<320.405 380.131> 611 74<330.02 519.2>
LayerCount: 2
Fore
SplineSet
571 206 m 0xbc
 579 206 611 381 611 460 c 0
 611 477 606 486 609 503 c 0
 613 520 640 529 649 529 c 0
 674 529 659 491 681 468 c 0
 684 466 685 460 685 451 c 0
 685 433 679 398 665 330 c 0
 595 3 588 -5 566 -5 c 0
 515 -5 536 138 524 150 c 1
 509 169 493 249 463 249 c 0xbc
 405 249 292 -29 246 -29 c 0
 242 -29 233 -28 233 -14 c 0
 233 37 291 286 291 341 c 0
 291 348 290 352 288 352 c 0
 267 352 217 274 149 274 c 0x7c
 104 274 95 313 95 334 c 0
 95 349 95 356 135 402 c 0
 191 467 228 497 260 497 c 0
 282 497 302 483 324 457 c 2
 358 418 l 1
 324 192 l 1
 360 230 l 2
 422 296 446 315 468 315 c 0
 507 315 551 254 566 212 c 0
 567 208 569 206 571 206 c 0xbc
165 320 m 0x7c
 206 320 281 392 281 412 c 0
 281 420 272 430 239 430 c 0
 197 430 172 410 145 355 c 0
 143 352 140 346 140 340 c 0
 140 328 150 320 165 320 c 0x7c
EndSplineSet
EndChar

StartChar: uni0E1F
Encoding: 280 3615 137
Width: 670
Flags: W
HStem: 237 65<391.321 460.203> 331 48<151.5 268.266> 490 56<238.004 297.079>
VStem: 124 55<380.35 435.146> 236 82<35.2443 135.246> 286 45<309.75 353.328> 304 55<411.414 484.119>
AnchorPoint: "AboveBase" 643 560 basechar 0
LayerCount: 2
Fore
SplineSet
359 437 m 0xf2
 359 363 331 280 331 252 c 0xf4
 331 246 333 243 336 243 c 0
 346 243 381 268 396 285 c 0
 406 297 413 302 426 302 c 0
 433 302 440 301 450 299 c 0
 502 288 514 276 537 223 c 0
 546 200 555 188 561 188 c 0
 580 188 695 758 731 782 c 0
 737 785 747 787 755 787 c 0
 761 787 765 786 765 771 c 0
 765 729 733 592 666 340 c 0
 584 33 570 -15 538 -15 c 0
 517 -15 510 9 498 113 c 0
 489 185 458 237 423 237 c 0
 400 237 391 228 366 188 c 0
 350 161 328 113 318 83 c 0
 300 29 273 -4 250 -4 c 0
 241 -4 236 0 236 19 c 0xf8
 236 43 244 89 258 177 c 2
 286 354 l 1xf4
 259 347 l 2
 216 336 188 331 170 331 c 0
 133 331 124 365 124 387 c 0
 124 392 124 397 125 400 c 0
 132 433 233 533 269 542 c 0
 277 544 286 546 293 546 c 0
 336 546 359 507 359 437 c 0xf2
193 433 m 0
 184 433 179 424 179 413 c 0
 179 400 185 379 210 379 c 0
 240 379 304 417 304 439 c 0xf2
 304 453 299 490 260 490 c 0
 205 490 210 433 193 433 c 0
EndSplineSet
EndChar

StartChar: uni0E20
Encoding: 281 3616 138
Width: 621
Flags: W
HStem: 0 50<147.747 239.286> 168 49<193.173 269.468> 496 58<460.833 537.93>
VStem: 107 40<60.8982 113.583> 115 32<56.7426 96.3539> 351 57<267.399 393.972> 494 76<-14.9341 122.751> 558 56<244.342 477.957>
LayerCount: 2
Fore
SplineSet
115 53 m 0xed
 115 60 117 63 117 70 c 0
 117 83 107 83 107 97 c 0
 107 114 125 157 144 183 c 1
 161 204 192 217 223 217 c 0
 253 217 273 205 295 205 c 0
 299 205 301 205 302 206 c 0
 315 214 351 325 351 365 c 0
 351 384 345 394 328 394 c 0
 304 394 285 378 272 378 c 0
 261 378 252 390 254 398 c 0
 258 419 364 494 414 515 c 0
 491 547 492 554 518 554 c 0
 556 554 599 530 609 498 c 0
 612 487 614 468 614 442 c 0xf5
 614 344 592 161 570 57 c 0
 558 0 551 -30 521 -30 c 0
 507 -30 494 -18 494 -0 c 0xe6
 494 12 558 342 558 404 c 0
 558 445 530 496 520 496 c 0
 509 496 392 449 392 435 c 0
 392 423 408 411 408 369 c 0
 408 347 404 310 383 258 c 0
 326 122 299 76 256 37 c 0
 225 8 213 0 194 0 c 0
 158 0 115 21 115 53 c 0xed
260 90 m 0
 271 90 274 122 274 130 c 0
 274 138 273 145 269 149 c 0
 258 160 235 168 217 168 c 0
 210 168 204 166 200 164 c 0
 187 155 147 81 147 66 c 0
 147 55 202 50 214 50 c 0
 230 50 235 55 241 69 c 0
 246 82 255 90 260 90 c 0
EndSplineSet
EndChar

StartChar: uni0E21
Encoding: 282 3617 139
Width: 658
Flags: W
HStem: 33 517<569 684> 225 60<409.397 483.922> 287 58<159.5 252.841> 462 55<250.34 346.028>
VStem: 129 63<345.435 403.815> 217 52<43.5 143.081> 365 44<285.971 378.996>
LayerCount: 2
Fore
SplineSet
413 386 m 0x7e
 413 355 409 324 409 309 c 0
 409 286 416 285 441 285 c 0x7e
 484 285 525 268 547 239 c 2
 564 217 l 1
 601 362 l 2
 634 491 651 550 684 550 c 0
 696 550 708 536 708 512 c 0
 708 470 681 448 655 327 c 0
 625 188 615 33 569 33 c 0x8e
 541 33 543 142 488 199 c 0
 470 218 460 225 445 225 c 0
 421 225 383 210 378 196 c 0
 353 118 308 13 293 1 c 0
 282 -8 275 -13 267 -13 c 0
 258 -13 249 -5 234 12 c 0
 222 26 217 35 217 52 c 0
 217 77 231 148 256 168 c 0
 291 197 267 201 315 240 c 0
 340 261 349 277 358 318 c 0
 363 340 365 355 365 365 c 0
 365 374 363 379 358 379 c 0
 345 379 256 287 181 287 c 0
 138 287 129 323 129 347 c 0
 129 373 143 412 223 477 c 0
 263 510 283 517 317 517 c 0
 384 517 413 477 413 386 c 0x7e
310 462 m 0
 255 462 192 398 192 358 c 0
 192 349 197 345 206 345 c 0
 217 345 236 352 261 367 c 0
 323 404 348 420 348 433 c 0
 348 444 335 462 310 462 c 0
310 163 m 1
 300 163 269 115 269 95 c 0
 269 91 271 89 272 89 c 0
 283 89 311 147 311 162 c 0
 311 163 310 163 310 163 c 1
EndSplineSet
EndChar

StartChar: uni0E22
Encoding: 283 3618 140
Width: 530
Flags: W
HStem: -7 56<286.572 372.52> 241 65<169.045 247.615> 251 55<200 247.98> 315 49<346.548 379.364> 507 35G<327.5 371 536.5 544>
VStem: 111 57<308.367 363.859> 217 62<52.6679 211.451> 490 66<409.152 517.526> 498 58<301.157 522.026>
LayerCount: 2
Fore
SplineSet
366 315 m 0xdf
 356 315 279 210 279 113 c 0
 279 66 299 49 310 49 c 0
 318 49 330 53 352 62 c 0
 423 88 443 116 470 242 c 0
 492 345 498 387 498 408 c 0xde80
 498 433 490 430 490 462 c 0
 490 474 492 480 494 492 c 0
 500 522 535 527 538 527 c 0
 550 527 556 515 556 484 c 0
 556 437 539 319 525 250 c 0
 495 110 450 49 359 8 c 0
 337 -2 318 -7 301 -7 c 0
 269 -7 247 13 231 57 c 0
 221 82 217 97 217 114 c 0
 217 127 223 162 229 181 c 2
 248 251 l 1xbf
 200 244 l 2
 188 242 178 241 171 241 c 0
 151 241 144 249 129 271 c 0
 117 288 111 301 111 316 c 0
 111 335 121 357 132 377 c 0
 153 416 296 542 359 542 c 0
 383 542 389 524 389 511 c 0
 389 472 281 403 237 385 c 0
 182 363 168 355 168 335 c 0
 168 324 174 306 208 306 c 0
 244 306 298 324 334 354 c 0
 342 361 351 364 359 364 c 0
 371 364 380 356 380 343 c 0
 380 330 371 315 366 315 c 0xdf
EndSplineSet
EndChar

StartChar: uni0E23
Encoding: 284 3619 141
Width: 454
Flags: W
HStem: -19 75<159.5 235.994> 178 60<199.277 281.638> 490 64<276.22 371.228>
VStem: 136 48<25.5 160.274> 177 85<395.5 447.591> 343 49<245.522 356.72> 499 47<587.365 642.93>
LayerCount: 2
Fore
SplineSet
245 386 m 1xf6
 195 386 177 391 177 400 c 0
 177 413 214 479 225 479 c 0
 229 479 235 486 236 493 c 0
 242 519 291 554 336 554 c 0
 374 554 423 525 423 504 c 0
 423 499 421 492 424 492 c 0
 438 492 489 617 499 633 c 0
 503 640 514 643 523 643 c 0
 540 643 546 637 546 627 c 0
 546 610 532 588 483 476 c 0
 459 421 447 404 432 404 c 0
 400 404 383 419 379 449 c 0
 376 474 352 490 326 490 c 0
 285 490 262 455 262 446 c 0xee
 262 436 278 431 312 425 c 0
 370 415 392 393 392 343 c 0
 392 267 339 107 291 48 c 0
 259 9 205 -19 172 -19 c 0
 147 -19 136 2 136 49 c 0
 136 101 147 154 147 154 c 1
 152 179 160 191 182 211 c 0
 205 232 221 238 253 238 c 2
 319 236 l 1
 334 289 l 2
 336 297 343 314 343 331 c 0
 343 359 320 345 311 372 c 0
 308 379 279 385 245 386 c 1xf6
216 56 m 0
 269 56 282 125 282 150 c 0
 282 175 268 175 249 177 c 0
 244 177 240 178 236 178 c 0
 210 178 199 167 191 131 c 0
 186 110 184 95 184 84 c 0xf6
 184 63 193 56 216 56 c 0
EndSplineSet
EndChar

StartChar: uni0E24
Encoding: 285 3620 142
Width: 606
Flags: W
HStem: -17 41<226.115 281.249> 108 35<255.219 286.303> 483 62<376.142 502.965>
VStem: 152 68<30.9903 79.5742> 309 66<52.2572 140.801> 518 60<210.871 470.082>
DStem2: 194 272 254 281 0.160841 0.98698<-111.51 84.332>
LayerCount: 2
Fore
SplineSet
375 118 m 0
 375 36 284 -17 254 -17 c 0
 240 -17 226 -10 197 5 c 0
 165 21 152 34 152 63 c 0
 152 97 175 169 194 272 c 2
 209 355 l 1
 177 350 161 347 156 347 c 0
 141 347 132 353 132 363 c 0
 132 372 138 386 160 406 c 2
 204 446 l 2
 238 478 413 545 475 545 c 0
 496 545 512 539 532 528 c 0
 563 512 578 480 578 409 c 0
 578 257 484 -198 484 -198 c 1
 477 -231 474 -236 470 -236 c 0
 467 -236 465 -235 461 -235 c 0
 456 -235 447 -240 434 -240 c 0
 423 -240 424 -236 424 -230 c 0
 424 -155 518 275 518 384 c 0
 518 448 501 483 468 483 c 0
 425 483 342 459 308 437 c 2
 276 416 l 1
 254 281 l 1
 234 170 230 143 232 143 c 0
 244 143 311 172 331 172 c 0
 341 172 375 160 375 118 c 0
255 24 m 0
 269 24 309 73 309 95 c 0
 309 104 303 108 295 108 c 0
 269 108 220 65 220 55 c 0
 220 45 249 24 255 24 c 0
EndSplineSet
EndChar

StartChar: uni0E25
Encoding: 286 3621 143
Width: 432
Flags: W
HStem: -11 40<113.5 212.462> 70 62<169.667 240> 251 64<261.481 340.228> 518 20G<419 434>
VStem: 77 66<12.5 60.4268> 316 109<9 62> 408 72<384.482 477>
LayerCount: 2
Fore
SplineSet
77 27 m 0xfc
 77 132 225 315 319 315 c 0
 350 315 370 294 378 294 c 0
 384 294 408 409 408 452 c 1
 407 477 l 1
 365 447 l 2
 266 377 232 333 210 333 c 0
 201 333 201 345 201 351 c 1
 206 374 353 514 388 529 c 0
 405 536 416 538 422 538 c 0
 446 538 478 514 480 493 c 1xfa
 480 480 447 327 425 239 c 0
 368 9 364 -1 342 -1 c 0
 330 -1 316 4 316 23 c 0
 316 62 350 165 350 200 c 0
 350 227 325 251 304 251 c 0
 279 251 246 221 182 151 c 0
 171 139 163 130 163 125 c 0
 163 123 165 121 169 121 c 0
 183 121 212 132 239 132 c 0
 275 132 297 117 297 89 c 0
 297 74 293 67 289 57 c 0
 275 25 189 -11 135 -11 c 0
 92 -11 77 -2 77 27 c 0xfc
214 50 m 2
 240 72 l 1
 217 70 l 1
 187 69 143 64 143 41 c 0
 143 33 150 29 161 29 c 0
 175 29 196 36 214 50 c 2
EndSplineSet
EndChar

StartChar: uni0E26
Encoding: 287 3622 144
Width: 662
Flags: W
HStem: 0 48<130.236 209.59> 172 37<173.585 244.636> 489 59<422.6 502.062>
VStem: 66 64<48.687 109.357> 345 53<259.096 382.414> 530 47<184.655 456.973>
LayerCount: 2
Fore
SplineSet
222 377 m 0
 222 412 423 548 497 548 c 0
 519 548 533 537 550 515 c 0
 568 491 577 469 577 415 c 0
 577 287 537 -6 482 -224 c 0
 481 -231 473 -235 462 -235 c 0
 450 -235 449 -224 446 -224 c 1
 505 88 l 2
 530 219 530 289 530 329 c 0
 530 358 527 376 525 403 c 0
 522 440 495 489 477 489 c 0
 465 489 367 444 367 433 c 0
 367 423 398 418 398 361 c 0
 398 238 262 0 157 0 c 0
 108 0 66 42 66 70 c 0
 66 83 79 99 107 135 c 0
 148 187 174 209 212 209 c 0
 245 209 271 194 282 194 c 0
 307 194 345 307 345 343 c 0
 345 370 333 386 304 386 c 0
 265 386 270 367 240 367 c 0
 230 367 222 370 222 377 c 0
160 48 m 0
 203 48 251 102 251 135 c 0
 251 162 220 172 209 172 c 0
 172 172 130 102 130 72 c 0
 130 57 140 48 160 48 c 0
EndSplineSet
EndChar

StartChar: uni0E27
Encoding: 288 3623 145
Width: 432
Flags: W
HStem: 152 62<254.307 315.259> 485 72<376.197 448.5>
VStem: 186 58<56.088 145.001> 424 57<325.687 484.223>
LayerCount: 2
Fore
SplineSet
365 202 m 0
 370 207 424 382 424 443 c 0
 424 472 415 485 398 485 c 0
 377 485 280 386 261 386 c 0
 241 386 201 309 167 309 c 0
 152 309 152 327 152 329 c 0
 161 369 361 557 436 557 c 0
 461 557 481 517 481 453 c 0
 481 389 457 302 428 224 c 0
 374 78 345 39 275 14 c 2
 224 -4 l 1
 202 33 l 2
 191 51 186 70 186 88 c 0
 186 139 236 214 289 214 c 0
 315 214 338 201 360 201 c 0
 362 201 364 202 365 202 c 0
264 56 m 0
 286 56 316 85 316 125 c 0
 316 146 304 152 286 152 c 0
 252 152 244 109 244 86 c 0
 244 71 248 56 264 56 c 0
EndSplineSet
EndChar

StartChar: uni0E28
Encoding: 289 3624 146
Width: 526
Flags: W
HStem: 219 49<205.576 327.658> 328 39<243.252 318.229> 489 57<322.562 429.227>
VStem: 328 61<273.292 318.806>
DStem2: 422 232 478 213 0.186418 0.982471<-179.869 188.841>
LayerCount: 2
Fore
SplineSet
389 294 m 0
 389 270 359 219 285 219 c 0
 265 219 195 223 193 223 c 1
 184 188 l 2
 134 -6 136 -22 117 -22 c 0
 113 -22 110 -22 104 -21 c 2
 77 -18 l 1
 115 173 l 2
 120 197 150 360 170 401 c 0
 194 450 320 546 405 546 c 0
 484 546 500 476 517 476 c 0
 518 476 518 476 518 477 c 0
 519 481 637 599 672 599 c 0
 685 599 698 584 698 568 c 0
 698 554 687 540 669 535 c 0
 656 531 615 501 579 468 c 2
 515 408 l 1
 478 213 l 2
 446 43 443 17 423 17 c 0
 403 17 393 23 393 53 c 0
 393 83 403 136 422 232 c 2
 460 417 l 1
 439 453 l 2
 423 480 412 489 387 489 c 0
 334 489 212 406 212 351 c 0
 212 344 214 340 220 340 c 0
 239 340 267 367 289 367 c 0
 310 367 389 342 389 294 c 0
279 328 m 0
 247 328 218 287 218 278 c 0
 218 270 231 268 261 268 c 0
 317 268 328 282 328 291 c 0
 328 306 301 328 279 328 c 0
EndSplineSet
EndChar

StartChar: uni0E29
Encoding: 290 3625 147
Width: 711
Flags: W
HStem: 8 70<351.125 512.138> 224 59<516.225 571.24> 349 52<495.628 565.675> 401 52<188.596 306.277> 504 39<269.509 364.5> 546 20G<664 673.5>
VStem: 156 79<426 471.776> 294 57<83.6409 121.968> 333 78<380.369 500.084> 440 40<304.408 342.918>
LayerCount: 2
Fore
SplineSet
156 437 m 0xff40
 156 479 257 543 333 543 c 0
 396 543 411 482 411 460 c 0xfec0
 411 436 398 349 382 259 c 2
 351 82 l 1
 423 79 l 2
 437 78 448 78 457 78 c 0
 492 78 503 84 527 105 c 0
 554 128 575 180 575 208 c 0
 575 218 572 224 565 224 c 0
 538 224 440 291 440 310 c 0
 440 339 501 401 559 401 c 0
 577 401 589 394 589 381 c 0
 589 378 585 361 597 361 c 0
 604 361 617 400 629 456 c 0
 649 549 657 566 671 566 c 0
 676 566 683 562 696 554 c 0
 704 549 708 543 708 528 c 0
 708 513 704 490 696 452 c 2
 677 361 l 1
 707 372 l 2
 724 379 741 384 744 384 c 0
 747 384 748 382 748 379 c 0
 748 346 666 282 636 196 c 0
 589 64 523 8 414 8 c 0
 329 8 294 22 294 97 c 0
 294 188 341 343 341 400 c 0
 341 418 336 426 324 426 c 0
 299 426 268 401 217 401 c 0
 183 401 156 415 156 437 c 0xff40
333 487 m 0
 333 493 311 504 292 504 c 0
 284 504 278 502 277 497 c 0
 273 480 235 458 235 455 c 0
 235 453 239 453 258 453 c 0
 282 453 333 476 333 487 c 0
526 349 m 0
 513 349 480 342 480 322 c 0
 480 312 488 304 502 304 c 0
 526 304 503 283 529 283 c 0
 542 283 572 292 572 309 c 0
 572 324 556 349 526 349 c 0
EndSplineSet
EndChar

StartChar: uni0E2A
Encoding: 291 3626 148
Width: 473
Flags: W
HStem: -12 37<147.518 222.827> 82 59<156.096 237.808> 296 64<275.721 359.253> 465 65<343.129 394.466> 597 50<595.037 661.021>
VStem: 83 56<31.4697 81.5> 238 58<38.679 111.5> 395 69<355.321 464.992>
LayerCount: 2
Fore
SplineSet
394 392 m 0
 394 412 395 425 395 433 c 0
 395 454 390 465 379 465 c 0
 344 465 267 372 233 372 c 0
 222 372 220 382 220 389 c 0
 220 428 350 530 399 530 c 0
 428 530 476 556 519 594 c 0
 558 628 618 647 643 647 c 0
 657 647 664 642 664 632 c 0
 664 618 653 601 639 597 c 0
 613 590 545 544 492 520 c 0
 469 510 462 499 462 494 c 0
 462 491 464 480 464 454 c 0
 464 415 459 344 434 227 c 0
 393 36 375 -11 337 -11 c 0
 331 -11 327 -8 327 5 c 0
 327 48 362 190 362 251 c 0
 362 288 350 296 322 296 c 0
 285 296 162 187 153 145 c 2
 147 116 l 1
 212 140 214 141 229 141 c 0
 240 141 250 139 263 134 c 0
 281 128 296 125 296 98 c 0
 296 39 247 -12 188 -12 c 0
 133 -12 159 9 124 9 c 0
 110 9 83 36 83 78 c 0
 83 85 83 92 85 100 c 0
 108 207 170 259 217 298 c 0
 267 339 310 360 347 360 c 0
 369 360 380 352 389 352 c 0
 393 352 395 353 395 360 c 0
 395 365 394 372 394 392 c 0
208 82 m 0
 202 82 139 68 139 59 c 0
 139 53 156 25 181 25 c 0
 210 25 238 55 238 63 c 0
 238 71 221 82 208 82 c 0
EndSplineSet
EndChar

StartChar: uni0E2B
Encoding: 292 3627 149
Width: 685
Flags: W
HStem: -8 439<531.5 634.5> 9 77<275 314> 321 32<162 242.011> 451 54<219.538 307.5> 491 60<639.939 676.999>
VStem: 117 78<339 408.594> 246 67<37.5462 227.972> 282 81<352.289 448.673> 677 87<484.295 543.824>
LayerCount: 2
Fore
SplineSet
512 42 m 0x8e80
 512 74 521 87 521 143 c 0
 521 151 521 159 520 165 c 2
 516 209 l 1
 485 176 l 2
 453 142 437 125 407 90 c 0
 375 52 303 9 275 9 c 0
 254 9 246 28 246 63 c 0x4680
 246 97 254 147 264 207 c 2
 288 356 l 1
 244 336 l 2
 224 326 199 321 176 321 c 0
 148 321 117 327 117 351 c 0
 117 370 143 425 166 447 c 0
 202 481 260 505 292 505 c 0
 323 505 306 488 344 473 c 0
 359 467 363 458 363 447 c 0x7580
 363 439 361 431 359 422 c 0
 346 360 313 124 313 90 c 0
 313 87 314 86 314 86 c 1x7680
 325 86 446 209 503 278 c 0
 537 319 553 349 560 384 c 0
 581 482 599 516 639 534 c 0
 659 544 681 551 689 551 c 0
 712 551 700 573 722 573 c 0
 730 573 764 565 764 535 c 0
 764 506 731 459 674 392 c 0
 625 335 613 319 606 285 c 0
 577 152 607 -8 541 -8 c 0
 522 -8 512 10 512 42 c 0x8e80
674 491 m 0x8c80
 668 491 629 475 629 441 c 0
 629 436 630 431 632 431 c 0
 637 431 677 477 677 488 c 0
 677 490 676 491 674 491 c 0x8c80
215 353 m 0x3580
 228 353 282 398 282 428 c 0
 282 438 274 451 240 451 c 0
 217 451 195 417 195 388 c 0
 195 366 207 353 215 353 c 0x3580
EndSplineSet
EndChar

StartChar: uni0E2C
Encoding: 293 3628 150
Width: 772
Flags: W
HStem: 479 49<267.658 337.468>
VStem: 279 111<28.5832 107.311> 332 54<217.301 315.683> 338 94<417.438 473.872> 703 153<799.935 860.265> 731 318<680 909.5>
DStem2: 646 297 753 369 0.198971 0.980005<0 388.704>
AnchorPoint: "AboveBase" 675 560 basechar 0
LayerCount: 2
Fore
SplineSet
703 802 m 0x88
 703 861 780 929 817 929 c 0
 840 929 854 906 855 861 c 2
 856 798 l 1x88
 933 857 l 2
 986 898 1023 916 1039 916 c 0
 1045 916 1049 912 1049 907 c 0
 1049 874 952 769 878 730 c 2
 820 699 l 1
 753 369 l 2
 725 233 685 37 674 31 c 0
 668 28 662 26 657 26 c 0
 606 26 619 147 605 165 c 0
 601 169 588 190 577 212 c 2
 557 252 l 1
 493 202 l 2
 445 164 422 133 390 69 c 0
 358 4 330 -29 307 -29 c 0
 287 -29 279 -13 279 14 c 0xc4
 279 78 332 261 332 333 c 0xa0
 332 341 331 344 322 344 c 0
 287 344 251 308 185 308 c 0
 137 308 126 332 126 353 c 0
 126 388 154 428 199 463 c 0
 256 507 297 528 330 528 c 0
 360 528 385 510 410 474 c 0
 425 453 432 441 432 422 c 0x90
 432 382 386 255 386 223 c 0
 386 216 387 214 391 214 c 0
 405 214 452 250 477 272 c 0
 504 297 519 305 548 305 c 0
 558 305 568 304 582 303 c 2
 646 297 l 1
 678 433 l 2
 692 494 731 645 731 715 c 0xa4
 731 773 703 757 703 802 c 0x88
255 399 m 2
 304 410 338 414 338 458 c 0x90
 338 472 330 479 317 479 c 0
 296 479 266 463 245 433 c 2
 215 390 l 1
 255 399 l 2
EndSplineSet
EndChar

StartChar: uni0E2D
Encoding: 294 3629 151
Width: 648
Flags: W
HStem: -16 56<347.767 384.04> 181 44<342.197 437.328> 294 40<358.077 432.929> 468 79<467.55 545>
VStem: 240 77<81.4028 180.359> 247 70<129.282 180.999> 511 81<320.291 467.867>
LayerCount: 2
Fore
SplineSet
492 468 m 0xf6
 442 468 339 360 269 360 c 0
 244 360 239 371 239 375 c 0
 239 394 481 547 525 547 c 0
 565 547 592 472 592 414 c 0
 592 315 543 165 496 105 c 0
 473 77 454 47 452 39 c 0
 448 18 390 -16 359 -16 c 0
 301 -16 240 64 240 129 c 0xfa
 240 135 241 142 242 148 c 2
 245 161 l 2
 247 168 247 174 247 180 c 0
 247 205 236 218 236 231 c 0
 236 246 249 240 288 283 c 0
 316 315 368 334 418 334 c 0
 433 334 448 333 461 329 c 2
 502 318 l 1
 508 387 l 2
 510 405 511 419 511 431 c 0
 511 455 506 468 492 468 c 0xf6
391 294 m 0
 376 294 339 259 339 252 c 0
 339 241 385 225 432 225 c 0
 457 225 473 229 473 236 c 0
 473 251 408 294 391 294 c 0
326 181 m 0
 321 181 317 180 317 168 c 0
 317 133 349 40 364 40 c 0
 372 40 449 143 449 153 c 0
 449 161 394 166 346 177 c 1
 338 180 330 181 326 181 c 0
EndSplineSet
EndChar

StartChar: uni0E2E
Encoding: 295 3630 152
Width: 638
Flags: W
HStem: -14 58<266.921 316.944> 312 47<281.684 383.997> 486 56<368.93 432.459> 540 20G<644 663.5>
VStem: 168 62<136.255 255.63> 285 82<447.432 483.901>
LayerCount: 2
Fore
SplineSet
271 -14 m 0xdc
 198 -14 168 114 168 170 c 0
 168 321 324 359 369 359 c 0
 402 359 390 342 408 342 c 0
 418 342 425 353 425 365 c 0
 425 386 402 391 395 392 c 0
 322 406 285 426 285 450 c 0
 285 487 385 542 415 542 c 0xec
 447 542 492 516 492 498 c 0
 492 492 489 483 499 483 c 0
 529 483 630 560 658 560 c 0
 669 560 681 549 681 540 c 0
 681 517 560 435 538 424 c 0
 517 413 509 397 493 321 c 0
 471 216 420 81 396 61 c 0
 373 42 335 -14 271 -14 c 0xdc
419 442 m 0
 434 442 434 457 434 458 c 0
 434 471 413 486 397 486 c 0
 382 486 367 464 367 459 c 0
 367 447 418 442 419 442 c 0
252 189 m 0
 256 210 392 194 392 264 c 0
 392 286 374 312 349 312 c 0
 331 312 279 299 259 273 c 0
 243 252 230 218 230 195 c 0
 230 186 232 181 237 181 c 0
 245 181 251 184 252 189 c 0
342 159 m 0
 300 159 244 155 244 140 c 0
 244 126 264 44 288 44 c 0
 295 44 304 49 313 60 c 0
 328 77 382 145 382 152 c 0
 382 157 366 159 342 159 c 0
EndSplineSet
EndChar

StartChar: uni0E2F
Encoding: 296 3631 153
Width: 590
Flags: W
HStem: 317 38<250.023 331.974> 448 85<493 527> 487 45<251.225 345.857>
VStem: 183 43<377.397 461.983>
LayerCount: 2
Fore
SplineSet
493 448 m 0xd0
 473 448 380 317 273 317 c 0
 230 317 183 333 183 394 c 0
 183 461 243 532 312 532 c 0xb0
 352 532 372 518 400 482 c 2
 424 451 l 1
 461 491 l 2
 487 519 510 533 527 533 c 0
 548 533 551 516 551 500 c 0
 551 416 479 -8 454 -36 c 0
 449 -41 439 -45 430 -45 c 0
 420 -45 415 -43 415 -25 c 0
 415 2 427 63 452 202 c 0
 461 250 498 448 493 448 c 0xd0
294 487 m 0
 260 487 226 443 226 423 c 0
 226 418 229 415 234 415 c 0
 249 415 227 380 265 362 c 0
 274 358 280 355 287 355 c 0
 303 355 378 395 378 407 c 0
 378 432 344 487 294 487 c 0
EndSplineSet
EndChar

StartChar: uni0E30
Encoding: 297 3632 154
Width: 532
Flags: W
HStem: 62 46<243.141 318.93> 74 30<208.004 248.654> 134 43<215.768 271.5> 300 39<274.026 342.859> 398 30<297.847 341.688>
VStem: 162 46<98.5 130.949> 215 59<339.541 381.117> 250 56<108.214 133.068>
LayerCount: 2
Fore
SplineSet
306 131 m 0x7d
 306 125 303 117 303 112 c 0
 303 109 303 108 306 108 c 0
 331 108 402 168 422 168 c 0
 427 168 430 164 430 158 c 0
 430 128 371 96 341 87 c 0
 284 68 296 62 278 62 c 0xbd
 263 62 221 74 206 74 c 0
 193 74 162 94 162 103 c 0
 162 111 204 161 223 169 c 0
 234 173 250 177 260 177 c 0
 283 177 306 153 306 131 c 0x7d
226 104 m 0x7d
 242 104 250 114 250 123 c 0
 250 129 246 134 239 134 c 0
 231 134 208 121 208 113 c 0
 208 108 214 104 226 104 c 0x7d
338 428 m 0
 346 428 367 417 385 403 c 2
 417 377 l 1
 433 393 l 2
 445 406 458 413 469 413 c 0
 479 413 485 405 485 399 c 0
 485 392 475 382 453 364 c 0
 408 327 389 317 346 307 c 0
 327 302 310 300 295 300 c 0
 234 300 215 340 215 355 c 0x3e
 215 385 324 428 338 428 c 0
325 398 m 0
 314 398 274 370 274 351 c 0
 274 343 279 339 291 339 c 0
 305 339 346 345 346 368 c 0
 346 382 333 398 325 398 c 0
EndSplineSet
EndChar

StartChar: uni0E31
Encoding: 298 3633 155
Width: 0
Flags: W
HStem: 578 56<-174.72 -107.329> 721 41<-147.571 -97.1992>
VStem: -203 28<629.114 681.875> -95 41<652.876 719.938>
AnchorPoint: "AboveBase" 57 560 mark 0
LayerCount: 2
Fore
SplineSet
-54 701 m 0
 -54 672 -73 669 -78 645 c 0
 -79 638 -78 634 -74 634 c 0
 -57 634 47 721 71 756 c 0
 81 770 89 776 99 776 c 0
 106 776 117 773 117 762 c 0
 117 751 104 731 80 707 c 0
 -5 620 -73 578 -130 578 c 0
 -155 578 -203 585 -203 634 c 0
 -203 668 -180 718 -166 729 c 0
 -137 752 -122 762 -109 762 c 0
 -89 762 -54 736 -54 701 c 0
-117 650 m 0
 -106 650 -95 671 -95 689 c 0
 -95 713 -114 721 -119 721 c 0
 -138 721 -175 669 -175 650 c 0
 -175 636 -163 628 -158 628 c 0
 -149 628 -128 650 -117 650 c 0
EndSplineSet
EndChar

StartChar: uni0E32
Encoding: 299 3634 156
Width: 428
Flags: W
HStem: 484 63<337.273 431>
VStem: 410 50<320.969 483.337>
LayerCount: 2
Fore
SplineSet
335 28 m 0
 335 103 410 381 410 459 c 0
 410 483 402 484 391 484 c 0
 354 484 197 404 172 404 c 0
 165 404 161 408 161 415 c 0
 161 424 169 433 172 437 c 0
 187 454 350 547 415 547 c 0
 447 547 460 517 460 467 c 0
 460 426 451 370 438 306 c 0
 387 65 407 -3 353 -3 c 0
 341 -3 335 4 335 28 c 0
EndSplineSet
EndChar

StartChar: uni0E33
Encoding: 300 3635 157
Width: 432
Flags: W
HStem: 504 63<325.075 417.5> 706 52<-42 28.1736> 870 79<33.0736 101.5>
VStem: -92 61<758.061 836.131> 78 73<821.747 898> 389 76<359.483 503.405>
LayerCount: 2
Fore
SplineSet
180 423 m 0
 180 490 355 567 401 567 c 0
 434 567 465 526 465 486 c 0
 465 474 386 43 386 43 c 2
 382 22 376 7 347 7 c 0
 330 7 321 17 321 49 c 0
 321 133 389 386 389 470 c 0
 389 495 383 504 371 504 c 0
 333 504 224 411 191 411 c 0
 184 411 180 415 180 423 c 0
-91 784 m 0
 -76 853 -30 883 -5 902 c 0
 30 928 69 949 83 949 c 0
 120 949 151 916 151 880 c 0
 151 827 69 735 -4 713 c 0
 -18 709 -28 706 -35 706 c 0
 -49 706 -56 714 -72 732 c 0
 -86 749 -92 759 -92 772 c 0
 -92 776 -92 780 -91 784 c 0
-10 758 m 0
 16 758 78 812 78 854 c 0
 78 863 75 870 70 870 c 0
 59 869 -31 854 -31 789 c 0
 -31 771 -24 758 -10 758 c 0
EndSplineSet
MultipleSubs2: "Thai Sara Am Decomposition" uni0E4D uni0E32
Substitution2: "Thai Sara Am Lakkhang" uni0E32
EndChar

StartChar: uni0E3F
Encoding: 308 3647 158
Width: 662
Flags: W
HStem: 338 51<452.995 554.35> 636 43<512.206 599.531>
VStem: 97 64<148.652 217.798> 181 90<-205 -152> 562 52<219.933 329.528>
DStem2: 373 633 332 568 0.936752 0.349995<-61.1565 31.2273> 464 667 511 676 0.206705 0.978403<18.5208 143.261>
LayerCount: 2
Fore
SplineSet
181 -206 m 0
 181 -152 243 -13 243 12 c 0
 243 25 236 47 186 75 c 0
 148 96 97 165 97 192 c 0
 97 208 129 225 132 225 c 0
 142 225 161 198 161 187 c 0
 161 165 210 114 219 114 c 0
 231 114 225 176 261 390 c 0
 275 476 280 514 280 531 c 0
 280 545 277 545 274 545 c 0
 261 545 225 520 206 520 c 0
 197 520 192 524 192 534 c 0
 192 550 189 564 373 633 c 2
 464 667 l 1
 479 738 l 2
 496 819 502 819 515 819 c 0
 525 819 530 815 530 800 c 0
 530 789 528 772 523 746 c 2
 511 676 l 1
 559 679 l 1
 572 679 l 2
 619 679 643 663 643 630 c 0
 643 588 611 519 495 419 c 2
 452 382 l 1
 501 387 l 2
 513 388 524 389 532 389 c 0
 571 389 614 350 614 291 c 0
 614 250 594 214 576 189 c 0
 542 143 438 82 352 58 c 0
 329 52 307 43 303 38 c 0
 299 34 285 -12 271 -63 c 0
 232 -205 223 -228 196 -228 c 0
 187 -228 181 -222 181 -206 c 0
586 592 m 2
 600 636 l 1
 570 636 l 2
 498 636 498 633 463 527 c 0
 446 474 433 431 433 430 c 1
 434 430 l 2
 441 430 521 494 546 520 c 0
 560 535 578 568 586 592 c 2
396 476 m 0
 428 577 428 573 428 589 c 0
 428 597 425 600 419 600 c 0
 412 600 398 595 381 588 c 2
 332 568 l 1
 326 486 l 2
 323 442 317 389 313 371 c 2
 307 338 l 1
 334 355 l 2
 361 372 365 379 396 476 c 0
505 338 m 0
 476 338 433 334 418 329 c 0
 389 319 383 301 345 173 c 2
 322 95 l 1
 365 107 l 2
 422 123 505 170 526 198 c 0
 559 244 562 269 562 287 c 0
 562 313 550 338 505 338 c 0
283 148 m 0
 294 148 328 279 328 281 c 0
 328 282 327 282 326 282 c 0
 306 282 301 268 290 217 c 0
 284 188 281 168 281 157 c 0
 281 151 282 148 283 148 c 0
EndSplineSet
EndChar

StartChar: uni0E40
Encoding: 309 3648 159
Width: 364
Flags: W
HStem: -7 47<189.212 260.892> 105 69<204.928 314> 533 20G<258.5 265.5>
VStem: 135 54<40.0051 161.256> 283 62<61.7518 136>
LayerCount: 2
Fore
SplineSet
228 539 m 0
 243 548 255 553 262 553 c 0
 269 553 273 548 273 534 c 0
 273 502 237 351 230 318 c 2
 191 149 l 1
 278 171 290 174 300 174 c 0
 328 174 345 153 345 119 c 0
 345 81 323 35 315 24 c 0
 300 3 267 -7 233 -7 c 0
 187 -7 142 10 137 40 c 0
 136 47 135 57 135 70 c 0
 135 140 153 283 177 394 c 0
 201 508 209 528 228 539 c 0
210 40 m 0
 237 40 283 71 283 92 c 0
 283 100 277 105 265 105 c 0
 243 105 189 90 189 61 c 0
 189 51 196 40 210 40 c 0
EndSplineSet
EndChar

StartChar: uni0E41
Encoding: 310 3649 160
Width: 621
Flags: W
HStem: -35 45<190.815 250.038> 11 63<504.191 541.076> 117 67<226.907 344.444> 517 22G<239.429 322 588 600.5>
VStem: 97 93<10.8376 84.1168> 244 78<461 539> 287 74<66.6659 155.5> 542 84<89.9692 166>
DStem2: 220 434 282 390 0.259276 0.965803<-236.321 107.632>
LayerCount: 2
Fore
SplineSet
593 537 m 0xf9
 608 537 612 527 612 512 c 0
 612 479 572 327 541 233 c 2
 526 187 l 1
 577 183 l 2
 609 181 626 178 626 154 c 0
 626 131 610 91 598 69 c 0
 578 30 565 20 530 14 c 0
 522 12 514 11 507 11 c 0
 488 11 477 21 458 48 c 1
 427 89 l 1
 479 292 l 2
 519 450 536 499 554 516 c 0
 570 530 583 537 593 537 c 0xf9
514 74 m 0
 525 74 542 89 542 99 c 0
 542 105 536 110 528 110 c 0
 514 110 504 95 504 84 c 0
 504 78 507 74 514 74 c 0
330 184 m 0
 354 184 361 166 361 145 c 0xfb
 361 100 318 9 289 -2 c 0
 250 -17 252 -35 217 -35 c 0
 170 -35 97 0 97 29 c 0
 97 47 182 270 220 434 c 2
 244 539 l 1
 322 539 l 1xfd
 282 390 l 2
 222 170 220 192 215 170 c 0
 214 164 214 162 218 162 c 0
 220 162 281 184 330 184 c 0
239 101 m 0
 212 89 190 78 190 40 c 0
 190 23 197 10 220 10 c 0
 238 10 247 22 265 60 c 0
 276 81 287 111 287 116 c 0
 287 117 287 117 286 117 c 0
 280 117 260 111 239 101 c 0
EndSplineSet
EndChar

StartChar: uni0E42
Encoding: 311 3650 161
Width: 522
Flags: W
HStem: -13 60<330.768 394.422> 117 70<357.299 441.5> 117 60<356.697 401.451> 730 84<547.589 581.139>
VStem: 285 45<24 94.5142> 402 76<65.7359 152> 584 74<825.975 894.32>
DStem2: 343 592 371 309 0.11291 0.993605<-410.878 0 107.942 112.97>
LayerCount: 2
Fore
SplineSet
208 703 m 0xde
 208 745 269 825 293 825 c 0
 302 825 313 832 318 842 c 0
 332 865 416 893 463 893 c 0
 527 893 552 814 570 814 c 0
 576 814 579 826 584 848 c 0
 593 890 625 919 643 919 c 0
 653 919 658 911 658 897 c 0
 658 832 576 730 562 730 c 0
 553 730 530 749 507 776 c 0
 479 808 455 824 426 824 c 0
 402 824 375 814 341 793 c 2
 289 762 l 1
 335 769 l 2
 344 770 353 771 361 771 c 0
 404 771 419 747 419 692 c 0
 419 621 393 497 371 309 c 2
 356 177 l 1xbe
 397 184 411 187 424 187 c 0
 459 187 478 168 478 136 c 0
 478 106 462 72 440 39 c 0
 428 20 407 -13 347 -13 c 0
 308 -13 285 7 285 41 c 0
 286 91 325 459 343 592 c 2
 359 705 l 1
 316 698 l 2
 284 693 233 680 224 680 c 0
 211 680 208 693 208 703 c 0xde
364 47 m 0
 397 47 402 92 402 101 c 0
 402 112 397 117 389 117 c 0xde
 369 117 330 83 330 66 c 0
 330 50 359 47 364 47 c 0
EndSplineSet
EndChar

StartChar: uni0E43
Encoding: 312 3651 162
Width: 477
Flags: W
HStem: -1 59<302.072 356.552> 162 35<361.525 390.191> 613 70<240.454 291.046> 826 77<343.807 406.5>
VStem: 197 37<691.919 742.128> 244 58<33.5 108.382> 370 51<750.962 825.996> 400 55<90.4595 161.292>
LayerCount: 2
Fore
SplineSet
303 -1 m 0xfd
 285 -1 244 20 244 47 c 0
 244 69 256 89 267 142 c 0
 294 267 300 392 323 558 c 1
 330 600 333 636 333 651 c 0
 333 656 333 659 332 659 c 0
 323 659 266 613 246 613 c 0
 222 613 197 659 197 696 c 0
 197 753 293 856 343 881 c 0
 367 893 392 903 398 903 c 0
 415 903 424 887 424 863 c 0
 424 842 419 837 419 811 c 0
 419 793 421 790 421 785 c 0xfe
 421 709 342 361 342 246 c 0
 342 212 348 197 360 197 c 0
 376 197 388 221 410 221 c 0
 445 221 455 175 455 146 c 0
 455 75 337 -1 303 -1 c 0xfd
367 786 m 0
 369 797 370 805 370 812 c 0
 370 821 368 826 366 826 c 0
 353 826 234 737 234 721 c 0
 234 707 256 683 269 683 c 0
 295 683 360 751 367 786 c 0
318 58 m 0
 343 58 400 97 400 129 c 0xfd
 400 143 395 162 387 162 c 0
 374 162 302 96 302 71 c 0
 302 62 309 58 318 58 c 0
EndSplineSet
EndChar

StartChar: uni0E44
Encoding: 313 3652 163
Width: 469
Flags: W
HStem: -10 60<325.5 378.333> 160 59<386.666 462.945> 653 88<269 315>
VStem: 238 67<743.925 904.4> 283 66<50.3107 113.618> 391 94<775.784 889.84> 415 57<102.688 208.881>
LayerCount: 2
Fore
SplineSet
283 60 m 0xea
 283 112 391 689 391 784 c 0
 391 789 391 791 390 791 c 0
 385 791 380 787 379 781 c 0
 375 764 291 653 281 653 c 0
 257 653 238 745 238 818 c 0
 238 916 278 915 279 917 c 1
 289 917 305 818 305 774 c 0
 305 758 299 741 306 741 c 0
 324 741 408 895 434 926 c 0
 441 935 454 942 464 942 c 0
 478 942 485 916 485 884 c 0xf4
 485 827 478 874 410 486 c 2
 360 199 l 1
 387 208 l 2
 414 216 442 219 455 219 c 0
 466 219 472 217 472 200 c 0
 472 131 417 -10 340 -10 c 0
 311 -10 283 19 283 60 c 0xea
412 160 m 0
 403 160 349 103 349 62 c 0
 349 54 351 50 356 50 c 0
 380 50 415 147 415 157 c 0xea
 415 159 414 160 412 160 c 0
EndSplineSet
EndChar

StartChar: uni0E45
Encoding: 314 3653 164
Width: 534
Flags: W
HStem: 511 49<318.067 394.871>
VStem: 403 60<204.55 508.029>
LayerCount: 2
Fore
SplineSet
370 511 m 0
 323 511 214 406 178 406 c 0
 173 406 170 408 170 414 c 0
 170 450 297 540 332 553 c 0
 345 557 362 560 376 560 c 0
 460 560 463 485 463 440 c 0
 463 376 452 281 444 138 c 0
 442 93 418 -40 400 -125 c 0
 382 -209 375 -230 363 -235 c 0
 352 -240 344 -243 338 -243 c 0
 331 -243 327 -239 327 -228 c 0
 327 -218 330 -203 335 -181 c 0
 366 -33 403 301 403 421 c 0
 403 484 394 511 370 511 c 0
EndSplineSet
EndChar

StartChar: uni0E46
Encoding: 315 3654 165
Width: 594
Flags: W
HStem: 249 40<211.084 274.724> 363 27<223.058 250.679> 468 55<246.076 295.063>
VStem: 418 52<-187.516 -8.85791> 495 57<234.537 440.037>
LayerCount: 2
Fore
SplineSet
418 -155 m 0
 418 -101 495 276 495 384 c 2
 495 398 l 1
 492 441 l 1
 443 388 l 2
 403 345 388 334 364 334 c 0
 344 334 333 329 331 318 c 0
 328 305 282 249 219 249 c 0
 197 249 179 257 173 273 c 0
 163 302 156 344 156 372 c 0
 156 432 248 523 285 523 c 0
 307 523 344 479 357 436 c 2
 370 393 l 1
 428 448 l 2
 467 485 493 501 512 501 c 0
 541 501 552 473 552 422 c 0
 552 365 538 279 520 172 c 0
 468 -142 473 -127 470 -142 c 0
 463 -174 453 -190 440 -190 c 0
 425 -190 418 -180 418 -155 c 0
274 468 m 0
 260 468 221 425 221 396 c 0
 221 392 222 390 225 390 c 0
 231 390 243 408 279 408 c 0
 301 408 308 412 308 419 c 0
 308 431 283 468 274 468 c 0
252 289 m 0
 276 289 279 322 279 336 c 0
 279 351 274 363 259 363 c 0
 242 363 206 347 206 323 c 0
 206 303 234 289 252 289 c 0
EndSplineSet
EndChar

StartChar: uni0E47
Encoding: 316 3655 166
Width: 0
Flags: W
HStem: 660 81<2.04052 50.8802> 719 27<-79 -38> 811 37<-37.6289 102.504>
VStem: 29 40<693.41 726>
AnchorPoint: "AboveBase" 141 560 mark 0
LayerCount: 2
Fore
SplineSet
69 717 m 0xb0
 69 680 26 660 21 660 c 0xb0
 12 660 -10 685 -10 694 c 0
 -10 708 -30 719 -38 719 c 0x70
 -53 719 -73 650 -101 650 c 0
 -113 650 -128 658 -128 685 c 0
 -128 731 -89 803 -46 830 c 0
 -21 846 -12 848 42 848 c 0
 88 848 106 845 118 836 c 2
 133 825 l 1
 151 853 l 2
 179 896 223 963 237 963 c 0
 245 963 249 959 249 952 c 0
 249 933 221 905 219 894 c 0
 218 887 199 862 167 814 c 0
 154 793 141 783 128 783 c 0
 105 783 88 811 69 811 c 0
 65 811 63 809 62 806 c 1
 62 802 l 1
 59 790 5 757 2 745 c 0
 1 742 4 741 9 741 c 0
 20 741 40 749 48 749 c 0
 57 749 69 735 69 717 c 0xb0
25 817 m 0
 -30 817 -81 753 -82 749 c 0
 -82 747 -81 746 -79 746 c 0x70
 -61 746 26 803 29 816 c 0
 29 817 28 817 25 817 c 0
24 683 m 0
 26 683 29 690 29 698 c 0
 29 701 29 703 28 703 c 0
 26 703 23 683 24 683 c 0
EndSplineSet
Substitution2: "Thai Mark High Variant" uni0E47.high
Substitution2: "Thai Phinthu Maitaikhu Reordering" uni0E3A
EndChar

StartChar: uni0E4A
Encoding: 319 3658 167
Width: 0
Flags: W
HStem: 784 37<-82.6494 -54> 836 37<-82.79 -71.0007> 899 38<20.6388 54.1313> 899 26<14 42> 912 39<-77.1346 -27.8658>
VStem: -127 44<821.225 876.736> -71 44<821.09 839.337>
AnchorPoint: "AboveMark" 90 780 mark 0
LayerCount: 2
Fore
SplineSet
34 823 m 0xe6
 34 841 56 847 56 870 c 0
 56 885 45 899 42 899 c 0xe6
 36 899 21 885 20 878 c 0
 18 867 5 858 -8 858 c 0
 -28 858 -23 912 -43 912 c 0
 -55 912 -87 887 -88 880 c 0
 -89 875 -82 873 -69 873 c 0
 -48 873 -31 863 -31 851 c 0
 -31 849 -32 846 -32 843 c 0
 -32 836 -27 837 -27 828 c 0
 -27 825 -28 821 -29 815 c 0
 -35 789 -41 784 -67 784 c 0
 -84 784 -103 787 -110 794 c 0
 -120 804 -127 826 -127 850 c 0
 -127 928 -62 951 -31 951 c 0xce
 1 951 5 925 14 925 c 0xd6
 21 925 19 937 51 937 c 0
 72 937 74 934 84 918 c 0
 96 898 95 889 103 889 c 0
 124 889 153 928 167 975 c 0
 180 1019 179 1019 197 1019 c 1
 209 1018 l 1
 199 971 l 2
 190 931 186 921 171 900 c 0
 146 864 134 869 86 832 c 0
 64 815 54 809 46 809 c 0
 40 809 34 815 34 823 c 0xe6
-71 828 m 0
 -71 832 -72 836 -79 836 c 0
 -82 836 -83 835 -83 833 c 0
 -83 829 -77 821 -73 821 c 0
 -72 821 -71 827 -71 828 c 0
EndSplineSet
MultipleSubs2: "Thai Tone Nikhahit Attachment" uni0E4D uni0E4A
Substitution2: "Thai Tone Low Variant" uni0E4A.low
Substitution2: "Thai Sara U Mai Tri Reordering" uni0E38
Substitution2: "Thai Sara UU Mai Tri Reordering" uni0E39
Substitution2: "Thai Phinthu Mai Tri Reordering" uni0E3A
EndChar

StartChar: uni0E4D
Encoding: 322 3661 168
Width: 0
Flags: W
HStem: 598 61<-6.5 71.2071> 716 52<20.8321 65.9221>
VStem: -40 58<659.705 715.461> 72 59<660.332 710.006>
AnchorPoint: "AboveMark" 70 780 basemark 0
AnchorPoint: "AboveBase" 117 560 mark 0
LayerCount: 2
Fore
SplineSet
-40 662 m 0
 -40 726 15 768 61 768 c 0
 107 768 131 728 131 696 c 0
 131 637 37 598 10 598 c 0
 -23 598 -40 628 -40 662 c 0
36 716 m 0
 22 716 18 686 18 678 c 0
 18 659 31 659 39 659 c 0
 53 659 72 666 72 680 c 0
 72 695 48 716 36 716 c 0
EndSplineSet
Substitution2: "Thai Mark High Variant" uni0E4D.high
Substitution2: "Thai Sara U Nikhahit Reordering" uni0E38
Substitution2: "Thai Sara UU Nikhahit Reordering" uni0E39
Substitution2: "Thai Phinthu Nikhahit Reordering" uni0E3A
EndChar

StartChar: uni0E4E
Encoding: 323 3662 169
Width: 0
Flags: W
HStem: 578 24<-14.7124 16.9922> 714 30<81.335 117.273> 732 25<53.0363 86.4663>
VStem: -65 27<619.475 688.823>
AnchorPoint: "AboveBase" 141 560 mark 0
LayerCount: 2
Fore
SplineSet
-0 694 m 0xb0
 -30 694 -38 681 -38 657 c 0
 -38 623 -25 619 -11 612 c 0
 1 606 15 602 18 602 c 0
 20 602 21 601 21 599 c 0
 21 593 10 578 -0 578 c 0
 -12 578 -33 597 -42 597 c 0
 -49 597 -65 620 -65 652 c 0
 -65 738 9 705 32 735 c 0
 42 748 60 757 75 757 c 0xb0
 94 757 103 744 109 744 c 0
 110 744 111 744 112 745 c 0
 121 756 180 837 199 859 c 0
 210 872 215 876 222 876 c 0
 229 876 233 873 233 867 c 0
 233 850 194 813 172 782 c 0
 133 728 120 714 111 714 c 0xd0
 100 714 81 724 81 729 c 0
 81 731 78 732 73 732 c 0
 68 732 53 730 53 722 c 0
 53 713 76 681 76 668 c 0
 76 662 63 652 60 652 c 0
 52 652 45 694 -0 694 c 0xb0
EndSplineSet
EndChar

StartChar: uni0E4F
Encoding: 324 3663 170
Width: 677
Flags: W
HStem: 11 65<283.256 437.738> 185 50<355.038 404.951> 342 38<386.168 448.113> 472 73<420.413 516.438>
VStem: 150 62<138.579 333.334> 297 57<235.096 312.01> 452 38<283.518 338.724> 577 63<239.243 418.241>
LayerCount: 2
Fore
SplineSet
490 326 m 0
 490 300 445 185 362 185 c 0
 318 185 297 223 297 255 c 0
 297 285 324 337 349 361 c 1
 364 374 386 380 410 380 c 0
 450 380 490 361 490 326 c 0
429 282 m 0
 442 282 452 293 452 308 c 0
 452 325 438 342 422 342 c 0
 399 342 354 301 354 260 c 0
 354 245 360 235 378 235 c 0
 407 235 408 282 429 282 c 0
150 241 m 0
 150 303 165 342 205 395 c 0
 307 533 389 525 472 545 c 1
 474 545 l 2
 495 545 554 507 592 466 c 0
 626 430 640 404 640 363 c 0
 640 341 636 315 629 281 c 0
 601 151 539 73 426 27 c 0
 400 17 375 11 351 11 c 0
 319 11 287 20 250 39 c 0
 186 71 150 118 150 241 c 0
420 486 m 0
 403 486 212 438 212 218 c 0
 212 180 221 152 240 130 c 0
 270 96 326 76 378 76 c 0
 407 76 435 82 456 96 c 0
 493 121 577 201 577 359 c 0
 577 401 571 411 546 424 c 0
 530 432 518 442 518 447 c 0
 518 462 475 472 457 472 c 0
 453 472 442 470 435 470 c 0
 430 470 426 471 426 475 c 0
 426 480 429 486 420 486 c 0
EndSplineSet
EndChar

StartChar: uni0E50
Encoding: 325 3664 171
Width: 844
Flags: W
HStem: -23 62<287.738 459.87> 448 73<433.723 694.285>
VStem: 103 70<122.393 238.767> 803 65<334.342 410.91>
LayerCount: 2
Fore
SplineSet
340 -23 m 0
 230 -23 103 36 103 155 c 0
 103 237 162 327 260 407 c 0
 307 446 407 521 592 521 c 0
 648 521 710 515 773 501 c 0
 836 487 868 453 868 401 c 0
 868 289 746 182 718 155 c 0
 600 41 462 -23 340 -23 c 0
692 432 m 0
 682 444 658 448 606 448 c 0
 434 448 418 437 359 401 c 0
 218 316 173 212 173 173 c 0
 173 129 221 82 291 59 c 0
 333 46 358 39 382 39 c 0
 409 39 434 48 480 68 c 0
 632 133 803 313 803 395 c 0
 803 410 792 412 758 412 c 0
 730 412 702 421 692 432 c 0
EndSplineSet
EndChar

StartChar: uni0E51
Encoding: 326 3665 172
Width: 640
Flags: W
HStem: 177 52<252.461 342.088> 348 41<297.002 372.529> 458 64<386.473 553.67>
VStem: 146 87<250.694 332.666> 391 69<286.902 368> 596 51<268.833 401.185>
LayerCount: 2
Fore
SplineSet
576 268 m 0
 584 268 596 297 596 319 c 0
 596 366 561 444 531 456 c 0
 526 458 519 458 511 458 c 0
 463 458 360 434 325 413 c 0
 308 402 298 395 297 392 c 0
 297 390 300 389 304 389 c 0
 319 389 352 401 382 401 c 0
 419 401 460 390 460 346 c 0
 460 286 409 266 404 242 c 0
 399 217 316 177 271 177 c 0
 238 177 219 188 185 229 c 0
 159 261 146 280 146 297 c 0
 146 326 191 347 195 370 c 0
 200 394 315 485 354 495 c 0
 433 516 443 522 487 522 c 0
 540 522 599 510 614 492 c 0
 630 473 647 431 647 369 c 0
 647 250 599 190 573 153 c 0
 511 64 484 50 416 -15 c 0
 393 -38 368 -53 357 -53 c 0
 352 -53 337 -49 337 -35 c 0
 337 -19 357 9 399 44 c 0
 462 96 551 208 559 246 c 0
 561 257 569 268 576 268 c 0
289 348 m 0
 258 348 233 312 233 295 c 0
 233 268 263 229 291 229 c 0
 349 229 391 309 391 316 c 0
 391 328 306 348 289 348 c 0
EndSplineSet
EndChar

StartChar: uni0E52
Encoding: 327 3666 173
Width: 700
Flags: W
HStem: -1 82<210 399.018> 14 64<218.032 581> 407 66<358.711 413.838> 441 83<602.765 679>
VStem: 229 84<488.118 767.551> 283 69<298.5 400.173> 648 73<296.57 476.5>
LayerCount: 2
Fore
SplineSet
229 662 m 0x8a
 229 682 226 706 226 726 c 0
 226 732 226 737 227 741 c 0
 232 763 273 782 281 782 c 0
 300 782 313 737 313 684 c 0
 313 612 296 495 261 325 c 2
 210 81 l 1x8a
 396 78 l 1
 581 74 l 1
 616 204 l 2
 635 274 648 322 648 375 c 0
 648 422 635 441 630 441 c 0x5a
 623 441 611 430 587 402 c 0
 525 331 481 292 462 292 c 0
 453 292 444 281 441 268 c 0
 434 234 383 219 378 219 c 0
 366 219 374 237 374 251 c 0
 374 264 365 267 336 267 c 0
 299 267 283 280 283 317 c 0
 283 332 286 351 291 376 c 0
 302 429 310 442 340 459 c 0
 356 468 372 473 387 473 c 0x26
 413 473 438 458 466 428 c 2
 498 392 l 1
 540 449 l 2
 578 500 616 524 656 524 c 0
 702 524 721 504 721 449 c 0
 721 402 707 330 684 224 c 2
 639 15 l 1
 448 14 l 1x56
 226 14 174 -1 158 -1 c 0
 135 -1 132 9 132 16 c 0
 132 102 229 538 229 662 c 0x8a
389 407 m 0x26
 377 407 352 385 352 369 c 0
 352 359 362 353 379 353 c 0
 388 353 419 355 419 370 c 0
 419 386 399 407 389 407 c 0x26
EndSplineSet
EndChar

StartChar: uni0E53
Encoding: 328 3667 174
Width: 662
Flags: W
HStem: 3 62<200.372 283.857> 126 70<219.351 317.5> 126 49<219.114 280.176> 395 69<226.799 272.538> 419 88<521.645 582.706>
VStem: 103 92<73.8905 281.771> 285 76<71.7042 142> 511 135<-4 70> 595 79<199.631 412.079>
LayerCount: 2
Fore
SplineSet
361 127 m 0xc680
 361 74 282 3 243 3 c 0
 221 3 197 17 160 44 c 0
 121 73 103 90 103 138 c 0
 103 174 113 228 132 317 c 0
 147 386 156 401 187 429 c 0
 213 452 239 464 263 464 c 0xd680
 303 464 340 432 364 368 c 2
 377 334 l 1
 422 389 l 2
 473 451 522 507 579 507 c 0
 644 507 674 429 674 372 c 0x8e80
 674 325 662 244 646 168 c 0
 609 -4 587 -40 518 -40 c 0
 509 -40 509 -39 511 -31 c 0x8f
 533 70 595 174 595 317 c 0
 595 373 584 419 559 419 c 0x8e80
 539 419 513 395 480 346 c 0
 436 281 366 212 345 212 c 0
 338 212 329 230 325 254 c 0
 319 291 309 313 271 377 c 0
 264 389 256 395 249 395 c 0
 213 395 195 248 195 197 c 0
 195 181 197 175 204 175 c 0xb680
 213 175 254 196 293 196 c 0
 342 196 361 157 361 127 c 0xc680
257 126 m 0
 241 126 200 90 200 83 c 0
 200 72 244 65 252 65 c 0
 272 65 285 74 285 88 c 0
 285 103 271 126 257 126 c 0
EndSplineSet
EndChar

StartChar: uni0E54
Encoding: 329 3668 175
Width: 715
Flags: W
HStem: 5 73<238.82 291.036> 55 125<526.338 590.927> 357 75<618.297 685.346> 387 40<376.578 487.374> 447 76<334.146 513.791>
VStem: 121 80<126.18 297.39> 305 74<246.841 341.498> 356 301<87.5 185> 495 61<293.58 369.916> 871 51<737.006 781.354>
LayerCount: 2
Fore
SplineSet
657 94 m 0x5d40
 657 81 647 55 607 55 c 0x5d40
 576 55 534 69 484 98 c 2
 432 128 l 1
 377 83 l 2
 306 26 278 5 254 5 c 0
 228 5 121 56 121 189 c 0
 121 223 130 262 140 291 c 0
 175 393 223 451 309 491 c 0
 354 512 400 523 443 523 c 0
 575 523 623 432 656 432 c 0
 700 432 831 681 837 710 c 0
 840 725 848 737 855 737 c 0
 862 737 869 745 871 756 c 0
 877 786 919 789 919 789 c 1
 921 789 922 787 922 784 c 0
 922 755 857 596 829 569 c 0
 822 562 814 544 810 526 c 0
 802 487 729 357 635 357 c 0
 595 357 553 379 518 421 c 0
 501 441 482 447 429 447 c 0
 339 447 333 446 282 397 c 0
 234 352 229 340 212 261 c 0
 205 228 201 206 201 189 c 0
 201 138 255 78 259 78 c 0
 262 78 356 140 356 169 c 0xad40
 356 201 305 237 305 271 c 0
 305 304 347 427 433 427 c 0
 489 427 556 369 556 314 c 0x9ec0
 556 253 480 239 480 216 c 0
 480 205 499 194 539 180 c 0
 612 155 657 122 657 94 c 0x5d40
449 387 m 0
 413 387 369 382 369 350 c 0
 369 335 380 316 380 299 c 0
 380 292 379 292 379 288 c 0
 379 270 399 240 412 240 c 0
 419 240 495 301 495 335 c 0x1ec0
 495 383 466 387 449 387 c 0
EndSplineSet
EndChar

StartChar: uni0E55
Encoding: 330 3669 176
Width: 810
Flags: W
HStem: -6 75<249.297 325.889> 60 134<517.794 658.301> 102 85<421.416 524.005> 269 62<423.703 565.533> 436 70<318.947 427.869> 676 57<677.903 753.5>
VStem: 140 77<111.809 283.524> 335 74<199.23 272.125> 580 86<583.613 653.11> 690 84<475.258 536.051>
LayerCount: 2
Fore
SplineSet
580 612 m 0xbfc0
 580 658 693 733 740 733 c 0
 767 733 799 690 802 649 c 0
 804 633 808 625 817 625 c 0
 834 625 850 647 953 721 c 0
 999 755 1036 773 1055 773 c 0
 1064 773 1069 769 1069 760 c 0
 1069 721 897 597 838 565 c 0
 802 546 775 524 773 515 c 0
 773 513 775 511 774 506 c 0
 769 483 727 426 699 405 c 0
 686 396 667 370 659 350 c 0
 639 302 569 269 497 269 c 0
 473 269 455 273 437 273 c 0
 424 273 409 272 409 248 c 0
 409 232 415 187 470 187 c 0xbfc0
 498 187 527 194 565 194 c 0
 592 194 617 191 633 185 c 0
 677 169 714 129 714 98 c 0
 714 75 695 60 639 60 c 0x5fc0
 552 60 473 102 453 102 c 0
 448 102 414 77 380 47 c 0
 336 9 317 -6 291 -6 c 0
 276 -6 258 -1 233 7 c 0
 181 23 140 101 140 184 c 0
 140 282 216 420 266 459 c 0
 305 490 357 506 417 506 c 0
 522 506 594 460 640 460 c 0
 672 460 690 511 690 516 c 0
 690 538 639 537 598 582 c 0
 586 594 580 603 580 612 c 0xbfc0
699 582 m 0
 715 582 719 591 719 604 c 0
 719 626 710 676 696 676 c 0
 684 676 666 636 666 615 c 0
 666 595 678 582 699 582 c 0
335 256 m 0
 335 369 429 408 429 422 c 0
 429 425 415 436 391 436 c 0
 368 436 340 428 316 413 c 0
 281 391 261 386 221 215 c 0
 218 202 217 192 217 183 c 0
 217 164 222 149 233 124 c 0
 249 86 261 69 278 69 c 0
 295 69 368 109 368 137 c 0
 368 164 335 197 335 256 c 0
574 365 m 0
 574 379 510 397 510 397 c 0
 498 397 480 387 461 370 c 2
 423 336 l 1
 468 332 l 2
 474 331 480 331 486 331 c 0
 537 331 574 351 574 365 c 0
EndSplineSet
EndChar

StartChar: uni0E56
Encoding: 331 3670 177
Width: 757
Flags: W
HStem: -23 79<446.29 525.96> 205 64<435.064 504.779> 471 60<568.836 703.708>
VStem: 505 77<162.23 201.99> 714 76<314.291 461.07>
LayerCount: 2
Fore
SplineSet
156 588 m 0
 156 643 206 654 214 654 c 0
 244 654 356 496 367 440 c 2
 376 393 l 1
 447 440 l 2
 553 510 601 531 664 531 c 0
 712 531 727 524 756 484 c 0
 779 452 790 425 790 395 c 0
 790 387 789 356 767 309 c 2
 709 190 l 2
 654 78 532 -23 453 -23 c 0
 431 -23 400 -11 358 47 c 2
 315 105 l 1
 353 162 l 2
 389 216 451 269 485 269 c 0
 496 269 508 265 529 258 c 0
 549 251 582 236 582 192 c 0
 582 139 542 92 490 86 c 0
 465 83 446 74 446 66 c 0
 446 60 455 56 474 56 c 0
 614 56 714 308 714 407 c 0
 714 450 695 471 655 471 c 0
 639 471 620 468 598 462 c 0
 547 448 420 355 385 306 c 0
 370 285 356 274 344 274 c 0
 324 274 308 302 292 359 c 0
 268 446 202 559 173 559 c 0
 162 559 156 572 156 588 c 0
456 205 m 0
 415 205 404 185 404 172 c 0
 404 160 414 152 433 152 c 0
 470 152 505 165 505 184 c 0
 505 201 477 205 456 205 c 0
EndSplineSet
EndChar

StartChar: uni0E57
Encoding: 332 3671 178
Width: 1002
Flags: W
HStem: -9 53<196.142 269.828> 24 185<531 744> 177 87<253.693 332.5> 388 89<266.76 410.263> 455 98<638.116 680.073>
VStem: 113 81<46.1557 104.251> 307 70<116.231 211.5> 460 94<209.933 332.543> 688 85<289.745 454.851> 1040 92<677.023 839.859>
LayerCount: 2
Fore
SplineSet
773 412 m 0x0fc0
 773 326 734 257 734 214 c 0
 734 211 734 209 736 209 c 0
 752 210 864 332 900 389 c 0
 955 474 1019 635 1040 732 c 0
 1045 755 1053 846 1076 866 c 0
 1086 874 1095 879 1101 879 c 0
 1120 879 1132 831 1132 783 c 0
 1132 754 1132 735 1097 636 c 0
 1035 458 1002 391 923 287 c 0
 824 157 628 24 545 24 c 0
 517 24 501 42 501 57 c 0
 501 76 531 95 551 105 c 0
 624 145 679 281 684 305 c 0
 687 316 688 333 688 351 c 0
 688 398 680 455 670 455 c 0x4fc0
 656 455 569 383 554 309 c 0
 550 290 544 185 504 185 c 0
 479 185 461 230 460 266 c 0
 459 324 407 388 362 388 c 0
 276 387 255 374 242 311 c 2
 229 251 l 1
 282 261 l 2
 293 263 303 264 311 264 c 0
 354 264 377 223 377 200 c 0
 377 167 334 55 323 38 c 0
 306 11 253 -9 206 -9 c 0
 142 -9 113 33 113 81 c 0
 113 117 127 136 132 159 c 0
 158 278 103 359 244 448 c 0
 276 469 298 477 335 477 c 0xb7c0
 403 477 459 462 474 444 c 0
 480 436 486 432 493 432 c 0
 520 432 654 553 675 553 c 0
 681 553 704 541 727 524 c 0
 757 503 773 464 773 412 c 0x0fc0
228 44 m 0xa7c0
 263 44 307 97 307 142 c 0
 307 172 285 177 279 177 c 0
 244 177 261 128 218 106 c 0
 202 97 194 86 194 73 c 0
 194 58 206 44 228 44 c 0xa7c0
EndSplineSet
EndChar

StartChar: uni0E58
Encoding: 333 3672 179
Width: 919
Flags: W
HStem: -34 119<223.646 280.049> -26 100<469.109 522.096> 227 55<459.196 550.869> 282 94<677 721.772> 429 90<421.662 566.558>
VStem: 118 99<88.1813 256.338> 573 41<154.642 203.645>
LayerCount: 2
Fore
SplineSet
614 181 m 0xbe
 614 111 534 -26 481 -26 c 0x7e
 466 -26 377 94 359 94 c 0
 334 94 289 -34 249 -34 c 0
 231 -34 212 -13 180 27 c 0
 139 80 118 122 118 167 c 0
 118 193 125 232 159 298 c 0
 190 358 313 470 348 470 c 0
 393 470 428 519 509 519 c 0
 567 519 620 490 654 435 c 0
 678 396 697 376 709 376 c 0
 714 376 718 381 720 390 c 0
 727 424 955 700 983 710 c 0
 991 713 997 714 1002 714 c 0
 1016 714 1023 705 1023 692 c 0
 1023 659 986 621 972 609 c 0
 912 557 757 282 680 282 c 0
 674 282 644 316 613 356 c 0
 570 411 549 429 501 429 c 0
 481 429 456 426 423 421 c 0
 387 415 346 394 303 361 c 2
 238 310 l 1
 223 218 l 2
 219 193 217 171 217 153 c 0
 217 109 228 85 247 85 c 0
 267 85 295 116 297 126 c 0
 301 144 319 154 411 232 c 0
 450 265 488 282 520 282 c 0
 584 282 614 216 614 181 c 0xbe
495 74 m 0
 517 74 549 105 549 127 c 1
 548 142 l 1
 552 164 573 162 573 174 c 0
 573 189 536 227 504 227 c 0
 467 227 431 178 431 159 c 0
 431 149 438 141 450 138 c 1
 469 98 l 1
 469 82 487 74 495 74 c 0
EndSplineSet
EndChar

StartChar: uni0E59
Encoding: 334 3673 180
Width: 984
Flags: W
HStem: -12 43<204.016 299.919> 111 65<216.442 335.858> 344 102<790.888 856.808> 396 69<232.689 366.664> 436 81<632.583 713.044>
VStem: 337 67<61.7326 121.919> 552 87<64.0173 227.976>
LayerCount: 2
Fore
SplineSet
639 111 m 0xce
 639 68 632 22 602 22 c 0
 584 22 552 110 552 155 c 0
 552 164 553 166 553 169 c 0
 553 184 537 221 515 254 c 0
 463 333 356 396 284 396 c 0
 268 396 254 393 243 386 c 0
 218 371 183 259 183 204 c 0
 183 180 189 161 206 161 c 0
 211 161 296 176 332 176 c 0
 391 176 404 135 404 108 c 0
 404 74 381 43 356 22 c 0
 323 -7 303 -12 236 -12 c 0
 167 -12 154 -7 127 27 c 0
 109 50 101 69 101 114 c 0
 101 151 107 244 119 298 c 0
 150 442 223 465 310 465 c 0xd6
 459 465 493 404 516 404 c 0
 521 404 524 408 525 415 c 0
 534 458 663 517 711 517 c 0xce
 753 517 798 446 831 446 c 0
 845 446 855 460 868 489 c 0
 909 577 1037 787 1060 802 c 0
 1075 812 1091 819 1101 819 c 0
 1113 819 1119 809 1119 795 c 0
 1119 759 1104 769 1005 591 c 1
 907 412 863 344 817 344 c 0xe6
 765 344 714 436 670 436 c 0
 653 436 610 414 605 392 c 0
 604 388 604 384 604 379 c 0
 604 328 639 204 639 111 c 0xce
225 31 m 0
 257 31 337 57 337 95 c 0
 337 106 315 111 290 111 c 0
 219 111 203 81 203 53 c 0
 203 42 207 31 225 31 c 0
EndSplineSet
EndChar

StartChar: uni0E5A
Encoding: 335 3674 181
Width: 632
Flags: W
HStem: 326 36<202.542 278.954> 486 43<203.81 289.537>
VStem: 144 40<377.962 464.475> 347 67<22.0734 145.796> 421 53<321.186 513.218>
LayerCount: 2
Fore
SplineSet
599 406 m 0
 558 212 548 27 521 4 c 0
 502 -12 489 -2 489 24 c 0
 489 65 530 337 551 441 c 0
 562 495 572 517 581 522 c 0
 590 527 598 530 603 530 c 0
 612 530 615 523 615 508 c 0
 615 489 609 456 599 406 c 0
347 4 m 0
 347 54 421 412 421 448 c 0
 421 454 400 435 375 411 c 0
 316 353 269 326 224 326 c 0
 183 326 144 342 144 397 c 0
 144 473 213 519 218 521 c 0
 229 526 243 529 258 529 c 0
 297 529 313 515 338 481 c 2
 359 452 l 1
 393 490 l 2
 417 516 437 530 452 530 c 0
 461 530 474 525 474 498 c 0
 474 441 442 245 414 114 c 0
 387 -13 382 -16 361 -16 c 0
 352 -16 347 -14 347 4 c 0
243 486 m 0
 213 486 184 446 184 427 c 0
 184 422 185 419 189 419 c 0
 195 419 195 414 195 408 c 0
 195 397 194 379 216 369 c 1
 224 364 231 362 237 362 c 0
 252 362 318 399 318 410 c 0
 318 434 287 486 243 486 c 0
EndSplineSet
EndChar

StartChar: uni0E5B
Encoding: 336 3675 182
Width: 874
Flags: W
HStem: -66 59<186.547 270.447> 97 68<430.171 466.592> 274 56<581.951 616.041> 415 68<252.211 327.279> 465 66<786.478 887.349>
VStem: 117 55<11.4007 286.784> 322 55<333.051 413.084> 506 74<330.016 395.972>
LayerCount: 2
Fore
SplineSet
322 360 m 0xf7
 322 377 328 389 328 402 c 0
 328 414 321 415 301 415 c 0xf7
 284 415 264 411 256 407 c 0
 234 393 195 308 180 238 c 0
 175 211 172 175 172 139 c 0
 172 89 177 40 186 16 c 0
 192 2 210 -7 229 -7 c 0
 242 -7 255 -2 264 7 c 0
 340 84 336 73 370 219 c 0
 390 305 400 375 437 375 c 0
 447 375 451 364 451 347 c 0
 451 306 430 231 430 191 c 0
 430 175 434 165 443 165 c 0
 454 165 466 181 468 191 c 0
 475 223 495 212 506 264 c 0
 521 334 518 434 559 434 c 0
 571 434 580 425 580 386 c 0
 580 384 580 382 580 380 c 0
 580 352 585 330 592 330 c 0
 605 330 662 406 679 447 c 0
 687 467 702 480 748 496 c 0
 796 513 848 531 871 531 c 0
 891 531 895 512 895 503 c 0
 895 488 870 465 832 465 c 0xef
 801 465 739 442 720 423 c 0
 684 389 657 274 572 274 c 0
 559 274 550 264 541 241 c 0
 500 139 473 97 443 97 c 0
 430 97 407 113 400 113 c 0
 386 113 337 -66 194 -66 c 0
 175 -66 165 -61 156 -50 c 0
 126 -15 117 51 117 113 c 0
 117 309 171 377 209 421 c 0
 245 462 278 483 305 483 c 0
 350 483 377 418 377 377 c 0
 377 336 349 329 342 329 c 0
 330 329 322 341 322 360 c 0xf7
EndSplineSet
EndChar

StartChar: endash
Encoding: 340 8211 184
Width: 587
Flags: W
HStem: 244 37<123.461 303.202> 261 46<419.83 593.365>
LayerCount: 2
Fore
SplineSet
544 261 m 0x40
 525 261 505 265 493 265 c 0
 416 260 293 258 215 252 c 0
 198 250 173 244 152 244 c 0
 129 244 111 251 110 281 c 1x80
 206 283 267 298 305 298 c 0
 339 298 385 293 418 293 c 0
 457 293 498 307 549 307 c 0
 584 307 594 295 594 286 c 0
 594 278 581 261 544 261 c 0x40
EndSplineSet
EndChar

StartChar: emdash
Encoding: 341 8212 185
Width: 706
Flags: W
HStem: 274 37<116.175 299.152> 282 29<364.305 627.047> 284 45<150.157 508.663 512.287 698.773>
LayerCount: 2
Fore
SplineSet
305 284 m 0x20
 178 284 195 274 148 274 c 0x80
 122 274 101 282 99 311 c 1x40
 208 313 282 329 309 329 c 0x20
 358 329 462 311 511 311 c 0x40
 538 311 594 326 647 326 c 0
 687 326 699 314 699 305 c 0
 699 297 688 280 644 280 c 0
 623 280 600 284 585 284 c 0x20
 565 283 539 282 510 282 c 0x40
 447 282 369 284 305 284 c 0x20
EndSplineSet
EndChar

StartChar: quoteleft
Encoding: 342 8216 186
Width: 322
Flags: W
VStem: 224 106<592.871 665.118>
LayerCount: 2
Fore
SplineSet
224 677 m 0
 224 714 246 723 261 723 c 0
 313 723 330 574 330 513 c 0
 330 505 330 497 329 493 c 1
 306 485 l 1
 286 503 224 613 224 677 c 0
EndSplineSet
EndChar

StartChar: quoteright
Encoding: 343 8217 187
Width: 315
Flags: W
LayerCount: 2
Fore
SplineSet
383 677 m 0
 383 622 275 494 227 494 c 0
 220 494 209 497 209 513 c 0
 209 564 314 699 363 699 c 0
 372 699 383 694 383 677 c 0
EndSplineSet
EndChar

StartChar: quotedblleft
Encoding: 345 8220 188
Width: 349
Flags: W
VStem: 201 114<541.266 625.377> 324 97<562.869 662.087>
LayerCount: 2
Fore
SplineSet
421 570 m 0
 421 530 399 522 385 522 c 0
 337 522 324 649 324 719 c 0
 324 736 325 750 326 757 c 1
 349 764 l 1
 366 744 421 635 421 570 c 0
201 633 m 0
 201 677 221 692 234 692 c 0
 272 692 315 598 315 537 c 0
 315 494 293 484 279 484 c 0
 239 484 201 572 201 633 c 0
EndSplineSet
EndChar

StartChar: quotedblright
Encoding: 346 8221 189
Width: 398
Flags: W
HStem: 538 21G<229.5 257>
LayerCount: 2
Fore
SplineSet
305 473 m 0
 297 473 283 479 283 496 c 0
 283 555 443 686 473 704 c 1
 487 689 l 1
 473 653 358 473 305 473 c 0
213 561 m 0
 213 616 319 744 366 744 c 0
 381 744 385 734 385 723 c 0
 385 671 280 538 234 538 c 0
 225 538 213 543 213 561 c 0
EndSplineSet
EndChar

StartChar: bullet
Encoding: 348 8226 190
Width: 674
Flags: W
HStem: 162 267<320.386 466.645>
VStem: 259 272<221.478 363.053>
LayerCount: 2
Fore
SplineSet
259 296 m 0
 259 391 336 429 397 429 c 0
 481 429 531 354 531 284 c 0
 531 222 493 162 394 162 c 0
 305 162 259 229 259 296 c 0
EndSplineSet
EndChar

StartChar: ellipsis
Encoding: 349 8230 191
Width: 632
Flags: W
HStem: 3 103<438.137 489.472> 14 103<145.284 197.143 293.463 345.888>
VStem: 134 98<51.0618 104.04> 278 97<45.7446 98.9145> 427 97<40.7446 93.9238>
LayerCount: 2
Fore
SplineSet
134 54 m 0x78
 134 84 151 117 179 117 c 0
 197 117 213 103 232 88 c 1
 201 23 171 14 159 14 c 0
 143 14 134 33 134 54 c 0x78
427 42 m 0
 427 73 443 106 472 106 c 0
 484 106 493 103 524 77 c 1
 494 14 463 3 452 3 c 0xb8
 435 3 427 21 427 42 c 0
278 47 m 0
 278 78 294 111 323 111 c 0
 341 111 356 97 375 82 c 1
 345 19 314 8 303 8 c 0
 286 8 278 26 278 47 c 0
EndSplineSet
LCarets2: 2 0 0 
Ligature2: "'liga' Standard Ligatures lookup 2 subtable" period period period
EndChar

StartChar: uniF000
Encoding: 359 61440 192
Width: 768
Flags: W
HStem: 284 28<387.403 450.53> 469 24<342.446 395.132 478.99 532.54> 527 20<303.072 338.457> 557 19<443.829 462.945 586.305 617.722> 739 54<295.499 317.415> 808 19<382.004 401.577> 851 18<530.678 657.03>
VStem: 151 25<125.698 268.996> 189 21<375.307 490.36> 197 33<618.295 701.821> 220 25<160.482 247.25> 236 32<255.476 503.321> 379 30<628.024 703.845> 623 23<273.459 482.549> 676 20<227.277 300.913> 692 19<290.419 487.922> 798 23<470.947 671.003>
LayerCount: 2
Fore
SplineSet
245 200 m 0xff2c80
 245 177 238 160 234 160 c 0
 227 160 220 187 220 214 c 0
 220 222 222 251 228 251 c 0
 233 251 245 230 245 200 c 0xff2c80
360 317 m 0
 360 322 362 336 371 336 c 0
 385 336 392 312 410 312 c 0
 426 312 461 333 483 335 c 2
 497 336 l 1
 483 323 l 2
 464 305 437 284 408 284 c 0
 382 284 360 297 360 317 c 0
623 459 m 0
 626 472 631 483 636 483 c 0
 643 483 646 458 646 423 c 0
 646 363 637 271 626 217 c 0
 607 129 570 71 553 71 c 0
 546 71 542 74 542 78 c 0
 542 81 545 86 550 90 c 0
 567 103 593 162 603 208 c 0
 621 295 614 417 623 459 c 0
710 447 m 2
 710 421 711 409 711 383 c 0xff0d80
 711 346 708 317 696 262 c 0
 689 230 686 223 680 223 c 0
 677 223 676 227 676 233 c 0xff0e80
 676 255 692 314 692 372 c 0xff0d80
 692 405 687 411 687 438 c 0
 687 461 690 488 700 488 c 0
 709 488 710 483 710 463 c 2
 710 447 l 2
300 443 m 0
 300 453 328 493 383 493 c 0
 410 493 430 481 430 464 c 0
 430 454 423 442 413 442 c 0
 393 442 401 469 375 469 c 0
 349 469 324 440 305 440 c 0
 302 440 300 440 300 443 c 0
176 174 m 0
 176 114 217 104 217 86 c 0
 217 80 207 78 204 78 c 0
 195 78 181 90 156 123 c 0
 153 128 151 138 151 152 c 0
 151 226 189 406 189 458 c 0
 189 470 186 472 186 474 c 0
 186 480 199 493 206 493 c 0
 208 493 210 492 210 488 c 0xff8c80
 210 425 176 205 176 174 c 0
506 474 m 0
 481 474 473 456 460 456 c 0
 457 456 456 457 456 459 c 0
 456 467 477 490 487 495 c 0
 490 497 503 499 515 499 c 0
 542 499 568 476 568 460 c 0
 568 448 550 445 547 445 c 0
 528 445 539 474 506 474 c 0
258 508 m 0
 273 508 273 488 273 451 c 0
 273 395 268 338 268 332 c 0
 268 299 291 221 305 208 c 1
 315 191 l 1
 315 182 386 150 407 150 c 0
 439 150 541 235 562 235 c 0
 567 235 571 232 571 228 c 0
 571 216 529 189 497 169 c 2
 426 124 l 1
 395 126 l 2
 266 135 251 258 247 266 c 0
 238 282 236 304 236 325 c 2xff1c80
 239 390 l 2
 244 490 249 508 258 508 c 0
522 675 m 0
 542 675 543 599 609 571 c 0
 622 565 627 561 627 558 c 0
 627 554 618 552 607 552 c 0
 528 552 508 637 508 659 c 0
 508 670 516 675 522 675 c 0
379 662 m 0
 379 680 382 704 393 704 c 0
 399 704 403 695 409 673 c 0
 424 620 441 581 453 576 c 0
 460 573 463 570 463 567 c 0
 463 561 445 557 437 557 c 0
 406 557 399 615 388 621 c 0
 382 625 379 644 379 662 c 0
197 665 m 0xff4c80
 197 705 244 722 244 722 c 1
 246 722 247 721 247 718 c 0
 247 703 230 704 230 680 c 0
 230 648 251 574 320 547 c 0
 334 541 342 536 342 532 c 0
 342 528 338 527 324 527 c 0
 230 527 197 624 197 665 c 0xff4c80
282 742 m 0
 282 765 316 793 322 793 c 0
 335 793 363 827 392 827 c 0
 399 827 402 824 402 820 c 0
 402 815 397 808 391 808 c 0
 387 808 382 805 382 803 c 0
 380 795 372 801 323 765 c 0
 303 750 284 739 283 739 c 2
 283 739 282 740 282 742 c 0
599 869 m 0
 631 869 663 866 675 861 c 0
 714 845 759 809 778 779 c 0
 798 746 821 638 821 582 c 0
 821 560 813 448 794 362 c 0
 784 314 734 179 720 114 c 2
 718 104 l 2
 712 75 693 59 690 59 c 0
 684 60 681 63 681 68 c 0
 681 80 692 92 701 130 c 1
 712 183 722 155 766 360 c 0
 790 473 798 543 798 589 c 0
 798 660 780 677 777 715 c 1
 768 783 676 851 616 851 c 0
 529 851 508 832 493 832 c 0
 489 832 488 833 488 837 c 0
 488 862 570 869 599 869 c 0
EndSplineSet
Ligature2: "'liga' Standard Ligatures lookup 2 subtable" T M
LCarets2: 1 0 
EndChar

StartChar: uniF001
Encoding: 360 61441 193
Width: 549
Flags: W
HStem: 135 35<249.906 305.459> 367 32<227.646 254.721> 408 40<445.336 477.406> 511 77<470.362 494.858> 564 19<289.004 303.029> 623 40<288.468 307.771> 634 33<474.743 512.332> 685 22<263.405 303.802> 718 17<476.045 501.991> 758 29<290.342 360.601> 773 32<484.218 533.84>
VStem: 193 33<399.25 477.074> 225 30<177.745 298.844> 232 31<693 727.812> 239 50<541.892 563.997> 243 53<524.78 555.246> 255 27<583.111 616.536> 418 35<448.36 496.17> 428 32<730 761.057> 438 32<588.249 633.247> 534 39<753.786 780.5>
DStem2: 343 623 349 591 0.755033 0.655687<0 96.6316>
LayerCount: 2
Fore
SplineSet
398 259 m 0xe18808
 398 226 314 135 268 135 c 0
 233 135 225 177 225 253 c 0
 225 275 225 299 242 299 c 0
 247 299 252 296 255 292 c 0
 261 280 259 170 277 170 c 0
 291 170 337 210 355 239 c 0
 369 262 378 270 386 270 c 0
 394 270 398 266 398 259 c 0xe18808
256 564 m 0xed8208
 263 564 268 568 268 571 c 0
 268 574 264 576 260 576 c 0
 256 576 255 581 255 586 c 0
 255 617 271 607 276 634 c 0xeb8088
 280 653 293 663 306 663 c 0
 317 663 328 656 334 642 c 2
 343 623 l 1
 369 647 l 2
 403 678 426 682 426 682 c 1
 426 681 l 2
 426 664 411 647 385 623 c 2
 349 591 l 1
 336 529 l 2
 334 519 334 511 332 503 c 0
 320 446 308 446 289 408 c 0xe58208
 278 385 250 367 230 367 c 0
 223 367 217 369 213 373 c 0
 196 387 193 402 193 454 c 2
 193 505 l 1
 210 517 l 2
 232 533 243 535 243 542 c 0xe59108
 243 547 239 550 239 555 c 0
 239 561 245 564 256 564 c 0xed8208
308 604 m 0
 308 612 302 623 300 623 c 0xed8088
 298 623 282 593 282 586 c 0
 282 584 283 583 284 583 c 0
 289 583 308 590 308 604 c 0
289 556 m 0xe99208
 289 550 296 553 296 541 c 0xe98108
 296 530 282 483 248 478 c 0
 236 476 226 478 226 435 c 0
 226 417 229 399 238 399 c 0
 245 399 278 446 283 446 c 0
 286 446 311 548 311 557 c 0
 311 564 308 564 303 564 c 0
 294 564 289 560 289 556 c 0xe99208
438 602 m 0xf38018
 438 631 466 667 495 667 c 0
 529 667 525 627 538 627 c 0
 551 627 549 643 577 671 c 1
 597 690 l 1
 595 671 l 2
 593 654 575 624 545 588 c 1
 531 569 532 546 527 521 c 0
 523 500 514 479 496 436 c 0
 489 421 469 408 454 408 c 0
 437 408 418 438 418 461 c 0xf38048
 418 469 427 537 443 547 c 0
 451 553 454 557 454 561 c 0
 454 571 438 580 438 602 c 0xf38018
483 588 m 0
 495 588 497 596 497 604 c 0
 497 616 493 634 487 634 c 0
 480 634 470 611 470 601 c 0xf38018
 470 593 475 588 483 588 c 0
464 448 m 0
 471 448 495 505 495 509 c 0
 495 510 495 511 494 511 c 0
 488 511 453 486 453 474 c 0xf18048
 453 464 460 448 464 448 c 0
265 685 m 0
 249 685 232 688 232 698 c 0
 232 705 240 717 252 735 c 0
 274 766 284 774 310 781 c 0
 323 785 332 787 340 787 c 0xe1c408
 357 787 379 777 379 760 c 0
 379 730 297 685 265 685 c 0
263 720 m 0
 263 716 267 707 280 707 c 0
 292 707 309 716 332 735 c 2
 361 759 l 1
 342 758 l 1
 302 758 263 728 263 720 c 0
428 738 m 0xe1a028
 428 743 433 759 436 759 c 0
 441 759 497 805 527 805 c 0
 538 805 573 787 573 774 c 0
 573 765 530 735 515 731 c 0
 508 730 501 725 501 723 c 0
 500 720 494 718 484 718 c 0
 475 718 428 722 428 738 c 0xe1a028
476 742 m 0
 476 741 476 740 476 739 c 0
 476 736 478 735 481 735 c 0
 498 735 534 759 534 765 c 0
 534 768 521 773 505 773 c 0
 469 773 460 754 460 751 c 0
 460 749 463 747 468 747 c 0
 472 747 476 745 476 742 c 0
EndSplineSet
EndChar

StartChar: uniF002
Encoding: 361 61442 194
Width: 832
Flags: W
HStem: 150 35<526 562.439> 260 30<359.636 386.658> 335 60<767.25 791.75> 445 43<192.417 253.515> 463 35<804.058 854.368> 526 44<183.047 269.548> 539 20G<710 721> 541 35<573.184 606.533> 677 17<376.5 393.5>
VStem: 311 34<298.049 614.445> 386 62<475.522 504.27> 421 21<516.001 546.285> 503 33<185.018 390.52> 507 38<550.358 651.793> 610 24<510 535.79> 676 56<526.046 550.882>
LayerCount: 2
Fore
SplineSet
730 339 m 0xe0c3
 734 356 793 395 827 395 c 0
 834 395 835 390 835 389 c 0
 832 375 756 335 735 335 c 0
 730 335 730 337 730 339 c 0xe0c3
174 450 m 0
 174 457 220 488 247 488 c 0
 264 488 269 481 269 479 c 0
 269 467 205 445 184 445 c 0xf0c3
 182 445 180 446 179 446 c 0
 175 447 174 448 174 450 c 0
725 433 m 0
 729 452 840 498 848 498 c 0xe8c3
 855 498 856 493 856 488 c 0xf0c3
 856 477 849 472 827 463 c 0xe8c3
 782 445 738 430 729 430 c 0
 725 430 725 431 725 433 c 0
278 536 m 0
 278 528 269 526 261 526 c 0
 230 526 175 544 175 558 c 0
 175 568 203 569 207 570 c 1
 208 570 l 2xe4c3
 210 570 278 556 278 536 c 0
634 528 m 0
 634 509 640 504 649 504 c 0
 653 504 656 506 657 510 c 0
 659 519 677 522 677 526 c 0xe4cb
 677 527 677 527 676 528 c 1
 676 530 l 1
 678 538 705 559 715 559 c 0xe2cb
 727 559 732 554 732 541 c 0
 732 512 619 150 533 150 c 0
 519 150 525 167 515 180 c 0
 506 193 503 209 503 228 c 0
 503 257 509 293 510 337 c 1
 510 382 515 431 523 469 c 0
 538 538 551 529 556 553 c 0
 559 567 576 576 590 576 c 0xe1cb
 606 576 634 557 634 531 c 0
 634 530 634 529 634 528 c 0
635 430 m 0
 628 430 592 343 567 343 c 0
 560 343 557 346 557 351 c 0
 557 373 612 434 618 460 c 0
 619 467 620 474 620 480 c 0
 620 490 618 498 615 498 c 1
 610 510 l 1
 610 524 598 541 590 541 c 0xe9cb
 558 541 536 370 536 252 c 0
 536 212 539 185 547 185 c 0
 553 185 594 241 603 263 c 0
 615 295 620 279 627 312 c 0
 635 348 676 444 690 489 c 2
 702 527 l 1
 683 501 l 2
 660 468 659 477 648 451 c 0
 644 440 637 430 635 430 c 0
528 671 m 1
 528 671 545 668 545 633 c 0xe0c7
 545 569 448 335 425 304 c 0
 408 282 379 260 365 260 c 0
 328 260 311 325 311 461 c 1
 311 461 328 616 328 617 c 0
 342 684 346 676 364 687 c 0
 371 691 381 694 385 694 c 0
 395 694 436 661 436 653 c 0
 436 640 444 644 453 614 c 1
 457 595 l 1
 476 621 l 2
 496 648 520 671 528 671 c 1
386 456 m 0xf0e3
 386 475 421 506 421 566 c 0
 421 612 402 652 396 661 c 2
 385 677 l 1
 374 661 l 2
 353 630 345 543 345 458 c 0
 345 371 354 290 370 290 c 0
 385 290 419 352 449 430 c 2
 491 542 l 2
 497 558 507 588 507 599 c 0
 507 602 507 603 505 603 c 0
 499 603 481 577 467 568 c 1
 457 560 442 527 442 518 c 0xf0d7
 442 517 442 516 443 516 c 2
 443 516 445 517 447 517 c 0
 448 517 448 517 448 516 c 2
 448 516 417 445 396 445 c 0
 390 445 386 450 386 456 c 0xf0e3
EndSplineSet
EndChar

StartChar: uniF003
Encoding: 362 61443 195
Width: 727
Flags: W
HStem: 92 289<328 521> 139 32<209.685 254.385> 169 29<545.81 573.181> 239 44<220.491 253.438> 270 35<545.171 591> 351 30<293.772 397 441.563 594.092> 562 21G<412.5 425> 574 67<561.195 607.5> 655 33<330.626 362.713> 667 28<530.274 582.5 659.672 686.5>
VStem: 189 31<171.335 238.797> 248 29<399.257 525.633> 563 35<641.003 666.98> 575 34<198.776 269.53> 672 32<557.806 677.376>
LayerCount: 2
Fore
SplineSet
196 241 m 0x5032
 201 265 206 283 225 283 c 0
 248 283 276 221 290 221 c 0
 296 221 301 237 318 237 c 0
 324 237 328 234 327 228 c 0
 324 215 291 193 288 181 c 0
 287 175 250 139 223 139 c 0
 197 139 189 161 189 189 c 0
 189 206 192 224 196 241 c 0x5032
231 239 m 0
 224 239 220 228 220 211 c 0
 220 194 224 171 231 171 c 0
 234 171 260 183 260 200 c 0
 260 218 236 239 231 239 c 0
609 262 m 0x2836
 609 234 591 169 570 169 c 0
 555 169 521 187 511 202 c 0
 506 209 498 214 492 214 c 0
 483 214 479 215 480 220 c 0
 482 228 499 245 541 284 c 0
 556 298 571 305 582 305 c 0
 600 305 609 288 609 262 c 0x2836
565 198 m 0
 570 198 575 202 575 243 c 0
 575 257 574 270 568 270 c 0
 559 270 537 248 535 238 c 0
 534 233 537 225 541 225 c 0
 545 225 546 221 545 217 c 0
 543 209 556 198 565 198 c 0
681 695 m 0x017a
 692 695 704 688 704 651 c 0
 704 593 685 545 668 490 c 0
 640 398 633 380 617 377 c 0
 611 376 599 370 592 364 c 0
 577 351 583 352 515 351 c 0x057a
 463 350 457 348 440 335 c 2
 422 321 l 1
 413 234 l 2
 403 133 410 92 385 92 c 0x803a
 375 92 369 98 369 122 c 0
 369 181 400 343 397 346 c 0
 395 347 375 350 350 351 c 0
 291 354 268 371 249 428 c 0
 248 431 248 435 248 440 c 0
 248 485 277 596 292 627 c 0
 309 662 338 688 357 688 c 0x04ba
 371 688 396 667 413 624 c 2
 424 596 l 1
 440 613 l 2
 463 638 508 674 528 685 c 0
 540 692 556 695 570 695 c 0
 595 695 598 679 598 665 c 2
 598 650 l 2
 598 645 598 641 602 641 c 0
 613 641 662 695 681 695 c 0x017a
347 655 m 0x02ba
 321 655 277 493 277 439 c 0
 277 429 279 423 282 423 c 0
 285 423 289 416 290 406 c 0
 292 395 281 381 450 381 c 0
 592 381 594 390 597 403 c 0
 600 415 609 403 610 407 c 2
 610 407 672 582 672 650 c 0
 672 657 672 661 670 661 c 0
 660 661 589 574 564 574 c 0
 559 574 556 577 556 590 c 0
 556 614 563 643 563 658 c 0
 563 664 562 667 559 667 c 0x817a
 544 666 499 634 467 599 c 0
 446 576 428 562 422 562 c 0
 403 562 360 655 347 655 c 0x02ba
EndSplineSet
EndChar

StartChar: uniF004
Encoding: 363 61444 196
Width: 1074
Flags: W
HStem: 87 59<621 699.5> 252 26<866.462 912.507> 334 43<879.191 917.825> 361 30<772.063 872.526> 370 29<950.72 1042.92>
VStem: 918 33<281.689 341.258>
DStem2: 330 402 269 333 0.851204 0.524835<-87.4461 331.4> 556 314 537 283 0.590871 -0.806766<0 176.845>
LayerCount: 2
Fore
SplineSet
951 312 m 0xcc
 951 295 925 252 888 252 c 0
 860 252 829 276 829 285 c 0
 829 303 873 341 873 351 c 0
 873 358 863 361 841 361 c 0
 799 361 723 337 699 315 c 0
 689 306 678 302 672 302 c 0
 667 302 665 304 666 309 c 0
 675 350 795 391 848 391 c 0xd4
 875 391 893 377 913 377 c 0xe4
 938 377 975 399 1013 399 c 0
 1079 399 1090 368 1090 355 c 0
 1090 349 1087 337 1074 337 c 0
 1054 337 1038 370 1018 370 c 0
 1002 370 955 362 951 358 c 0
 950 357 949 354 949 349 c 0
 949 339 951 322 951 312 c 0xcc
881 278 m 0
 908 278 918 291 918 310 c 0
 918 321 915 334 907 334 c 0xe4
 889 334 869 301 866 288 c 0
 865 282 867 278 881 278 c 0
143 277 m 0
 143 284 157 307 166 307 c 0
 179 307 305 389 330 402 c 0
 359 417 414 459 472 493 c 0
 537 531 584 555 598 559 c 0
 626 566 629 581 669 584 c 2
 685 585 l 1
 673 540 l 2
 653 468 590 386 584 359 c 0
 583 352 575 339 568 330 c 2
 556 314 l 1
 605 248 l 2
 673 156 690 120 703 114 c 0
 707 112 708 108 708 104 c 0
 708 95 703 87 696 87 c 0
 682 87 666 100 623 110 c 0
 573 122 579 130 504 136 c 0
 407 144 409 157 271 195 c 0
 203 214 144 247 144 263 c 0
 144 265 146 268 146 271 c 0
 146 275 143 275 143 277 c 0
551 367 m 0
 555 386 638 507 638 541 c 0
 638 542 638 542 637 542 c 0
 623 542 521 490 462 452 c 0
 363 388 401 409 338 374 c 0
 311 360 281 341 269 333 c 0
 250 320 250 319 262 319 c 0
 276 319 291 325 407 336 c 0
 517 346 548 352 551 367 c 0
518 168 m 0
 563 168 615 146 627 146 c 0
 629 146 629 146 629 148 c 0
 629 153 610 182 589 212 c 2
 537 283 l 2
 517 310 513 313 491 313 c 0
 461 313 490 310 350 296 c 0
 291 290 230 281 214 277 c 2
 187 269 l 1
 209 255 l 2
 244 233 366 208 412 186 c 0
 428 178 486 168 518 168 c 0
EndSplineSet
EndChar

